<?xml version="1.0" encoding="utf-8"?>
<!-- Generator: Adobe Illustrator 22.1.0, SVG Export Plug-In . SVG Version: 6.00 Build 0)  -->
<svg version="1.1" id="Calque_1" xmlns="http://www.w3.org/2000/svg" xmlns:xlink="http://www.w3.org/1999/xlink" x="0px" y="0px"
	 viewBox="0 0 50 50" style="enable-background:new 0 0 50 50;" xml:space="preserve">
<style type="text/css">
	.st0{fill:#FFFFFF;stroke:#F8BBD0;stroke-width:0.5;stroke-miterlimit:10;}
	.st1{fill:#F8BBD0;}
</style>
<path class="st0" d="M40.9,41.9c-4.3,3.9-9.7,6-15.3,6.1l-0.5,1.2l-0.5-1.2c-2.3,0-4.6-0.4-6.8-1.1c-8-2.6-14.1-9.2-15.9-17.5
	C0.1,21.2,2.8,12.6,9.1,6.9c6.3-5.7,15.1-7.6,23.1-5c8,2.6,14.1,9.2,15.9,17.5C49.9,27.6,47.2,36.2,40.9,41.9z"/>
<g>
	<g>
		<path class="st1" d="M43,29.1c0-3.9-3.1-7-7-7c-0.4,0-0.9,0-1.3,0.1L33,14.4h-3.2c-0.2-0.3-0.5-0.5-0.8-0.5c-0.6,0-1,0.4-1,1
			s0.4,1,1,1c0.3,0,0.7-0.2,0.8-0.5h2.3l0.5,2.3c0,0.1,0,0.1-0.1,0.2c-0.7,1.1-4.2,5.7-9.9,6.1L20,16.6c0.1,0,0.2,0,0.3,0
			c3.5-0.3,2.8-1.5,2.8-1.5h-6.5c-0.3,0-0.6,0.3-0.6,0.6v0.7c0,0.4,0.3,0.6,0.7,0.6c0.4,0,1.1-0.1,2.2-0.2l1.6,4.6l-2.2,2.2
			c-1.2-0.9-2.7-1.5-4.3-1.5c-3.9,0-7,3.1-7,7s3.1,7,7,7c3.8,0,6.9-3,7-6.8h0.9c0.2,0.9,1.1,1.6,2.1,1.6c1.2,0,2.1-1,2.1-2.1
			c0-0.5-0.2-0.9-0.4-1.3c4.3-1.9,6.4-5.4,7.4-7.6l0.6,2.6c-2.7,1-4.7,3.6-4.7,6.6c0,3.9,3.1,7,7,7C39.9,36.1,43,32.9,43,29.1z
			 M22.5,27.2c-0.3,0.3-0.5,0.6-0.6,1h-1c-0.2-1.5-0.9-2.9-1.9-3.9l1.8-1.8L22.5,27.2z M14,30c-0.5,0-1-0.4-1-1c0-0.5,0.4-1,1-1
			c0.5,0,1,0.4,1,1S14.6,30,14,30z M18,25.3c0.4,0.4,0.7,0.9,0.9,1.4l-3.3,1.5h-0.4l0,0c0,0,0-0.1-0.1-0.1L18,25.3z M16.1,28.2
			l2.9-1.3c0.2,0.4,0.3,0.9,0.4,1.3H16.1z M17.2,24.6L14.8,27l1.1-3.1C16.4,24.1,16.8,24.3,17.2,24.6z M14.1,27.5v-4
			c0.6,0,1.1,0.1,1.6,0.3l-1.2,3.4l-0.3,0.3l0,0C14.2,27.6,14.1,27.5,14.1,27.5C14,27.5,14.1,27.5,14.1,27.5z M13.9,23.6v4
			c-0.2,0-0.3,0-0.5,0.1L11.8,24C12.5,23.7,13.2,23.6,13.9,23.6z M11.6,24.1l1.7,3.6c-0.1,0.1-0.3,0.2-0.4,0.3l0,0l-3-2.6
			C10.4,24.8,11,24.4,11.6,24.1z M9.8,25.5l3,2.6l0,0c-0.1,0.1-0.2,0.3-0.2,0.4v-0.1l-3.8-1.3C9.1,26.6,9.4,26,9.8,25.5z M8.8,27.4
			l3.8,1.3c0,0.1-0.1,0.3-0.1,0.4V29h-4C8.5,28.4,8.6,27.9,8.8,27.4z M8.5,29.1h4c0,0.2,0,0.3,0.1,0.5L9,31.3
			C8.7,30.6,8.5,29.9,8.5,29.1z M9,31.4l3.6-1.7v-0.1c0.1,0.2,0.2,0.3,0.3,0.5l-2.6,3C9.8,32.7,9.4,32.1,9,31.4z M10.5,33.3l2.6-3
			l0,0c0.1,0.1,0.3,0.2,0.4,0.2h-0.1l-1.3,3.8C11.5,34,11,33.7,10.5,33.3z M13.9,30.6v4c-0.6,0-1.1-0.1-1.6-0.3l1.3-3.8l0,0
			C13.7,30.6,13.9,30.6,13.9,30.6C14,30.6,14,30.6,13.9,30.6z M14.1,34.6v-4c0.2,0,0.3,0,0.5-0.1l1.7,3.6
			C15.6,34.4,14.9,34.6,14.1,34.6z M16.4,34l-1.7-3.6c0.1-0.1,0.3-0.2,0.4-0.3l0,0l3,2.6C17.6,33.3,17,33.7,16.4,34z M18.2,32.6
			l-3-2.6c0.1-0.1,0.2-0.3,0.2-0.4v0.1l3.8,1.3C19,31.5,18.6,32.1,18.2,32.6z M19.3,30.8l-3.8-1.3c0-0.1,0-0.1,0-0.2h4
			C19.5,29.8,19.4,30.3,19.3,30.8z M24.7,26.7c-0.2-0.1-0.4-0.1-0.7-0.1c-0.2,0-0.3,0-0.5,0.1L23,25.2c3.5-0.3,6.1-1.9,7.9-3.5
			C29.6,23.5,27.7,25.5,24.7,26.7z M41.5,29h-4c0-0.2,0-0.3-0.1-0.5l3.6-1.7C41.3,27.5,41.5,28.2,41.5,29z M41,26.7l-3.6,1.7v0.1
			c-0.1-0.2-0.2-0.3-0.3-0.5l2.6-3C40.2,25.5,40.6,26,41,26.7z M39.5,24.9l-2.6,3c-0.1-0.1-0.3-0.2-0.4-0.2h0.1l1.3-3.8
			C38.5,24.1,39,24.4,39.5,24.9z M36,30c-0.5,0-1-0.4-1-1c0-0.5,0.4-1,1-1c0.5,0,1,0.4,1,1S36.5,30,36,30z M36.1,27.5v-4
			c0.6,0,1.1,0.1,1.6,0.3l-1.3,3.8C36.3,27.6,36.1,27.5,36.1,27.5C36,27.5,36,27.5,36.1,27.5z M35.9,23.6v4l0,0l-0.9-4
			C35.3,23.6,35.6,23.6,35.9,23.6z M34.2,24.9L33.8,24c0.1,0,0.1-0.1,0.2-0.1L34.2,24.9z M33.6,24.1l0.8,1.7l0.5,2l0.4-0.1l0,0
			c-0.1,0.1-0.3,0.2-0.4,0.3l0,0l-3-2.6C32.4,24.8,33,24.4,33.6,24.1z M31.8,25.5l3,2.6l0,0c-0.1,0.1-0.2,0.3-0.2,0.4v-0.1l-3.8-1.3
			C31,26.6,31.4,26,31.8,25.5z M30.7,27.4l3.8,1.3c0,0.1-0.1,0.3-0.1,0.4V29h-4C30.5,28.4,30.6,27.9,30.7,27.4z M30.5,29.1h4
			c0,0.2,0,0.3,0.1,0.5L31,31.3C30.7,30.6,30.5,29.9,30.5,29.1z M31,31.4l3.6-1.7v-0.1c0.1,0.2,0.2,0.3,0.3,0.5l-2.6,3
			C31.8,32.7,31.3,32.1,31,31.4z M32.4,33.3l2.6-3l0,0c0.1,0.1,0.3,0.2,0.4,0.2h-0.1L34,34.3C33.5,34,32.9,33.7,32.4,33.3z
			 M35.9,30.6v4c-0.6,0-1.1-0.1-1.6-0.3l1.3-3.8l0,0C35.7,30.6,35.8,30.6,35.9,30.6C36,30.6,35.9,30.6,35.9,30.6z M36.1,34.6v-4
			c0.2,0,0.3,0,0.5-0.1l1.7,3.6C37.5,34.4,36.8,34.6,36.1,34.6z M38.4,34l-1.7-3.6c0.1-0.1,0.3-0.2,0.4-0.3l0,0l3,2.6
			C39.6,33.3,39,33.7,38.4,34z M40.2,32.6l-3-2.6c0.1-0.1,0.2-0.3,0.2-0.4v0.1l3.8,1.3C40.9,31.5,40.6,32.1,40.2,32.6z M41.2,30.8
			l-3.8-1.3c0-0.1,0.1-0.3,0.1-0.4v0.1h4C41.5,29.7,41.4,30.2,41.2,30.8z"/>
		<polygon class="st1" points="39.2,19.9 39.2,14.7 33.7,16 35.2,20.5 		"/>
	</g>
</g>
</svg>
