<?xml version="1.0" encoding="utf-8"?>
<!-- Generator: Adobe Illustrator 22.1.0, SVG Export Plug-In . SVG Version: 6.00 Build 0)  -->
<svg version="1.1" xmlns="http://www.w3.org/2000/svg" xmlns:xlink="http://www.w3.org/1999/xlink" x="0px" y="0px"
	 viewBox="0 0 1920 1080" style="enable-background:new 0 0 1920 1080;" xml:space="preserve">
<style type="text/css">
	.st0{fill:#F8BBD0;}
	.st1{opacity:0.11;fill:#F48FB1;}
	.st2{fill:#F48FB1;}
	.st3{fill:#EDEDF0;}
	.st4{fill:#FFFFFF;}
</style>
<g id="Background">
	<g>
		<rect x="0.5" y="0.5" class="st0" width="1919" height="1079"/>
		<path d="M1919,1v1078H1V1H1919 M1920,0H0v1080h1920V0L1920,0z"/>
	</g>
</g>
<g id="Velo_1_fond">
	<path class="st1" d="M1750.1,831.5c-2.3,0-4.5,0.1-6.8,0.2c-11.5-42.9-29.1-95.5-56.1-150.1c-51.1-103.5-121.1-183.7-206.8-238.1
		l29.4-49.2c24.3,2.2,40.5,3.7,51,4.7c9.4,0.9,17.6-6.5,17.6-16v-17.6c0-8.9-7.2-16.1-16.1-16.1h-173.5c0,0-21.4,32.1,73.9,40.7
		c5.1,0.5,9.9,0.9,14.5,1.3l-22.1,37c-46.1-25.7-96.5-44.3-150.5-55.6l7.7-72.4H1283c-15.7,0-28.5-12.8-28.5-28.5
		c0-15.7,12.8-28.5,28.5-28.5h67.9c4.8,7.3,13.1,12.1,22.5,12.1c14.8,0,26.9-12,26.9-26.9c0-14.8-12-26.9-26.9-26.9
		c-9.4,0-17.7,4.8-22.5,12.1H1283c-32,0-58,26-58,58c0,30.8,24.1,56.1,54.5,57.9l-13.6,128.9c-8.6-0.7-17.3-1.2-26.1-1.2
		c-173.9,0-314.8,141-314.8,314.8c0,173.9,141,314.8,314.8,314.8c173.9,0,314.8-141,314.8-314.8c0-155-112-283.7-259.5-309.9
		l6.4-60.3c159,33.7,279.7,131.8,358.8,291.6c25.5,51.5,42.5,101.7,53.6,142.9c-53,15.6-91.7,64.6-91.7,122.7
		c0,70.6,57.2,127.9,127.9,127.9c70.6,0,127.9-57.2,127.9-127.9S1820.8,831.5,1750.1,831.5z M1260.4,510.4L1244,664.9V509.6
		C1249.5,509.7,1255,510,1260.4,510.4z M1239.8,819.3c-25.9,0-47-21.1-47-47c0-25.9,21.1-47,47-47c25.9,0,47,21.1,47,47
		C1286.7,798.2,1265.7,819.3,1239.8,819.3z M1235.5,509.6V700c-7.7,0.5-15.1,2.1-22,4.8l-79.2-173.1
		C1165.3,518,1199.5,510.2,1235.5,509.6z M1126.5,535.1l79.2,173.1c-6.6,3.5-12.5,8-17.7,13.2c0,0,0,0,0,0l-143.3-125.3
		C1067.6,570.9,1095.4,550,1126.5,535.1z M1039.1,602.7l143.3,125.3c0,0,0,0,0,0c-4.9,6.3-8.8,13.5-11.4,21.2c0.5-1.4,1-2.8,1.5-4.2
		l-180.2-61.4C1003.1,653.7,1019,626.4,1039.1,602.7z M989.6,691.6l180.2,61.4c-1.3,4.8-2.2,9.9-2.5,15H977.1
		C977.5,741.4,981.9,715.8,989.6,691.6z M977.1,776.6h190.3c0.5,7.7,2.1,15.1,4.8,22L999,877.8C985.4,846.8,977.6,812.6,977.1,776.6
		z M1002.6,885.6l173.1-79.2c-0.7-1.4-1.4-2.8-2-4.2c3.7,8.2,8.9,15.7,15.3,21.9l-125.3,143.3
		C1038.3,944.5,1017.5,916.7,1002.6,885.6z M1070.1,973l125.3-143.3c0,0,0,0,0,0c6.3,4.9,13.5,8.8,21.2,11.4c-1.4-0.5-2.8-1-4.2-1.5
		l-61.4,180.2C1121.1,1009,1093.8,993.1,1070.1,973z M1159,1022.5l61.4-180.2l0,0c4.8,1.3,9.9,2.2,15.1,2.5V1035
		C1208.8,1034.6,1183.2,1030.3,1159,1022.5z M1244,1035V844.7c7.7-0.5,15.1-2.1,22-4.8l79.2,173.1
		C1314.2,1026.7,1280,1034.5,1244,1035z M1353,1009.5l-79.2-173.1c6.6-3.5,12.5-8,17.7-13.2c0,0,0,0,0,0l143.3,125.3
		C1411.9,973.8,1384.2,994.6,1353,1009.5z M1440.4,942l-143.3-125.3c4.9-6.3,8.8-13.5,11.4-21.2c-0.5,1.4-1,2.8-1.5,4.2l180.2,61.4
		C1476.4,891,1460.5,918.3,1440.4,942z M1489.9,853.1l-180.2-61.4c1.3-4.8,2.2-9.9,2.5-15h190.3
		C1502,803.3,1497.7,828.9,1489.9,853.1z M1502.5,768.1h-190.3c-0.5-7.7-2.1-15.1-4.8-22l173.1-79.2
		C1494.1,697.9,1501.9,732.1,1502.5,768.1z M1477,659.1l-173.1,79.2c0.7,1.4,1.4,2.8,2,4.2c-3.7-8.2-8.9-15.7-15.3-21.9l125.3-143.3
		C1441.2,600.2,1462.1,627.9,1477,659.1z M1409.4,571.7L1284.2,715c0,0,0,0,0,0c-4.5-3.5-9.5-6.5-14.8-8.9l1.1-10.7l58.1-170.5
		C1358.4,535.7,1385.7,551.6,1409.4,571.7z M1320.5,522.2l-46,134.8l15.1-142.7C1300.2,516.4,1310.5,519,1320.5,522.2z
		 M1830.8,920.8l-58.9,27c0.2,0.5,0.5,0.9,0.7,1.4c-1.3-2.8-3-5.3-5.2-7.5l42.6-48.8C1818.7,900.7,1825.8,910.2,1830.8,920.8z
		 M1807.9,891.1l-42.6,48.8c-0.6-0.4-1.2-0.8-1.8-1.2v-4l-0.1-1.4c-0.1-0.6-0.3-2.7-0.7-6.2l17.7-51.9
		C1790.5,878.8,1799.8,884.2,1807.9,891.1z M1750.1,975.3c-8.8,0-16-7.2-16-16c0-8.8,7.2-16,16-16s16,7.2,16,16
		C1766.1,968.1,1758.9,975.3,1750.1,975.3z M1777.6,874.2l-15.8,46.3c-1.5-10.9-4.3-28.4-9.1-50.6
		C1761.4,870.2,1769.7,871.7,1777.6,874.2z M1730.8,913.7l-16.6-36.2c2.9-1.3,5.9-2.4,8.9-3.3C1726.7,890,1729.2,903.4,1730.8,913.7
		z M1711.6,878.6l20.9,45.6c0.9,5.9,1.3,9.8,1.5,11.3v4.5h1c-0.8,0.6-1.6,1.3-2.3,2.1c0,0,0,0,0,0l-48.8-42.6
		C1691.6,890.8,1701,883.7,1711.6,878.6z M1681.9,901.6l48.8,42.6l0,0c-1.7,2.2-3,4.6-3.9,7.2c0.2-0.5,0.3-1,0.5-1.4l-61.3-20.9
		C1669.6,919,1675,909.7,1681.9,901.6z M1660.8,960.8h64.7c0-0.5-0.1-1-0.1-1.5s0-1,0.1-1.5h-64.7c0.1-9.1,1.6-17.8,4.3-26
		l61.3,20.9c-0.6,2.1-0.9,4.3-0.9,6.6c0,3.2,0.6,6.2,1.7,8.9l-58.9,27C1663.6,984.6,1661,973,1660.8,960.8z M1669.4,997.9l58.9-27
		c-0.2-0.5-0.5-0.9-0.7-1.4c1.3,2.8,3,5.3,5.2,7.5l-42.6,48.8C1681.6,1017.9,1674.5,1008.4,1669.4,997.9z M1692.4,1027.6l42.6-48.8
		c0,0,0,0,0,0c2.2,1.7,4.6,3,7.2,3.9c-0.5-0.2-1-0.3-1.4-0.5l-20.9,61.3C1709.8,1039.8,1700.5,1034.4,1692.4,1027.6z M1751.6,1048.7
		v-64.7c-0.5,0-1,0.1-1.5,0.1c-0.5,0-1,0-1.5-0.1v64.7c-9.1-0.1-17.8-1.6-26-4.3l20.9-61.3l0,0c2.1,0.6,4.3,0.9,6.6,0.9
		c3.2,0,6.2-0.6,8.9-1.7l27,58.9C1775.5,1045.9,1763.8,1048.5,1751.6,1048.7z M1788.7,1040l-27-58.9c2.2-1.2,4.3-2.7,6-4.5
		c0,0,0,0,0,0l48.8,42.6C1808.7,1027.9,1799.3,1034.9,1788.7,1040z M1818.4,1017l-48.8-42.6c1.7-2.2,3-4.6,3.9-7.2
		c-0.2,0.5-0.3,1-0.5,1.4l61.3,20.9C1830.7,999.7,1825.2,1009,1818.4,1017z M1774.8,959.3c0,0.5,0,1-0.1,1.5h64.7
		c-0.1,9.1-1.6,17.8-4.3,26l-61.3-20.9C1774.5,963.8,1774.8,961.6,1774.8,959.3c0-3.2-0.6-6.2-1.7-8.9l58.9-27
		c4.6,10.6,7.3,22.2,7.5,34.4h-64.7C1774.8,958.3,1774.8,958.8,1774.8,959.3z"/>
</g>
<g id="Velo_2_fond">
	<path class="st1" d="M679.4,486c-17.7,0-34.9,1.7-51.7,4.7l-36.5-160.2c9.5,6.3,21.4,11.5,35.4,12.4c6.4,0.4,13.4-11,15.7-15.4
		c11.4-21.9,10.6-59.8,3.3-83.2c-2-6.2-9.6-24.3-18.9-23.6c-25.5,1.7-43.9,17.2-54,28.5l-7.4-32.7c-3.1-13.6-12-25.2-24.3-31.8
		c-12.3-6.6-26.9-7.5-39.9-2.5l-69.7,26.7c-6.6-4.6-14.7-7.4-23.4-7.4c-22.7,0-41.1,18.4-41.1,41.1s18.4,41.1,41.1,41.1
		c19.9,0,36.5-14.1,40.2-32.9l69-26.5c0.9-0.3,1.7-0.3,2.6,0.2c0.8,0.4,1.4,1.1,1.6,2.1l22.4,98.5C531.5,349,484,434.3,390.4,519.5
		C334.6,570.3,255.6,626.6,151,666.8L15.1,286.1c3.3-0.3,6.7-0.6,10.1-0.9C170.9,272.1,138.1,223,138.1,223h-264.9
		c-13.6,0-24.6,11-24.6,24.6v26.8c0,14.5,12.4,25.8,26.9,24.5c18.2-1.7,47.5-4.5,93.3-8.6l139.7,391.6c-14.3,4.6-29,8.8-44.1,12.7
		c-20.8-73-69.8-134.2-134.5-171l20.8-53.8h41.8v-33.2h-413.8v33.2h40.8l21.8,56.4c-84.4,50.1-141,142.1-141,247.4
		c0,158.8,128.8,287.6,287.6,287.6c138.2,0,253.6-97.5,281.3-227.5h171.2h10.7l29.8-178.9c56.5-32.5,102.9-68.4,139.8-102
		c66.9-61,111.5-121.6,137.6-163l25.6,112.4c-112,39.3-192.3,145.9-192.3,271.3c0,158.8,128.8,287.6,287.6,287.6
		c158.8,0,287.6-128.8,287.6-287.6C967,614.7,838.2,486,679.4,486z M-212.1,814c-22.3,0-40.4-18.1-40.4-40.4
		c0-22.3,18.1-40.4,40.4-40.4s40.4,18.1,40.4,40.4C-171.7,795.9-189.9,814-212.1,814z M-271,753.1L-271,753.1
		c-0.1,0.2-0.1,0.3-0.2,0.5C-271.2,753.5-271.1,753.3-271,753.1z M-263.1,737.8l-2.3-6l4,3.5l0,0C-262,736.2-262.6,737-263.1,737.8z
		 M-256.6,729.9C-256.6,729.9-256.6,729.9-256.6,729.9l-14.5-12.7l-53.8-139.3c5-2.9,10.2-5.7,15.4-8.2l68.1,148.8
		C-247,721.5-252.1,725.3-256.6,729.9z M-160.5,721.8h-1.5l2.7-3.1L-160.5,721.8z M-171.7,721.8h-5.8c-4.5-3-9.4-5.5-14.7-7.3
		c1.2,0.4,2.4,0.8,3.6,1.3l52.8-154.9c11.1,4,21.7,8.8,31.8,14.4l-47.7,123.4L-171.7,721.8z M-195.5,713.5L-195.5,713.5
		c-5.3-1.5-10.8-2.3-16.6-2.3c1.2,0,2.5,0.1,3.7,0.2V547.7c22.9,0.4,45,4.1,65.7,10.8L-195.5,713.5z M-215.8,711.3
		c-6.6,0.4-13,1.8-18.9,4.1l-68.1-148.8c26.7-11.7,56.1-18.4,87-18.9V711.3z M4,707.7c-28,5-57.3,8.9-88,11.3l78.9-36.1
		C-1.6,690.9,1.4,699.3,4,707.7z M-8.2,676.2l-96.4,44.1c-13.7,0.8-27.8,1.2-42,1.3l12.1-31.3l73.8-84.5
		C-38.9,625.6-21,649.4-8.2,676.2z M-66.3,601.1l-60.6,69.3l34.2-88.5C-83.4,587.7-74.6,594.1-66.3,601.1z M-366.7,469.7h303.6
		l-18.4,47.6c-39.2-20-83.6-31.4-130.6-31.4c-48.9,0-94.9,12.2-135.2,33.8L-366.7,469.7z M-336.1,584.7l44.1,114.2l-87.9-76.8
		C-366.9,607.9-352.2,595.3-336.1,584.7z M-384.6,627.7l98.4,85.9l13.7,35.4l-152.2-51.9C-415.6,671.6-401.9,648.1-384.6,627.7z
		 M-427.2,704.2l154.9,52.8c-1.5,5.3-2.3,10.9-2.3,16.6c0-1.2,0.1-2.5,0.2-3.7H-438C-437.6,747-433.9,724.9-427.2,704.2z
		 M-438,777.3h163.6c0.4,6.6,1.8,13,4.1,18.9l-148.8,68.1C-430.8,837.6-437.5,808.2-438,777.3z M-416.1,871l148.8-68.1
		c-0.6-1.2-1.2-2.4-1.8-3.6c3.2,7.1,7.7,13.5,13.1,18.8l-107.7,123.2C-385.3,921.6-403.2,897.7-416.1,871z M-358,946.1l107.7-123.2
		l0,0c5.4,4.2,11.6,7.6,18.2,9.8c-1.2-0.4-2.4-0.8-3.6-1.3l-52.8,154.9C-314.1,977.1-337.6,963.3-358,946.1z M-215.8,835.8v163.6
		c-22.9-0.4-45-4.1-65.7-10.8l52.8-154.9h0c5.3,1.5,10.9,2.3,16.6,2.3C-213.4,836-214.6,835.9-215.8,835.8z M-208.5,999.4V835.8
		c4.4-0.3,8.7-1,12.8-2.1h7l67.2,146.8C-148.1,992.3-177.5,998.9-208.5,999.4z M-114.7,977.5l-65.8-143.8h31.7L-44.4,925
		C-64.1,946.8-88,964.7-114.7,977.5z M-39.6,919.4l-98.1-85.7h90.6L0.6,850C-8.6,875.6-22.4,899.1-39.6,919.4z M2.9,843l-27.3-9.3
		H5.5C4.7,836.8,3.9,840,2.9,843z M905.3,769.9H741.6c-0.4-6.6-1.8-13-4.1-18.9l148.8-68.1C898.1,709.6,904.8,739,905.3,769.9z
		 M883.3,676.2l-148.8,68.1c0.6,1.2,1.2,2.4,1.8,3.6c-3.2-7.1-7.7-13.5-13.1-18.8l107.7-123.2C852.6,625.6,870.5,649.4,883.3,676.2z
		 M825.3,601.1L717.6,724.3c0,0,0,0,0,0c-5.4-4.2-11.6-7.6-18.2-9.8c1.2,0.4,2.4,0.8,3.6,1.3l52.8-154.9
		C781.4,570.1,804.9,583.8,825.3,601.1z M679.4,814c-22.3,0-40.4-18.1-40.4-40.4c0-15.6,8.9-29.1,21.8-35.8l19.7-4.5
		c21.7,0.6,39.2,18.5,39.2,40.3C719.8,795.9,701.7,814,679.4,814z M683.1,711.4V547.7c22.9,0.4,45,4.1,65.7,10.8L696,713.5
		c0,0,0,0,0,0c-5.3-1.5-10.9-2.3-16.6-2.3C680.6,711.2,681.8,711.3,683.1,711.4z M675.7,547.7v153.9l-34.3-150.7
		C652.6,549,664,547.9,675.7,547.7z M608.7,610.2l-19.9-43.6c3-1.3,6.1-2.6,9.2-3.8L608.7,610.2z M582,569.7l34.6,75.7l19.1,83.8
		c-0.3,0.3-0.6,0.5-0.8,0.7c0,0,0,0,0,0L511.7,622.2C531.4,600.4,555.2,582.5,582,569.7z M506.9,627.7l123.2,107.7l0,0
		c-4.2,5.4-7.6,11.6-9.8,18.2c0.4-1.2,0.8-2.4,1.3-3.6l-154.9-52.8C475.9,671.6,489.6,648.1,506.9,627.7z M464.4,704.2L619.3,757
		c-1.5,5.3-2.3,10.9-2.3,16.6c0-1.2,0.1-2.5,0.2-3.7H453.5C453.9,747,457.7,724.9,464.4,704.2z M453.5,777.3h163.6
		c0.4,6.6,1.8,13,4.1,18.9l-148.8,68.1C460.7,837.6,454,808.2,453.5,777.3z M475.5,871l148.8-68.1c-0.6-1.2-1.2-2.4-1.8-3.6
		c3.2,7.1,7.7,13.5,13.1,18.8L528,941.3C506.2,921.6,488.3,897.7,475.5,871z M533.5,946.1l107.7-123.2l0,0
		c5.4,4.2,11.6,7.6,18.2,9.8c-1.2-0.4-2.4-0.8-3.6-1.3L603,986.3C577.4,977.1,553.9,963.3,533.5,946.1z M675.7,835.8v163.6
		c-22.9-0.4-45-4.1-65.7-10.8l52.8-154.9h0c5.3,1.5,10.9,2.3,16.6,2.3C678.2,836,676.9,835.9,675.7,835.8z M683.1,999.4V835.8
		c6.6-0.4,13-1.8,18.9-4.1l68.1,148.8C743.4,992.3,714,998.9,683.1,999.4z M776.8,977.5l-68.1-148.8c5.6-3,10.8-6.9,15.2-11.4
		c0,0,0,0,0,0L847.1,925C827.4,946.8,803.6,964.7,776.8,977.5z M851.9,919.4L728.7,811.8c4.2-5.4,7.6-11.6,9.8-18.2
		c-0.4,1.2-0.8,2.4-1.3,3.6L892.1,850C882.9,875.6,869.2,899.1,851.9,919.4z M894.4,843l-154.9-52.8c1.5-5.3,2.3-10.9,2.3-16.6
		c0,1.2-0.1,2.4-0.2,3.7h163.6C904.9,800.2,901.1,822.2,894.4,843z"/>
</g>
<g id="Calque_7">
	<g>
		<line class="st2" x1="847" y1="281" x2="1096" y2="281"/>
		<path class="st2" d="M847,281c20.8-0.8,41.5-1.3,62.3-1.6c10.4-0.2,20.8-0.2,31.1-0.3l31.1-0.1l31.1,0.1
			c10.4,0.1,20.8,0.1,31.1,0.3c20.8,0.3,41.5,0.7,62.3,1.6c-20.8,0.8-41.5,1.3-62.3,1.6c-10.4,0.2-20.8,0.2-31.1,0.3l-31.1,0.1
			l-31.1-0.1c-10.4-0.1-20.8-0.1-31.1-0.3C888.5,282.3,867.8,281.8,847,281z"/>
	</g>
</g>
<g id="Velo_principale">
	<g>
		<g>
			<path class="st3" d="M1239.9,592.9c-11.2,0-22.1,1.1-32.7,3l-44-198.4h-80.6c-4.6-6.9-12.4-11.5-21.3-11.5
				c-14.1,0-25.5,11.4-25.5,25.5c0,14.1,11.4,25.5,25.5,25.5c8.9,0,16.7-4.6,21.3-11.5h58.1l13.2,59.7c-0.4,1.4-0.9,3.3-1.6,5.7
				c-18.7,28.2-105.8,145.9-253.4,155l-66.8-191.5c2.5-0.2,4.9-0.4,7.5-0.7c90.4-8.1,70.1-38.6,70.1-38.6H745.3
				c-8.4,0-15.3,6.8-15.3,15.3v16.7c0,9,7.7,16,16.7,15.2c11.1-1.1,29-2.7,56.8-5.3l41.1,117.9l-55.5,55.2
				c-30.2-23.3-68-37.2-109.1-37.2c-98.6,0-178.6,79.9-178.6,178.6c0,98.6,79.9,178.6,178.6,178.6c96.7,0,175.5-76.9,178.4-173h23.2
				c6.2,23.4,27.4,40.7,52.8,40.7c30.2,0,54.7-24.5,54.7-54.7c0-12.3-4.1-23.6-10.9-32.7c110.7-47.8,164-137.1,187.5-192.9
				l14.6,65.7c-69.2,24.6-118.8,90.6-118.8,168.3c0,98.6,79.9,178.6,178.6,178.6c98.6,0,178.6-79.9,178.6-178.6
				C1418.5,672.8,1338.5,592.9,1239.9,592.9z M896.5,723.7c-7.1,6.8-12.3,15.5-14.9,25.3h-24.5c-4.8-38.5-21.9-73.2-47.3-100.1
				l44.9-44.7L896.5,723.7z M680.1,796.5c-13.8,0-25.1-11.2-25.1-25.1c0-13.8,11.2-25.1,25.1-25.1s25.1,11.2,25.1,25.1
				C705.1,785.2,693.9,796.5,680.1,796.5z M782.8,675.9c9.6,10.3,17.7,22.1,23.9,35L723.5,749h-11.4v0.8c-0.5-0.7-1-1.4-1.5-2
				L782.8,675.9z M734.5,749l74.1-33.9c4.7,10.7,8.1,22,10,33.9H734.5z M761.7,657.4l-61.1,60.8l26.9-78.9
				C739.8,643.8,751.3,649.9,761.7,657.4z M682.3,732.8V631.2c14.2,0.2,27.9,2.6,40.8,6.7l-29.9,87.6l-7,7l0.9,0.9
				c-2.3-0.4-4.7-0.8-7.1-0.8C680.8,732.7,681.6,732.7,682.3,732.8z M677.8,631.2v101.6c-4.1,0.2-8.1,1.1-11.7,2.6l-42.3-92.4
				C640.3,635.7,658.6,631.5,677.8,631.2z M619.6,644.8l42.3,92.4c-3.5,1.9-6.7,4.3-9.4,7.1c0,0,0,0,0,0L576,677.4
				C588.2,663.9,603,652.8,619.6,644.8z M573,680.9l76.5,66.9c0,0,0,0,0,0c-2.6,3.4-4.7,7.2-6.1,11.3c0.3-0.8,0.5-1.5,0.8-2.2
				L548,724C553.7,708.1,562.3,693.5,573,680.9z M546.6,728.3l96.2,32.8c-0.9,3.3-1.4,6.7-1.4,10.3c0-0.8,0.1-1.5,0.1-2.3H539.8
				C540.1,754.9,542.4,741.2,546.6,728.3z M539.8,773.7h101.6c0.2,4.1,1.1,8.1,2.6,11.7l-92.4,42.3
				C544.3,811.1,540.1,792.9,539.8,773.7z M553.5,831.9l92.4-42.3c-0.4-0.7-0.7-1.5-1.1-2.3c2,4.4,4.8,8.4,8.1,11.7l-66.9,76.5
				C572.5,863.3,561.4,848.5,553.5,831.9z M589.5,878.5l66.9-76.5l0,0c3.4,2.6,7.2,4.7,11.3,6.1c-0.8-0.2-1.5-0.5-2.2-0.8
				l-32.8,96.2C616.7,897.8,602.2,889.2,589.5,878.5z M677.8,810.1v101.6c-14.2-0.2-27.9-2.6-40.8-6.7l32.8-96.2l0,0
				c3.3,0.9,6.7,1.4,10.3,1.4C679.3,810.2,678.5,810.1,677.8,810.1z M682.3,911.6V810.1c4.1-0.2,8.1-1.1,11.7-2.6l42.3,92.4
				C719.8,907.2,701.5,911.3,682.3,911.6z M740.5,898l-42.3-92.4c3.5-1.9,6.7-4.3,9.4-7.1c0,0,0,0,0,0l76.5,66.9
				C772,879,757.1,890.1,740.5,898z M787.2,862l-76.5-66.9c2.6-3.4,4.7-7.2,6.1-11.3c-0.3,0.8-0.5,1.5-0.8,2.2l96.2,32.8
				C806.4,834.8,797.9,849.3,787.2,862z M813.6,814.5l-96.2-32.8c0.4-1.5,0.7-3.1,1-4.7h101.7C819.6,790.1,817.4,802.6,813.6,814.5z
				 M951.1,711c-5.3-1.7-10.9-2.6-16.7-2.6c-4.5,0-8.8,0.6-13,1.6l-12.8-36.6c88-7.5,154.8-49.2,200.2-90
				C1078.2,630.3,1028.6,681.9,951.1,711z M1380.2,769.1h-101.6c-0.2-4.1-1.1-8.1-2.6-11.7l92.4-42.3
				C1375.7,731.7,1379.9,749.9,1380.2,769.1z M1366.5,711l-92.4,42.3c0.4,0.7,0.7,1.5,1.1,2.3c-2-4.4-4.8-8.4-8.1-11.7l66.9-76.5
				C1347.5,679.5,1358.6,694.3,1366.5,711z M1330.5,664.3l-66.9,76.5c-3.4-2.6-7.2-4.7-11.3-6.1c0.8,0.3,1.5,0.5,2.2,0.8l32.8-96.2
				C1303.3,645.1,1317.8,653.6,1330.5,664.3z M1239.9,796.5c-13.8,0-25.1-11.2-25.1-25.1c0-13.8,11.2-25.1,25.1-25.1
				c13.8,0,25.1,11.2,25.1,25.1C1265,785.2,1253.8,796.5,1239.9,796.5z M1242.2,732.8V631.2c14.2,0.2,27.9,2.6,40.8,6.7l-32.8,96.2
				c-3.3-0.9-6.7-1.4-10.3-1.4C1240.7,732.7,1241.5,732.7,1242.2,732.8z M1237.7,631.2v101.6c0,0,0,0,0,0l-22.1-99.5
				C1222.8,632,1230.1,631.3,1237.7,631.2z M1194.1,665.8l-10.5-22.8c1.6-0.7,3.3-1.4,4.9-2L1194.1,665.8z M1179.5,644.8l19.3,42.2
				l11.6,52.1l11.2-2.5l0.2,0.5c-3.5,1.9-6.7,4.3-9.4,7.1c0,0,0,0,0,0l-76.5-66.9C1148,663.9,1162.9,652.8,1179.5,644.8z
				 M1132.8,680.9l76.5,66.9c0,0,0,0,0,0c-2.6,3.4-4.7,7.2-6.1,11.3c0.3-0.8,0.5-1.5,0.8-2.2l-96.2-32.8
				C1113.6,708.1,1122.1,693.5,1132.8,680.9z M1106.4,728.3l96.2,32.8c-0.9,3.3-1.4,6.7-1.4,10.3c0-0.8,0.1-1.5,0.1-2.3h-101.6
				C1099.9,754.9,1102.3,741.2,1106.4,728.3z M1099.7,773.7h101.6c0.2,4.1,1.1,8.1,2.6,11.7l-92.4,42.3
				C1104.2,811.1,1100,792.9,1099.7,773.7z M1113.3,831.9l92.4-42.3c-0.4-0.7-0.7-1.5-1.1-2.3c2,4.4,4.8,8.4,8.1,11.7l-66.9,76.5
				C1132.4,863.3,1121.3,848.5,1113.3,831.9z M1149.4,878.5l66.9-76.5l0,0c3.4,2.6,7.2,4.7,11.3,6.1c-0.8-0.2-1.5-0.5-2.2-0.8
				l-32.8,96.2C1176.6,897.8,1162,889.2,1149.4,878.5z M1237.7,810.1v101.6c-14.2-0.2-27.9-2.6-40.8-6.7l32.8-96.2l0,0
				c3.3,0.9,6.7,1.4,10.3,1.4C1239.2,810.2,1238.4,810.1,1237.7,810.1z M1242.2,911.6V810.1c4.1-0.2,8.1-1.1,11.7-2.6l42.3,92.4
				C1279.7,907.2,1261.4,911.3,1242.2,911.6z M1300.4,898l-42.3-92.4c3.5-1.9,6.7-4.3,9.4-7.1c0,0,0,0,0,0l76.5,66.9
				C1331.8,879,1317,890.1,1300.4,898z M1347,862l-76.5-66.9c2.6-3.4,4.7-7.2,6.1-11.3c-0.3,0.8-0.5,1.5-0.8,2.2l96.2,32.8
				C1366.3,834.8,1357.7,849.3,1347,862z M1373.4,814.5l-96.2-32.8c0.9-3.3,1.4-6.7,1.4-10.3c0,0.8-0.1,1.5-0.1,2.3h101.6
				C1379.9,787.9,1377.6,801.6,1373.4,814.5z"/>
			<polygon class="st3" points="1322,538.5 1322,406.5 1182,438.8 1220,554.5 			"/>
		</g>
	</g>
</g>
<g id="You_x27_re_now_a">
	<g>
		<path class="st4" d="M689.3,158c-0.8,0-1.1-0.7-1.1-2l0.4-15.4l-0.5-6.5c0-0.9-0.2-2.1-0.5-3.8c-0.3-1.6-0.5-2.8-0.5-3.4
			s-0.1-1.3-0.2-2.1c-0.1-0.8-0.3-1.7-0.6-2.7c-0.3-1.1-0.4-1.9-0.6-2.5s-0.4-2.2-0.9-4.8c-1.1-5.4-2-9.4-2.7-11.9
			c-0.7-2.5-1.1-4.1-1.1-4.7c0-1.1,0.5-1.6,1.6-1.6l0.9,0.6c0.1,2.2,0.8,6.4,2.1,12.6c1.3,6.3,2.2,9.9,2.9,10.8
			c0.8-2.4,1.4-5.5,1.7-9.2c0.3-3.7,0.6-6.5,0.8-8.4c0.5-4.2,1.2-6.3,2.2-6.3c0.8,0,1.2,0.3,1.2,0.9c0,0.4-0.1,1-0.3,1.7
			c-0.2,0.7-0.4,1.4-0.4,2c-0.1,0.6-0.4,2.3-0.9,5.1c-0.5,2.8-0.9,5-1.1,6.4c-0.7,4.2-1.1,8.1-1.1,11.7l0.2,2.6l-0.5,1.2v0.6
			l0.6,9.6c0,7.2-0.1,12.6-0.2,16.2l0.2,0.2l0.1,0.5c0,0.6-0.2,1.1-0.4,1.6C690.3,157.7,689.9,158,689.3,158z"/>
		<path class="st4" d="M720.6,132.9l-0.7,10.3l0.2,0.3c-0.4,1.8-0.6,3.4-0.6,4.8c0,1.4-0.3,2.9-0.9,4.4c-0.6,1.5-1.4,2.9-2.6,4.1
			s-2.4,1.8-3.7,1.8c-1.3,0-2.5-0.5-3.6-1.5c-1.1-1-2.1-2.3-2.8-3.8c-0.7-1.5-1.4-3.4-2-5.5c-0.6-2.1-1-4.2-1.3-6.3
			c-0.3-2-0.6-4.2-0.8-6.3c-0.3-3.6-0.5-6.8-0.5-9.5c0-2.7,0.1-5.7,0.4-9.1c0.2-3.4,0.4-5.6,0.4-6.6c0-1,0.1-1.9,0.1-2.6
			c0-0.8,0.1-1.7,0.2-2.7c0.1-1.1,0.2-2,0.4-2.8c0.2-0.8,0.4-1.6,0.8-2.4c0.3-0.8,0.8-1.5,1.3-2.1c1.1-1.2,2.6-1.8,4.6-1.8
			c2,0,3.6,0.5,4.9,1.6c0.2,0.3,0.7,0.9,1.4,1.9c0.8,1,1.3,1.9,1.7,2.8c0.4,0.9,0.8,3.1,1.3,6.6C720,117.7,720.6,125.8,720.6,132.9z
			 M709.6,97.7c-3.9,0-5.9,7.9-5.9,23.7v3.1c0,3.7,0.3,7.7,0.8,11.9c0.6,4.3,1.1,7.7,1.8,10.4c0.6,2.7,1.5,4.9,2.6,6.8
			c1.1,1.9,2.3,2.8,3.7,2.8c1.8,0,3.2-1.9,4-5.6c0.8-3.7,1.3-7,1.5-9.9c0.2-4,0.3-6.5,0.3-7.7v-1.9c0-1,0-1.8,0-2.5
			c0-0.7,0-1.8-0.1-3.4c0-1.6-0.1-3-0.2-4.2c-0.1-1.2-0.2-2.7-0.3-4.5c-0.1-1.7-0.3-3.3-0.5-4.7s-0.5-2.8-0.8-4.4
			c-0.3-1.5-0.7-2.9-1.1-4c-0.4-1.1-0.9-2.2-1.5-3.1C712.7,98.7,711.3,97.7,709.6,97.7z"/>
		<path class="st4" d="M749.4,140.4l0.1,5c0,4.5-0.6,7.8-1.8,10c-0.5,0.9-1.2,1.6-2.1,2.2s-2.1,0.9-3.6,0.9s-2.9-0.4-4.1-1.2
			s-2.2-1.8-2.9-3c-0.7-1.2-1.3-2.6-1.8-4.2c-0.5-1.6-0.9-3.1-1.1-4.5c-0.6-3.7-1.2-6.1-1.8-7.1c0-4.2-0.3-10.6-0.8-19
			c-0.5-8.5-0.8-14.8-0.8-19l-0.5-1.7c0-0.4,0.1-0.7,0.4-1.1s0.6-0.5,1-0.5c1.3,0,2,2,2,5.9l0.7,27c0.2,0.3,0.3,0.9,0.4,1.9
			c0.3,3.7,0.5,6.1,0.7,7.1c-0.1,0.6-0.2,1.3-0.2,2c0,0.7,0.3,2,0.8,3.7s1.2,3.4,2,5.1c0.8,1.7,1.8,3.1,3.1,4.3
			c1.2,1.2,2.3,1.8,3.3,1.8c1,0,1.7-0.1,2.1-0.3c0.5-0.2,0.8-0.4,1.1-0.7c0.3-0.2,0.5-0.7,0.6-1.2c0.2-0.6,0.3-1,0.3-1.3
			c0.1-0.3,0.1-0.8,0.2-1.6c0.1-0.8,0.1-1.2,0.1-1.4c0-0.2,0-0.4,0-0.7l0.2-2.7v-9.1l-0.5-4.8l-0.5-14.3v-1l-0.4-0.5
			c0.2-1.5,0.4-3,0.4-4.6l-0.7-13.6c0-0.4,0.2-0.7,0.6-1c0.4-0.2,0.8-0.3,1.2-0.3l1.4,1.3l-0.2,0.6l0.2,0.6l-0.5,4.8l0.8,14.4
			l0.4,13.9l0.3,0.1c-0.1,0.4-0.1,0.9-0.1,1.7l0.2,5.6l0.2,0.2L749.4,140.4z"/>
		<path class="st4" d="M762,102.3c-1.6-0.9-2.3-2.1-2.3-3.5c0-0.7,0.3-1.3,1-1.8c0.6-0.5,1.3-0.7,2.1-0.7c1.2,0,2.1,0.8,2.7,2.3
			l-0.2,0.2c0.1,0.2,0.2,0.6,0.2,1.3s-0.3,1.8-1,3.3c-0.7,1.5-1.5,2.9-2.5,4.1c-1,1.3-2,1.9-2.9,1.9l-1.3-0.6l0.2-0.7
			C760.6,105.9,762,103.9,762,102.3z"/>
		<path class="st4" d="M774.2,98.4l-0.2-1.4c0-0.5,0.5-0.7,1.6-0.7c2.2,0,3.9,0.6,5,1.8c1.2,1.2,1.9,2.5,2.3,3.9
			c0.4,1.4,0.7,2.5,0.9,3.2c0.4,1.6,0.7,2.8,0.7,3.7c0,2.7-0.7,5.9-2.2,9.7c-1,2.4-1.4,3.7-1.4,4c0,2.6,1,7.9,3.1,15.8
			c2.1,7.9,3.8,13.5,5.1,16.8c0,1.7-0.4,2.6-1.1,2.6c-0.5,0-1-0.2-1.3-0.7s-0.6-0.8-0.6-0.8c-0.2-2.1-0.8-5-2.1-8.7s-2-6.2-2.2-7.4
			c-0.3-1.2-0.8-3.8-1.5-7.6c-0.7-3.8-1.3-6.7-1.9-8.8l-0.6-0.5l-1.5,0.6v30l0.2,2c0,1.1-0.5,1.6-1.4,1.6c-0.4,0-0.7-0.1-1-0.4
			c-0.3-0.2-0.4-0.6-0.4-1l0.3-0.4l0.3-48.6V98.4z M776.4,98.8l-0.4,17.5c0,2.3,0.1,4,0.2,5.1h0.2c0.4,0,1.1-0.5,2.1-1.6
			c1-1.1,1.7-2,2.1-2.6c0.4-0.7,0.7-1.7,0.9-3.2c0.2-1.5,0.4-2.8,0.4-3.8c0-1-0.1-2.1-0.2-3.1c-0.1-1.1-0.4-2.3-0.7-3.6
			c-0.3-1.3-0.8-2.3-1.5-3.2c-0.7-0.8-1.5-1.3-2.4-1.3v-0.2L776.4,98.8z"/>
		<path class="st4" d="M800.3,154.6l4.8-0.3c2.5,0,3.8,0.4,3.8,1.3c-0.4,0.8-1.2,1.3-2.4,1.5c-1.1,0.2-2.3,0.3-3.3,0.3h-1.9
			c-2.4,0-3.8-0.2-4.1-0.6c-0.4-0.4-0.5-0.8-0.5-1.2l0.7-3v-0.2c-0.2-1.1-0.3-2.2-0.3-3.5l0.4-8.2l-0.5-17.1l0.4-15.9
			c0-1-0.2-2.4-0.5-4.3c-0.3-1.9-0.5-3.3-0.5-4.2l1.4-2.2l5.6-0.7l0.3,0.2c1.3,0,2,0.2,2.2,0.5c0.2,0.3,0.3,0.7,0.3,1
			c0,1-1,1.5-2.9,1.5l-2.1-0.2c-1.2,0-1.8,0.3-1.8,0.9l0.6,13.6l-0.4,10l-0.2,0.2l0.5,0.3l4.4-0.8c0.3,0,0.6,0.2,0.9,0.4
			c0.3,0.3,0.5,0.6,0.5,0.9c0,1.1-0.4,1.6-1.2,1.6l-1.8-0.1c-2,0-3,0.5-3,1.5l0.6,6.7l-0.3,0.5v16.3c0.3,0.3,0.4,1.1,0.4,2.2V154.6z
			"/>
		<path class="st4" d="M849.9,108.3l-0.2-2c0-1.1,0.4-1.7,1.1-1.7c0.5,0,0.9,0.2,1.3,0.7c0.3,0.5,0.5,1,0.5,1.6v5.4l-0.4,0.7
			c0,4.2-0.3,12.2-0.9,24.2c-0.6,12-1.1,18.5-1.7,19.6c-0.1,0-0.5,0.1-1.2,0.3c-0.6,0.2-1.1,0.3-1.3,0.3c-0.3,0-0.5-0.2-0.7-0.5
			c-0.2-0.4-0.4-0.8-0.5-1.4c-0.1-0.6-0.2-1-0.3-1.1l0.1-0.2c-0.3-2.2-1-4.7-2.1-7.6s-1.7-4.8-2.1-5.8c-0.2-0.2-0.9-2.2-2.1-6
			c-4.8-14.9-7.8-22.9-9.1-24.1c-0.4,1.6-0.6,3.5-0.6,5.6l0.2,6.3l-0.2,3.9c0,0.6,0.1,2.5,0.3,5.6h-0.2c0,8.9,0.2,13.8,0.5,14.7v7.2
			c0.2,0.4,0.3,0.8,0.3,1.4c0,1.3-0.5,1.9-1.5,1.9c-1.1,0-1.7-1.4-1.7-4.3l0.3-5.2l-0.5-23l0.5-14.2V109c0-0.7,0-1.2,0.1-1.4
			s0.1-0.5,0.1-0.8c0-0.3,0.1-0.6,0.2-0.8c0.1-0.2,0.2-0.4,0.3-0.6c0.2-0.5,0.5-0.8,0.8-1.1l0.2,0.3l0.8-0.2c0.6,0.2,1,0.6,1.1,1.3
			c0,0.1,0,0.2,0.1,0.4c0.1,0.2,0.1,0.4,0.1,0.4c0.9,3.8,2.8,9.1,5.7,15.9c2.9,6.8,4.7,11.2,5.3,13.1c0.6,1.9,1.2,4,1.7,6.2
			c1.1,4.8,2.3,8.3,3.6,10.5l0.2-0.2C849.3,140.2,849.9,125.7,849.9,108.3z M848.2,157.1C848.3,157.1,848.3,157.1,848.2,157.1
			L848.2,157.1z"/>
		<path class="st4" d="M878.8,126.1l0.2,9.5c0,12-1.9,19.3-5.8,21.9c-0.9,0.7-2,1-3.2,1c-6.3,0-9.4-9.8-9.4-29.5
			c0-7.6,0.5-14.2,1.6-19.7c0.8-4.1,2-6.1,3.6-6.1c0.4,0,0.7,0.1,1,0.4c0.3,0.3,0.8,0.5,1.3,0.7c0.6,0.2,1.3,0.4,2.3,0.6
			c1,0.2,1.7,0.3,2.1,0.4c1.1,0.2,2.1,1.2,3.1,3.1c2.2,3.8,3.4,9.6,3.4,17.3L878.8,126.1z M863.1,129l0.2,6.3
			c0,5.1,0.6,9.9,1.7,14.5c0.4,1.7,1,3.2,1.9,4.5c0.8,1.3,1.8,1.9,2.8,1.9s2-0.4,2.8-1.2c0.8-0.8,1.4-1.9,1.9-3.3
			c0.5-1.4,0.9-2.8,1.2-4.3s0.5-3.1,0.7-4.9c0.2-2.9,0.3-5.4,0.3-7.7l-0.9-18.9l-0.3-0.6l0.2-0.4c0-2.3-0.7-4.3-2-6.1
			c-1.3-1.7-2.9-2.6-4.8-2.6h-3.4c-0.4,0-0.8,2.4-1.2,7.1c-0.3,4.8-0.6,7.4-0.7,7.9L863.1,129z"/>
		<path class="st4" d="M906.4,159.7c-0.9,0-1.4-1.2-1.4-3.6c-0.1-1.4-0.4-3.4-0.9-6c-0.5-2.6-0.8-4.3-0.9-5.1
			c-0.1-0.8-0.4-3.7-0.8-8.8c-1-12.6-2-19.4-2.9-20.3c-0.5,6-0.8,9.7-0.8,11.1c0,1.4-0.1,3.1-0.3,5.4c-0.2,2.2-0.6,5.1-1.2,8.7
			s-0.9,5.6-0.9,6.1c-0.1,0.5-0.2,1.2-0.3,2.3c-0.1,1-0.2,2-0.4,2.9c-0.1,0.9-0.3,1.9-0.5,3c-0.4,2.3-1,3.5-1.6,3.5
			c-0.8,0-1.4-1.2-1.9-3.6s-0.8-5.8-1-10.2c-0.3-4.4-0.4-7.1-0.5-8c-0.1-0.9-0.4-2.9-0.9-6.1s-0.7-5.4-0.8-6.7
			c-0.1-1.3-0.2-2.9-0.3-4.9c-0.1-2-0.2-3.6-0.3-4.8c-0.2-3.5-0.7-6.3-1.6-8.6c0.2-0.4,0.6-0.6,1.1-0.6c0.5,0,0.8,0.2,1.1,0.5
			c0.2,0.3,0.4,0.8,0.5,1.3c0.1,0.6,0.1,1.1,0.2,1.6c0.1,1,0.1,2.1,0.2,3.2c0.1,1.2,0.7,6.3,1.8,15.3c1.1,9.1,1.7,16,1.8,20.9
			c0.2,0.4,0.3,1.1,0.4,2.2s0.3,1.8,0.4,2.1h0.1c0.6-3.9,1-6.5,1.1-7.7c0.1-1.2,0.3-2.7,0.6-4.6c0.3-1.9,0.4-3.3,0.5-4.4
			c0.1-1,0.2-2.4,0.4-3.9c0.2-2.4,0.4-5.3,0.5-8.8c0.1-3.4,0.3-6.1,0.6-8.2c0.3-2.1,0.4-3.4,0.4-4.1l1.4-0.6c0.3,0,0.7,0.1,0.9,0.3
			c0.3,0.2,0.4,0.4,0.4,0.7c0,0.3-0.1,0.5-0.2,0.8c2.4,8.3,3.9,17.9,4.5,28.8c0.2,4.2,0.7,7.2,1.4,9.2c0.7-2,1.3-6.6,1.7-14
			c0.4-7.4,0.6-12.5,0.6-15.4s0.2-5.7,0.5-8.5c0.4-2.8,0.5-4.6,0.5-5.6s-0.1-1.6-0.3-2c0-0.8,0.5-1.3,1.6-1.3c0.4,0,0.7,0.1,0.9,0.2
			c0.1,0.1,0.2,0.6,0.2,1.5c0,0.9-0.1,1.8-0.4,2.7l0.2,0.5c-0.5,2.1-0.7,4-0.7,5.7c0,1.7,0.1,2.6,0.2,2.7L911,118l0.2,0.5
			c-0.2,0.3-0.2,0.6-0.2,0.8s0.1,0.8,0.2,1.7l-0.2,0.4c0,1.9-0.2,6.1-0.6,12.6c-0.4,6.5-0.7,10.2-0.8,11.2c-0.1,1-0.3,2-0.6,3.2
			c-0.3,1.1-0.4,2-0.4,2.6C908.5,156.7,907.8,159.7,906.4,159.7z M906.5,150L906.5,150L906.5,150C906.6,150.1,906.6,150,906.5,150z"
			/>
		<path class="st4" d="M949.8,133.6l0.9,20.9v0.9c0,0.6-0.1,1-0.2,1.2c-0.4,0.4-0.9,0.5-1.4,0.5c-0.5,0-0.9-0.1-1.2-0.4
			c-0.3-0.3-0.5-0.6-0.5-1c0.2-0.3,0.2-0.6,0.2-0.9l-0.2-1.6v-7.9c0-0.7-1.4-1.3-4.2-1.8s-4.9-0.8-6.3-0.8c-0.5,0-1,1-1.4,2.9
			c-0.4,1.9-0.8,4.1-1.2,6.4c-0.4,2.3-0.8,3.8-1.2,4.3c-1.3,0-2.1-0.3-2.5-1c0.8-1.2,1.6-4.1,2.4-8.8c0.8-4.6,1.4-8,1.9-10.1
			c0.5-2.1,1.3-6.6,2.5-13.7c1.2-7,2-11.5,2.5-13.5c0.4-2,0.8-3.4,1-4.4s0.5-2,0.9-3.3c0.9-3.1,1.6-4.6,2.3-4.6
			c0.8,0,1.4,0.2,1.7,0.6c0.3,0.4,0.5,1.3,0.7,2.7c0.2,1.4,0.4,3.2,0.6,5.3s0.4,4.1,0.5,5.9c0.5,5.6,0.8,9.3,0.9,11.1
			c0.1,1.8,0.4,3,0.7,3.8c-0.1,1.6-0.2,3-0.2,4.2C949.1,131.7,949.3,132.7,949.8,133.6z M936.7,140.4c2.2,0.8,4.9,1.1,8.1,1.1
			c0.7,0,1.1-0.1,1.4-0.2l0.4,0.2c0.5,0,0.7-0.2,0.7-0.7c0-11.1-1-23.2-3.1-36.1c0-0.2-0.1-0.4-0.2-0.9c-0.1-0.4-0.1-0.7-0.1-1
			c-0.7,1.8-1,3-1.1,3.5l0.2,0.5c-0.2,0.2-0.5,1.1-0.9,2.8c-0.4,1.7-1,5.1-1.7,10.2c-0.7,5.2-1.3,8.5-1.6,10c-0.3,1.5-0.7,2.8-1,4
			c-0.8,2.7-1.1,4.7-1.1,6.1V140.4z"/>
	</g>
</g>
<g id="pinkbiker">
	<g>
		<path class="st4" d="M864.2,241.7l0.7,26.3c0,0.8-0.1,1.4-0.3,1.8c-0.2,0.4-0.7,0.6-1.4,0.6c-0.7,0-1-0.9-1-2.8l0.3-14.3l-0.6-13
			c0-5.9-0.1-10.8-0.2-14.7c-0.1-3.8-0.2-6.4-0.3-7.7c0-1.3-0.1-2.2-0.1-2.9c-0.1-2.1-0.4-3.8-0.7-5.2c0.5-0.8,1.2-1.1,2.1-1.1
			c1.9,0,3.6,0.4,5.1,1.3c1.5,0.9,2.7,2,3.7,3.5c1.9,3,2.8,6.1,2.8,9.2s-0.6,6.3-1.7,9.5c-1.4,4.1-3.2,6.6-5.4,7.5
			c-0.7,0.3-1.2,0.6-1.4,0.9C865.2,241.3,864.7,241.5,864.2,241.7z M863.1,211.2l0.9,27.3l0.2,0.2c0.5-0.1,1-0.2,1.2-0.4
			c0.3-0.2,0.5-0.5,0.8-0.8c0.3-0.3,0.4-0.5,0.5-0.6c3.5-3.5,5.2-7.8,5.2-13c0-1.8-0.1-3.3-0.2-4.4s-0.6-2.1-1.3-3.1
			c-0.7-1-1.4-1.7-1.9-2.2c-0.5-0.4-1.3-1-2.3-1.7c-1-0.7-1.5-1.1-1.7-1.2H863.1z"/>
		<path class="st4" d="M894.7,269.4l-2.7-0.3c-0.4,0-0.9,0.2-1.5,0.4c-0.6,0.3-1.3,0.4-2.1,0.4c-0.8,0-1.3-0.3-1.5-0.8l-1.3,0.1
			c-1.1,0-1.9-0.3-2.2-0.8c0-0.3,0.1-0.6,0.4-0.8c0.3-0.2,0.5-0.4,0.6-0.5h2.3l0.3-0.3l0.3-1.7l-0.6-17.5l0.4-18.7
			c0-3.6-0.1-6.7-0.4-9.3c-0.5-0.2-1.3-0.2-2.4-0.2l-1.9,0.2c-1,0-1.5-0.5-1.5-1.4c0-0.2,0.2-0.5,0.7-0.7c0.5-0.2,0.9-0.3,1.2-0.3
			c7.4,0,11.1,0.8,11.1,2.4c0,0.2-0.1,0.4-0.2,0.6l-1.8,0.2c-0.4-0.3-1.2-0.5-2.3-0.5l-0.4,0.2c0.2,0.5,0.2,1.9,0.2,4.3l-0.2,19
			l0.5,17.5l-0.1,2.5c0,1.3,0.1,2,0.2,2.2l-0.1,0.2c0,0.5,0.6,0.8,1.8,0.8l2.3-0.1c1.6,0,2.4,0.4,2.4,1.1c0,0.5-0.2,0.9-0.5,1.2
			C895.6,269.2,895.2,269.4,894.7,269.4z"/>
		<path class="st4" d="M926.2,221.3l-0.2-2c0-1.1,0.4-1.7,1.1-1.7c0.5,0,0.9,0.2,1.3,0.7c0.3,0.5,0.5,1,0.5,1.6v5.4l-0.4,0.7
			c0,4.2-0.3,12.2-0.9,24.2c-0.6,12-1.1,18.5-1.7,19.6c-0.1,0-0.5,0.1-1.2,0.3c-0.6,0.2-1.1,0.3-1.3,0.3c-0.3,0-0.5-0.2-0.7-0.5
			c-0.2-0.4-0.4-0.8-0.5-1.4c-0.1-0.6-0.2-1-0.3-1.1l0.1-0.2c-0.3-2.2-1-4.7-2.1-7.6s-1.7-4.8-2.1-5.8c-0.2-0.2-0.9-2.2-2.1-6
			c-4.8-14.9-7.8-22.9-9.1-24.1c-0.4,1.6-0.6,3.5-0.6,5.6l0.2,6.3l-0.2,3.9c0,0.6,0.1,2.5,0.3,5.6h-0.2c0,8.9,0.2,13.8,0.5,14.7v7.2
			c0.2,0.4,0.3,0.8,0.3,1.4c0,1.3-0.5,1.9-1.5,1.9c-1.1,0-1.7-1.4-1.7-4.3l0.3-5.2l-0.5-23l0.5-14.2V222c0-0.7,0-1.2,0.1-1.4
			s0.1-0.5,0.1-0.8c0-0.3,0.1-0.6,0.2-0.8c0.1-0.2,0.2-0.4,0.3-0.6c0.2-0.5,0.5-0.8,0.8-1.1l0.2,0.3l0.8-0.2c0.6,0.2,1,0.6,1.1,1.3
			c0,0.1,0,0.2,0.1,0.4c0.1,0.2,0.1,0.4,0.1,0.4c0.9,3.8,2.8,9.1,5.7,15.9c2.9,6.8,4.7,11.2,5.3,13.1c0.6,1.9,1.2,4,1.7,6.2
			c1.1,4.8,2.3,8.3,3.6,10.5l0.2-0.2C925.6,253.2,926.2,238.7,926.2,221.3z M924.5,270.1C924.6,270.1,924.6,270.1,924.5,270.1
			L924.5,270.1z"/>
		<path class="st4" d="M946.6,233.7l-0.2,5.1c0,2.4,0.9,6.9,2.7,13.3c2.2,7.8,4.1,12.7,5.6,14.8c1,1.4,1.6,2.4,1.6,3
			c0,1.1-0.5,1.6-1.4,1.6c-1.3,0-2.8-2.4-4.5-7.2c-1.8-4.8-3.2-9.7-4.4-14.9c-1.2-5.1-1.8-8.6-1.9-10.4l-0.2-0.3
			c-0.2,0.4-0.6,1.3-1.3,2.6c-0.7,1.3-1.1,2.3-1.4,2.9c-0.8,1.8-1.2,3.7-1.2,5.7l-0.4,5.7v10.2l0.5,4.6c0,0.3-0.1,0.5-0.4,0.7
			c-0.3,0.2-0.7,0.3-1.2,0.3c-0.5,0-0.9-0.1-1.1-0.3c-0.2-0.2-0.4-0.7-0.4-1.3v-15l0.7-10.1l0.8-15.5v-11.1c0.3-0.6,0.7-0.9,1.3-0.9
			c0.6,0,1,0.2,1.3,0.5s0.5,0.7,0.5,1.1c-0.5,0.9-0.7,2.2-0.7,3.9c0,1.8-0.1,4.5-0.2,8.3c-0.1,3.8-0.2,6.6-0.2,8.5
			c0.5-0.2,2.6-3.9,6.2-11s5.6-10.7,6-10.7c1.4,0,2.1,0.4,2.1,1.3C951.8,223.8,949,228.7,946.6,233.7z"/>
		<path class="st4" d="M979.8,251.5l-0.2,3.4c0,0.1,0.1,0.4,0.2,0.9c-0.5,3.8-1.2,6.4-2.1,7.9c-0.9,1.5-1.9,2.7-3,3.5
			c-1.1,0.8-2.5,1.6-4.3,2.4c-0.4,0-0.9,0.2-1.6,0.4c-0.7,0.2-1.2,0.4-1.6,0.4c-2.1,0-3.1-0.4-3.1-1.1l0.4-20.3l-0.5-33.4
			c0-3.8,0.7-5.7,2.1-5.7c3.6,0,6.4,1.2,8.3,3.5s2.9,5.5,2.9,9.5c0,4-1.7,8.3-5.2,12.9c0.8,1.1,1.6,2.3,2.6,3.6l2.2,3
			c1.4,1.8,2.2,3.5,2.5,4.9C979.6,248.7,979.8,250.1,979.8,251.5z M966.4,216.2l0.3,19.2l0.2,0.1c1.9,0,3.4-1.1,4.6-3.2
			c1-1.7,1.7-3.5,2.3-5.3c0.6-1.8,1-2.9,1.2-3.4v-3c0-1.8-0.7-3.6-2-5.2c-1.3-1.7-2.9-2.5-4.6-2.5
			C967.1,212.7,966.4,213.9,966.4,216.2z M967.1,267.3l0.5,0.1c1.6,0,3.6-0.8,5.7-2.5s3.4-3.2,3.7-4.4c0.3-1.3,0.4-2.9,0.4-4.9
			c0-9.6-2.3-15.3-6.9-17.2c-0.5,0-1.2,0.2-2.1,0.4c-0.9,0.3-1.5,0.4-1.8,0.5C967,247,967.1,256.4,967.1,267.3z"/>
		<path class="st4" d="M1000.3,269.4l-2.7-0.3c-0.4,0-0.9,0.2-1.5,0.4c-0.6,0.3-1.3,0.4-2.1,0.4c-0.8,0-1.3-0.3-1.5-0.8l-1.3,0.1
			c-1.1,0-1.9-0.3-2.2-0.8c0-0.3,0.1-0.6,0.4-0.8c0.3-0.2,0.5-0.4,0.6-0.5h2.3l0.3-0.3l0.3-1.7l-0.6-17.5l0.4-18.7
			c0-3.6-0.1-6.7-0.4-9.3c-0.5-0.2-1.3-0.2-2.4-0.2l-1.9,0.2c-1,0-1.5-0.5-1.5-1.4c0-0.2,0.2-0.5,0.7-0.7c0.5-0.2,0.9-0.3,1.2-0.3
			c7.4,0,11.1,0.8,11.1,2.4c0,0.2-0.1,0.4-0.2,0.6l-1.8,0.2c-0.4-0.3-1.2-0.5-2.3-0.5l-0.4,0.2c0.2,0.5,0.2,1.9,0.2,4.3l-0.2,19
			l0.5,17.5l-0.1,2.5c0,1.3,0.1,2,0.2,2.2l-0.1,0.2c0,0.5,0.6,0.8,1.8,0.8l2.3-0.1c1.6,0,2.4,0.4,2.4,1.1c0,0.5-0.2,0.9-0.5,1.2
			C1001.2,269.2,1000.8,269.4,1000.3,269.4z"/>
		<path class="st4" d="M1018.6,233.7l-0.2,5.1c0,2.4,0.9,6.9,2.7,13.3c2.2,7.8,4.1,12.7,5.6,14.8c1,1.4,1.6,2.4,1.6,3
			c0,1.1-0.5,1.6-1.4,1.6c-1.3,0-2.8-2.4-4.5-7.2c-1.8-4.8-3.2-9.7-4.4-14.9c-1.2-5.1-1.8-8.6-1.9-10.4l-0.2-0.3
			c-0.2,0.4-0.6,1.3-1.3,2.6c-0.7,1.3-1.1,2.3-1.4,2.9c-0.8,1.8-1.2,3.7-1.2,5.7l-0.4,5.7v10.2l0.5,4.6c0,0.3-0.1,0.5-0.4,0.7
			c-0.3,0.2-0.7,0.3-1.2,0.3c-0.5,0-0.9-0.1-1.1-0.3c-0.2-0.2-0.4-0.7-0.4-1.3v-15l0.7-10.1l0.8-15.5v-11.1c0.3-0.6,0.7-0.9,1.3-0.9
			c0.6,0,1,0.2,1.3,0.5s0.5,0.7,0.5,1.1c-0.5,0.9-0.7,2.2-0.7,3.9c0,1.8-0.1,4.5-0.2,8.3c-0.1,3.8-0.2,6.6-0.2,8.5
			c0.5-0.2,2.6-3.9,6.2-11s5.6-10.7,6-10.7c1.4,0,2.1,0.4,2.1,1.3C1023.8,223.8,1021,228.7,1018.6,233.7z"/>
		<path class="st4" d="M1035.9,269.4l0.1-2l-0.3-0.3c0.4-1.1,0.6-2.2,0.6-3.3l-0.4-10.5l0.5-24.1l-0.3-9.6c0-1.5,0.8-2.3,2.3-2.3
			c0.6,0,1,0.2,1.3,0.5c0.2,0.1,1,0.2,2.3,0.3c3.3,0.4,5,1,5,2c0,0.4-0.5,0.9-1.5,1.5c-2.9-1-5.1-1.5-6.5-1.5l-0.4,0.5
			c0.1,0.8,0.1,1.9,0.1,3.4l-0.3,12.4c0,1.5,0.4,2.2,1.1,2.2l2.7-0.2c2,0,3.1,0.5,3.1,1.4c0,0.5-0.1,1-0.4,1.4
			c-0.3,0.4-0.8,0.6-1.5,0.6s-1.2-0.2-1.6-0.6l-2.6-0.4h-0.4l-0.4,0.4v0.2c0.1,1.4,0.2,3.5,0.2,6.3l-0.2,11.4c0,5.3,0.4,8.3,1.1,8.8
			c0.5,0.4,1.3,0.6,2.6,0.6l3-0.2c1.6,0,2.3,0.4,2.3,1.1c0,1-1.2,1.4-3.5,1.4h-6.6C1036.6,271.1,1036,270.5,1035.9,269.4z"/>
		<path class="st4" d="M1054.9,219.7c0-2,0.6-3,1.8-3c2.6,0,4.8,0.7,6.4,2c1.7,1.3,2.5,3.2,2.5,5.8v5.8c0,2.1-1,5-3.1,8.8
			c-0.7,1.3-1.1,2-1.1,2.1s1,4.3,3,12.7c2,8.3,3.1,12.6,3.2,12.9c0.1,0.3,0.4,0.8,0.8,1.6c0.4,0.8,0.6,1.5,0.6,2.1s-0.3,0.9-0.9,0.9
			l-1.2-0.4c-1.3-1.4-2.6-6.6-4.1-15.6c-1.4-8.7-2.7-13-3.7-13h-0.3c-1.2,0-1.8,0.4-1.8,1.1c0,2.9,0.2,7.8,0.5,14.6
			c0.3,6.8,0.6,10.6,0.9,11.4l-0.6,1.3h-1.2l-0.6-0.6C1055.3,247,1054.9,230.2,1054.9,219.7z M1057.1,220.8l0.3,19.4l0.2,0.2
			c1,0,1.9-0.5,2.7-1.6c0.8-1.1,1.4-2.3,1.8-3.8c0.9-3.1,1.3-5.5,1.3-7.1c0-1.6-0.1-2.8-0.2-3.7c-0.1-0.8-0.3-1.7-0.7-2.6
			c-0.7-1.9-2.2-2.8-4.6-2.8c-0.3,0-0.5,0.2-0.7,0.7C1057.2,219.9,1057.1,220.4,1057.1,220.8z"/>
	</g>
	<g>
	</g>
	<g>
	</g>
	<g>
	</g>
	<g>
	</g>
	<g>
	</g>
	<g>
	</g>
	<g>
	</g>
	<g>
	</g>
	<g>
	</g>
	<g>
	</g>
	<g>
	</g>
	<g>
	</g>
	<g>
	</g>
	<g>
	</g>
	<g>
	</g>
</g>
</svg>
