<?xml version="1.0" encoding="utf-8"?>
<!-- Generator: Adobe Illustrator 22.1.0, SVG Export Plug-In . SVG Version: 6.00 Build 0)  -->
<svg version="1.1" id="Calque_1" xmlns="http://www.w3.org/2000/svg" xmlns:xlink="http://www.w3.org/1999/xlink" x="0px" y="0px"
	 viewBox="0 0 595.3 841.9" style="enable-background:new 0 0 595.3 841.9;" xml:space="preserve">
<style type="text/css">
	.st0{fill:url(#SVGID_1_);}
	.st1{opacity:0.5;}
	.st2{fill:#225377;}
	.st3{fill:#FBFCFC;}
	.st4{fill:#E0E0DF;}
	.st5{fill:#BDBCBC;}
	.st6{fill:#F5F4F4;}
	.st7{opacity:0.1;fill:#212121;}
</style>
<linearGradient id="SVGID_1_" gradientUnits="userSpaceOnUse" x1="0" y1="420.9449" x2="595.2756" y2="420.9449">
	<stop  offset="0" style="stop-color:#FFFFFF"/>
	<stop  offset="0" style="stop-color:#49A9B7"/>
	<stop  offset="1" style="stop-color:#362960"/>
</linearGradient>
<rect class="st0" width="595.3" height="841.9"/>
<g class="st1">
	<path class="st2" d="M146.5,484.4c0,1.6-1.3,2.9-2.9,2.9c-1.6,0-2.9-1.3-2.9-2.9s1.3-2.9,2.9-2.9
		C145.1,481.4,146.5,482.7,146.5,484.4z"/>
	<path class="st2" d="M525.4,618c0,1.6-1.3,2.9-2.9,2.9s-2.9-1.3-2.9-2.9c0-1.6,1.3-2.9,2.9-2.9S525.4,616.3,525.4,618z"/>
	<path class="st2" d="M517.3,548.4c0,1.6-1.3,2.9-2.9,2.9c-1.6,0-2.9-1.3-2.9-2.9c0-1.6,1.3-2.9,2.9-2.9
		C516,545.5,517.3,546.8,517.3,548.4z"/>
	<path class="st2" d="M497.3,669.9c0,1.6-1.3,2.9-2.9,2.9s-2.9-1.3-2.9-2.9c0-1.6,1.3-2.9,2.9-2.9S497.3,668.3,497.3,669.9z"/>
	<path class="st2" d="M357.6,711.9c0,1.6-1.3,2.9-2.9,2.9c-1.6,0-2.9-1.3-2.9-2.9s1.3-2.9,2.9-2.9
		C356.3,709,357.6,710.3,357.6,711.9z"/>
	<path class="st2" d="M128.7,609.8c0,1.6-1.3,2.9-2.9,2.9s-2.9-1.3-2.9-2.9c0-1.6,1.3-2.9,2.9-2.9S128.7,608.2,128.7,609.8z"/>
	<path class="st2" d="M62.1,737.8c0,1.6-1.3,2.9-2.9,2.9c-1.6,0-2.9-1.3-2.9-2.9c0-1.6,1.3-2.9,2.9-2.9
		C60.8,734.9,62.1,736.2,62.1,737.8z"/>
	<path class="st2" d="M65,646.2c0,1.6-1.3,2.9-2.9,2.9c-1.6,0-2.9-1.3-2.9-2.9c0-1.6,1.3-2.9,2.9-2.9C63.7,643.2,65,644.5,65,646.2z
		"/>
	<path class="st2" d="M-14.4,611.6c0,1.6-1.3,2.9-2.9,2.9c-1.6,0-2.9-1.3-2.9-2.9c0-1.6,1.3-2.9,2.9-2.9
		C-15.7,608.7-14.4,610-14.4,611.6z"/>
	<circle class="st2" cx="26.3" cy="580.4" r="2.9"/>
	<path class="st2" d="M43.7,490.2c0,1.6-1.3,2.9-2.9,2.9c-1.6,0-2.9-1.3-2.9-2.9s1.3-2.9,2.9-2.9C42.4,487.3,43.7,488.6,43.7,490.2z
		"/>
	<circle class="st2" cx="358.5" cy="533.2" r="2.9"/>
	<path class="st2" d="M458.5,505.8c0,1.6-1.3,2.9-2.9,2.9c-1.6,0-2.9-1.3-2.9-2.9c0-1.6,1.3-2.9,2.9-2.9
		C457.2,502.9,458.5,504.2,458.5,505.8z"/>
	<path class="st2" d="M221.7,533.2c0,1.6-1.3,2.9-2.9,2.9c-1.6,0-2.9-1.3-2.9-2.9c0-1.6,1.3-2.9,2.9-2.9
		C220.4,530.3,221.7,531.6,221.7,533.2z"/>
	<path class="st2" d="M439.8,705c0,1.6-1.3,2.9-2.9,2.9c-1.6,0-2.9-1.3-2.9-2.9c0-1.6,1.3-2.9,2.9-2.9
		C438.5,702,439.8,703.4,439.8,705z"/>
</g>
<g class="st1">
	<path class="st2" d="M559.1,116.8c0,1.6-1.3,2.9-2.9,2.9c-1.6,0-2.9-1.3-2.9-2.9s1.3-2.9,2.9-2.9
		C557.8,113.9,559.1,115.2,559.1,116.8z"/>
	<path class="st2" d="M551.1,47.2c0,1.6-1.3,2.9-2.9,2.9c-1.6,0-2.9-1.3-2.9-2.9s1.3-2.9,2.9-2.9C549.8,44.3,551.1,45.6,551.1,47.2z
		"/>
	<path class="st2" d="M531.1,168.8c0,1.6-1.3,2.9-2.9,2.9c-1.6,0-2.9-1.3-2.9-2.9c0-1.6,1.3-2.9,2.9-2.9
		C529.8,165.9,531.1,167.2,531.1,168.8z"/>
	<path class="st2" d="M391.4,210.8c0,1.6-1.3,2.9-2.9,2.9c-1.6,0-2.9-1.3-2.9-2.9c0-1.6,1.3-2.9,2.9-2.9
		C390.1,207.9,391.4,209.2,391.4,210.8z"/>
	<path class="st2" d="M162.4,108.6c0,1.6-1.3,2.9-2.9,2.9c-1.6,0-2.9-1.3-2.9-2.9s1.3-2.9,2.9-2.9
		C161.1,105.7,162.4,107,162.4,108.6z"/>
	<path class="st2" d="M95.8,236.6c0,1.6-1.3,2.9-2.9,2.9c-1.6,0-2.9-1.3-2.9-2.9c0-1.6,1.3-2.9,2.9-2.9
		C94.5,233.7,95.8,235,95.8,236.6z"/>
	<path class="st2" d="M98.8,145c0,1.6-1.3,2.9-2.9,2.9c-1.6,0-2.9-1.3-2.9-2.9c0-1.6,1.3-2.9,2.9-2.9
		C97.5,142.1,98.8,143.4,98.8,145z"/>
	<path class="st2" d="M19.4,110.5c0,1.6-1.3,2.9-2.9,2.9c-1.6,0-2.9-1.3-2.9-2.9s1.3-2.9,2.9-2.9C18.1,107.6,19.4,108.9,19.4,110.5z
		"/>
	<circle class="st2" cx="60.1" cy="79.2" r="2.9"/>
	<circle class="st2" cx="392.3" cy="32.1" r="2.9"/>
	<path class="st2" d="M492.3,4.7c0,1.6-1.3,2.9-2.9,2.9c-1.6,0-2.9-1.3-2.9-2.9c0-1.6,1.3-2.9,2.9-2.9C491,1.7,492.3,3.1,492.3,4.7z
		"/>
	<path class="st2" d="M255.5,32.1c0,1.6-1.3,2.9-2.9,2.9c-1.6,0-2.9-1.3-2.9-2.9c0-1.6,1.3-2.9,2.9-2.9
		C254.2,29.1,255.5,30.4,255.5,32.1z"/>
	<path class="st2" d="M473.6,203.8c0,1.6-1.3,2.9-2.9,2.9s-2.9-1.3-2.9-2.9c0-1.6,1.3-2.9,2.9-2.9S473.6,202.2,473.6,203.8z"/>
</g>
<g class="st1">
	<path class="st2" d="M180.2,168.8c0,1.6-1.3,2.9-2.9,2.9c-1.6,0-2.9-1.3-2.9-2.9c0-1.6,1.3-2.9,2.9-2.9
		C178.9,165.9,180.2,167.2,180.2,168.8z"/>
	<path class="st2" d="M559.1,302.4c0,1.6-1.3,2.9-2.9,2.9c-1.6,0-2.9-1.3-2.9-2.9s1.3-2.9,2.9-2.9
		C557.8,299.5,559.1,300.8,559.1,302.4z"/>
	<path class="st2" d="M551.1,232.8c0,1.6-1.3,2.9-2.9,2.9c-1.6,0-2.9-1.3-2.9-2.9c0-1.6,1.3-2.9,2.9-2.9
		C549.8,229.9,551.1,231.2,551.1,232.8z"/>
	<path class="st2" d="M531.1,354.4c0,1.6-1.3,2.9-2.9,2.9c-1.6,0-2.9-1.3-2.9-2.9c0-1.6,1.3-2.9,2.9-2.9
		C529.8,351.5,531.1,352.8,531.1,354.4z"/>
	<path class="st2" d="M391.4,396.4c0,1.6-1.3,2.9-2.9,2.9c-1.6,0-2.9-1.3-2.9-2.9c0-1.6,1.3-2.9,2.9-2.9
		C390.1,393.5,391.4,394.8,391.4,396.4z"/>
	<path class="st2" d="M162.4,294.2c0,1.6-1.3,2.9-2.9,2.9c-1.6,0-2.9-1.3-2.9-2.9c0-1.6,1.3-2.9,2.9-2.9
		C161.1,291.3,162.4,292.6,162.4,294.2z"/>
	<path class="st2" d="M95.8,422.2c0,1.6-1.3,2.9-2.9,2.9c-1.6,0-2.9-1.3-2.9-2.9s1.3-2.9,2.9-2.9C94.5,419.3,95.8,420.6,95.8,422.2z
		"/>
	<path class="st2" d="M98.8,330.6c0,1.6-1.3,2.9-2.9,2.9c-1.6,0-2.9-1.3-2.9-2.9s1.3-2.9,2.9-2.9C97.5,327.7,98.8,329,98.8,330.6z"
		/>
	<path class="st2" d="M19.4,296.1c0,1.6-1.3,2.9-2.9,2.9c-1.6,0-2.9-1.3-2.9-2.9c0-1.6,1.3-2.9,2.9-2.9
		C18.1,293.1,19.4,294.5,19.4,296.1z"/>
	<circle class="st2" cx="60.1" cy="264.8" r="2.9"/>
	<path class="st2" d="M77.4,174.6c0,1.6-1.3,2.9-2.9,2.9c-1.6,0-2.9-1.3-2.9-2.9c0-1.6,1.3-2.9,2.9-2.9
		C76.1,171.7,77.4,173,77.4,174.6z"/>
	<circle class="st2" cx="392.3" cy="217.7" r="2.9"/>
	<path class="st2" d="M492.3,190.3c0,1.6-1.3,2.9-2.9,2.9c-1.6,0-2.9-1.3-2.9-2.9c0-1.6,1.3-2.9,2.9-2.9
		C491,187.3,492.3,188.6,492.3,190.3z"/>
	<path class="st2" d="M255.5,217.7c0,1.6-1.3,2.9-2.9,2.9c-1.6,0-2.9-1.3-2.9-2.9c0-1.6,1.3-2.9,2.9-2.9
		C254.2,214.7,255.5,216,255.5,217.7z"/>
	<path class="st2" d="M473.6,389.4c0,1.6-1.3,2.9-2.9,2.9s-2.9-1.3-2.9-2.9s1.3-2.9,2.9-2.9S473.6,387.8,473.6,389.4z"/>
</g>
<g class="st1">
	<path class="st2" d="M180.2,376.5c0,1.6-1.3,2.9-2.9,2.9c-1.6,0-2.9-1.3-2.9-2.9s1.3-2.9,2.9-2.9
		C178.9,373.6,180.2,374.9,180.2,376.5z"/>
	<path class="st2" d="M559.1,510.1c0,1.6-1.3,2.9-2.9,2.9c-1.6,0-2.9-1.3-2.9-2.9c0-1.6,1.3-2.9,2.9-2.9
		C557.8,507.2,559.1,508.5,559.1,510.1z"/>
	<path class="st2" d="M551.1,440.5c0,1.6-1.3,2.9-2.9,2.9c-1.6,0-2.9-1.3-2.9-2.9c0-1.6,1.3-2.9,2.9-2.9
		C549.8,437.6,551.1,438.9,551.1,440.5z"/>
	<path class="st2" d="M531.1,562.1c0,1.6-1.3,2.9-2.9,2.9c-1.6,0-2.9-1.3-2.9-2.9s1.3-2.9,2.9-2.9
		C529.8,559.1,531.1,560.5,531.1,562.1z"/>
	<path class="st2" d="M391.4,604.1c0,1.6-1.3,2.9-2.9,2.9c-1.6,0-2.9-1.3-2.9-2.9c0-1.6,1.3-2.9,2.9-2.9
		C390.1,601.1,391.4,602.4,391.4,604.1z"/>
	<path class="st2" d="M162.4,501.9c0,1.6-1.3,2.9-2.9,2.9c-1.6,0-2.9-1.3-2.9-2.9s1.3-2.9,2.9-2.9
		C161.1,499,162.4,500.3,162.4,501.9z"/>
	<path class="st2" d="M95.8,629.9c0,1.6-1.3,2.9-2.9,2.9c-1.6,0-2.9-1.3-2.9-2.9c0-1.6,1.3-2.9,2.9-2.9
		C94.5,627,95.8,628.3,95.8,629.9z"/>
	<path class="st2" d="M98.8,538.3c0,1.6-1.3,2.9-2.9,2.9c-1.6,0-2.9-1.3-2.9-2.9s1.3-2.9,2.9-2.9C97.5,535.4,98.8,536.7,98.8,538.3z
		"/>
	<path class="st2" d="M19.4,503.8c0,1.6-1.3,2.9-2.9,2.9c-1.6,0-2.9-1.3-2.9-2.9s1.3-2.9,2.9-2.9C18.1,500.8,19.4,502.1,19.4,503.8z
		"/>
	<circle class="st2" cx="60.1" cy="472.5" r="2.9"/>
	<path class="st2" d="M77.4,382.3c0,1.6-1.3,2.9-2.9,2.9c-1.6,0-2.9-1.3-2.9-2.9s1.3-2.9,2.9-2.9C76.1,379.4,77.4,380.7,77.4,382.3z
		"/>
	<circle class="st2" cx="392.3" cy="425.3" r="2.9"/>
	<path class="st2" d="M492.3,397.9c0,1.6-1.3,2.9-2.9,2.9c-1.6,0-2.9-1.3-2.9-2.9c0-1.6,1.3-2.9,2.9-2.9
		C491,395,492.3,396.3,492.3,397.9z"/>
	<path class="st2" d="M255.5,425.3c0,1.6-1.3,2.9-2.9,2.9c-1.6,0-2.9-1.3-2.9-2.9c0-1.6,1.3-2.9,2.9-2.9
		C254.2,422.4,255.5,423.7,255.5,425.3z"/>
	<path class="st2" d="M473.6,597.1c0,1.6-1.3,2.9-2.9,2.9s-2.9-1.3-2.9-2.9c0-1.6,1.3-2.9,2.9-2.9S473.6,595.5,473.6,597.1z"/>
</g>
<g class="st1">
	<path class="st2" d="M180.2,544.1c0,1.6-1.3,2.9-2.9,2.9c-1.6,0-2.9-1.3-2.9-2.9s1.3-2.9,2.9-2.9
		C178.9,541.2,180.2,542.5,180.2,544.1z"/>
	<path class="st2" d="M559.1,677.7c0,1.6-1.3,2.9-2.9,2.9c-1.6,0-2.9-1.3-2.9-2.9c0-1.6,1.3-2.9,2.9-2.9
		C557.8,674.8,559.1,676.1,559.1,677.7z"/>
	<path class="st2" d="M551.1,608.2c0,1.6-1.3,2.9-2.9,2.9c-1.6,0-2.9-1.3-2.9-2.9c0-1.6,1.3-2.9,2.9-2.9
		C549.8,605.2,551.1,606.5,551.1,608.2z"/>
	<path class="st2" d="M531.1,729.7c0,1.6-1.3,2.9-2.9,2.9c-1.6,0-2.9-1.3-2.9-2.9c0-1.6,1.3-2.9,2.9-2.9
		C529.8,726.8,531.1,728.1,531.1,729.7z"/>
	<path class="st2" d="M391.4,771.7c0,1.6-1.3,2.9-2.9,2.9c-1.6,0-2.9-1.3-2.9-2.9c0-1.6,1.3-2.9,2.9-2.9
		C390.1,768.8,391.4,770.1,391.4,771.7z"/>
	<path class="st2" d="M162.4,669.5c0,1.6-1.3,2.9-2.9,2.9c-1.6,0-2.9-1.3-2.9-2.9s1.3-2.9,2.9-2.9
		C161.1,666.6,162.4,667.9,162.4,669.5z"/>
	<path class="st2" d="M95.8,797.6c0,1.6-1.3,2.9-2.9,2.9c-1.6,0-2.9-1.3-2.9-2.9c0-1.6,1.3-2.9,2.9-2.9
		C94.5,794.7,95.8,796,95.8,797.6z"/>
	<path class="st2" d="M98.8,705.9c0,1.6-1.3,2.9-2.9,2.9c-1.6,0-2.9-1.3-2.9-2.9c0-1.6,1.3-2.9,2.9-2.9
		C97.5,703,98.8,704.3,98.8,705.9z"/>
	<path class="st2" d="M19.4,671.4c0,1.6-1.3,2.9-2.9,2.9c-1.6,0-2.9-1.3-2.9-2.9s1.3-2.9,2.9-2.9C18.1,668.5,19.4,669.8,19.4,671.4z
		"/>
	<circle class="st2" cx="60.1" cy="640.1" r="2.9"/>
	<path class="st2" d="M77.4,550c0,1.6-1.3,2.9-2.9,2.9c-1.6,0-2.9-1.3-2.9-2.9s1.3-2.9,2.9-2.9C76.1,547,77.4,548.3,77.4,550z"/>
	<circle class="st2" cx="392.3" cy="593" r="2.9"/>
	<path class="st2" d="M492.3,565.6c0,1.6-1.3,2.9-2.9,2.9c-1.6,0-2.9-1.3-2.9-2.9c0-1.6,1.3-2.9,2.9-2.9
		C491,562.7,492.3,564,492.3,565.6z"/>
	<path class="st2" d="M255.5,593c0,1.6-1.3,2.9-2.9,2.9c-1.6,0-2.9-1.3-2.9-2.9s1.3-2.9,2.9-2.9C254.2,590.1,255.5,591.4,255.5,593z
		"/>
	<path class="st2" d="M473.6,764.7c0,1.6-1.3,2.9-2.9,2.9s-2.9-1.3-2.9-2.9c0-1.6,1.3-2.9,2.9-2.9S473.6,763.1,473.6,764.7z"/>
</g>
<g class="st1">
	<path class="st2" d="M201.6,729.7c0,1.6-1.3,2.9-2.9,2.9c-1.6,0-2.9-1.3-2.9-2.9c0-1.6,1.3-2.9,2.9-2.9
		C200.3,726.8,201.6,728.1,201.6,729.7z"/>
	<path class="st2" d="M572.5,793.8c0,1.6-1.3,2.9-2.9,2.9c-1.6,0-2.9-1.3-2.9-2.9c0-1.6,1.3-2.9,2.9-2.9
		C571.2,790.8,572.5,792.1,572.5,793.8z"/>
	<circle class="st2" cx="81.5" cy="825.7" r="2.9"/>
	<path class="st2" d="M98.9,735.5c0,1.6-1.3,2.9-2.9,2.9c-1.6,0-2.9-1.3-2.9-2.9c0-1.6,1.3-2.9,2.9-2.9
		C97.6,732.6,98.9,733.9,98.9,735.5z"/>
	<path class="st2" d="M5.8,751.2c0,1.6-1.3,2.9-2.9,2.9S0,752.8,0,751.2c0-1.6,1.3-2.9,2.9-2.9S5.8,749.6,5.8,751.2z"/>
	<circle class="st2" cx="413.7" cy="778.6" r="2.9"/>
	<path class="st2" d="M513.7,751.2c0,1.6-1.3,2.9-2.9,2.9c-1.6,0-2.9-1.3-2.9-2.9c0-1.6,1.3-2.9,2.9-2.9
		C512.4,748.3,513.7,749.6,513.7,751.2z"/>
	<path class="st2" d="M276.9,778.6c0,1.6-1.3,2.9-2.9,2.9s-2.9-1.3-2.9-2.9s1.3-2.9,2.9-2.9S276.9,777,276.9,778.6z"/>
</g>
<g class="st1">
	<path class="st2" d="M170.9,806.8c0,1.6-1.3,2.9-2.9,2.9s-2.9-1.3-2.9-2.9c0-1.6,1.3-2.9,2.9-2.9S170.9,805.2,170.9,806.8z"/>
	<path class="st2" d="M541.8,870.8c0,1.6-1.3,2.9-2.9,2.9c-1.6,0-2.9-1.3-2.9-2.9s1.3-2.9,2.9-2.9
		C540.5,867.9,541.8,869.2,541.8,870.8z"/>
	<circle class="st2" cx="50.7" cy="902.8" r="2.9"/>
	<path class="st2" d="M68.1,812.6c0,1.6-1.3,2.9-2.9,2.9c-1.6,0-2.9-1.3-2.9-2.9c0-1.6,1.3-2.9,2.9-2.9
		C66.8,809.7,68.1,811,68.1,812.6z"/>
	<path class="st2" d="M-24.9,828.2c0,1.6-1.3,2.9-2.9,2.9c-1.6,0-2.9-1.3-2.9-2.9c0-1.6,1.3-2.9,2.9-2.9
		C-26.2,825.3-24.9,826.6-24.9,828.2z"/>
	<circle class="st2" cx="382.9" cy="855.6" r="2.9"/>
	<path class="st2" d="M483,828.2c0,1.6-1.3,2.9-2.9,2.9c-1.6,0-2.9-1.3-2.9-2.9c0-1.6,1.3-2.9,2.9-2.9
		C481.7,825.3,483,826.6,483,828.2z"/>
	<path class="st2" d="M246.2,855.6c0,1.6-1.3,2.9-2.9,2.9c-1.6,0-2.9-1.3-2.9-2.9c0-1.6,1.3-2.9,2.9-2.9
		C244.9,852.7,246.2,854,246.2,855.6z"/>
</g>
<g>
	<path class="st3" d="M366.2,841.9h25.1H426c0,0,0,0.1,0.1,0.1l2-0.1h0h52.4h3.3h110.5l0-188.1c-24.6-29.8-60.7-49.8-101.5-53.2
		c0,0,0,0,0,0c-1-0.1-2.1-0.2-3.1-0.2c-1-0.1-2.1-0.1-3.1-0.2c-1,0-1.9-0.1-2.9-0.1c-0.5,0-0.9,0-1.4,0c-0.7,0-1.3,0-2,0
		c-11.7,0-23.1,1.4-34,3.9c-0.6,0.1-1.2,0.3-1.8,0.4c-0.6,0.1-1.2,0.3-1.7,0.4c-0.2,0-0.4,0.1-0.6,0.2c-0.6,0.2-1.2,0.3-1.7,0.5
		c-0.6,0.2-1.2,0.3-1.7,0.5c-1,0.3-2,0.6-3,0.9c-1,0.3-2,0.6-3,1c-1,0.3-2,0.7-2.9,1c-3.9,1.4-7.7,3-11.4,4.7
		c-1.4,0.6-2.8,1.3-4.2,2c-1.8,0.9-3.6,1.9-5.4,2.9c-1.7,0.9-3.4,1.9-5,2.9c-0.7,0.4-1.3,0.8-2,1.2c-0.1,0.1-0.3,0.2-0.4,0.2
		c-0.3,0.2-0.5,0.3-0.8,0.5c-0.3,0.2-0.6,0.4-1,0.6c-0.4,0.3-0.8,0.6-1.3,0.8c-0.3,0.2-0.6,0.4-0.9,0.6c-0.3,0.2-0.6,0.4-0.9,0.6
		c-0.3,0.2-0.6,0.4-0.9,0.7c-1.1,0.8-2.3,1.6-3.4,2.4c-0.4,0.3-0.8,0.6-1.2,0.9c-0.4,0.3-0.8,0.6-1.2,0.9c-0.4,0.3-0.7,0.6-1.1,0.9
		c-0.4,0.3-0.9,0.7-1.3,1c-0.3,0.2-0.6,0.5-0.9,0.7c-1.4,1.1-2.8,2.3-4.1,3.5c-0.5,0.4-1,0.8-1.4,1.3c-1.3,1.2-2.6,2.4-3.9,3.7
		c-0.4,0.4-0.8,0.8-1.2,1.2c-0.4,0.4-0.9,0.9-1.3,1.3c-1.1,1.1-2.2,2.3-3.3,3.5c-0.3,0.3-0.5,0.6-0.8,0.8c-0.5,0.6-1,1.2-1.5,1.7
		c-0.4,0.4-0.7,0.9-1.1,1.3c-0.3,0.4-0.7,0.8-1,1.2c-0.5,0.6-0.9,1.1-1.4,1.7c-0.1,0.1-0.1,0.1-0.2,0.2c0,0-0.1,0.1-0.1,0.1
		c-0.7,0.8-1.3,1.6-1.9,2.4c-0.4,0.5-0.8,1-1.2,1.5c-0.9,1.2-1.8,2.4-2.7,3.7c-0.1,0.2-0.3,0.4-0.4,0.6c-0.9,1.3-1.8,2.6-2.6,3.9
		c-0.2,0.3-0.5,0.7-0.7,1.1c-0.2,0.3-0.5,0.7-0.7,1.1c-0.3,0.6-0.7,1.1-1,1.7c-1.1,1.8-2.2,3.7-3.2,5.6c-0.2,0.3-0.4,0.7-0.6,1
		c-0.2,0.4-0.4,0.8-0.7,1.3c-0.2,0.4-0.4,0.8-0.7,1.3c-0.2,0.3-0.3,0.6-0.4,0.9c-0.3,0.5-0.5,1.1-0.8,1.6c-0.3,0.5-0.5,1.1-0.8,1.7
		c-0.2,0.5-0.5,1-0.7,1.5c-0.3,0.5-0.5,1.1-0.7,1.6c-0.2,0.4-0.4,0.8-0.6,1.2c-0.2,0.4-0.4,0.9-0.6,1.3c-0.2,0.5-0.4,0.9-0.6,1.4
		c-0.5,1.2-1,2.5-1.5,3.7c-0.2,0.6-0.5,1.2-0.7,1.9c-0.3,0.7-0.5,1.5-0.8,2.2c-0.1,0.4-0.3,0.7-0.4,1.1c0,0.1,0,0.1-0.1,0.2
		c-0.2,0.6-0.4,1.1-0.6,1.7c-0.2,0.5-0.3,0.9-0.4,1.4c-0.1,0.2-0.1,0.4-0.2,0.7c-0.1,0.5-0.3,1-0.4,1.4c-0.2,0.6-0.4,1.3-0.6,1.9
		c-0.1,0.5-0.3,1-0.4,1.5c-0.1,0.3-0.2,0.5-0.2,0.8c-0.1,0.3-0.1,0.5-0.2,0.8c0,0.1,0,0.2-0.1,0.2c-0.1,0.5-0.3,1.1-0.4,1.6
		c-0.1,0.6-0.3,1.2-0.4,1.7c-0.2,0.9-0.4,1.9-0.6,2.8c-0.1,0.4-0.2,0.9-0.3,1.3c0,0.1,0,0.1,0,0.2c-0.1,0.5-0.2,0.9-0.3,1.4
		c-0.1,0.5-0.2,1-0.3,1.5c-0.1,0.7-0.2,1.3-0.3,2c-0.1,0.4-0.1,0.8-0.2,1.2c-0.1,0.3-0.1,0.7-0.2,1c0,0.1,0,0.1,0,0.2
		c0,0.3-0.1,0.6-0.1,0.9c-0.1,0.9-0.2,1.8-0.4,2.7c-0.1,0.6-0.1,1.2-0.2,1.8c0,0.2-0.1,0.5-0.1,0.7c0,0.2-0.1,0.5-0.1,0.7
		c0,0.4-0.1,0.8-0.1,1.2c-0.1,0.8-0.1,1.6-0.2,2.4c0,0.3,0,0.6-0.1,0.8c0,0.4-0.1,0.8-0.1,1.2c-0.2,2.5-0.3,5-0.3,7.6
		c0,0.6,0,1.3,0,1.9c0,0.6,0,1.3,0,1.9c0,0.5,0,0.9,0,1.4c0,0.4,0,0.9,0,1.3c0,0.5,0,1,0.1,1.5c0,0.4,0,0.8,0.1,1.2
		c0,0.8,0.1,1.5,0.1,2.3c0,0.3,0,0.6,0.1,0.9c0.1,1.8,0.3,3.6,0.5,5.4c0,0.4,0.1,0.7,0.1,1.1c0.1,0.6,0.1,1.2,0.2,1.8
		c0,0.3,0.1,0.6,0.1,0.9c0.1,0.4,0.1,0.8,0.2,1.3c0.1,0.4,0.1,0.8,0.2,1.3c0,0.3,0.1,0.7,0.2,1c0.1,0.4,0.1,0.8,0.2,1.2
		c0.1,0.4,0.1,0.9,0.2,1.3c0.1,0.7,0.2,1.3,0.4,1.9c0.1,0.6,0.2,1.1,0.3,1.7c0.1,0.5,0.2,1,0.3,1.4c0.1,0.4,0.2,0.8,0.2,1.1
		c0.3,1.2,0.5,2.4,0.8,3.6c0.1,0.5,0.2,0.9,0.4,1.4c0.2,0.7,0.4,1.4,0.5,2c0.1,0.5,0.3,0.9,0.4,1.4c0.2,0.6,0.3,1.1,0.5,1.7
		c0.1,0.3,0.2,0.7,0.3,1c0.2,0.7,0.5,1.5,0.7,2.2c0.2,0.5,0.3,1,0.5,1.5c0.1,0.2,0.1,0.4,0.2,0.7c0.2,0.6,0.4,1.2,0.6,1.7
		c0.2,0.5,0.3,0.9,0.5,1.4c0.1,0.3,0.3,0.7,0.4,1c0.2,0.4,0.3,0.8,0.5,1.2c0.6,1.7,1.3,3.3,2,4.9c0.1,0.3,0.3,0.6,0.4,0.9
		c0.2,0.4,0.4,0.9,0.6,1.3c0.3,0.6,0.6,1.2,0.8,1.8c0.5,1,1,2.1,1.5,3.1c0.3,0.6,0.6,1.3,1,1.9c0.7,1.4,1.4,2.7,2.1,4.1
		c0.5,0.9,1,1.8,1.5,2.7c0,0,0,0,0,0c0.5,0.9,1,1.7,1.5,2.6c0.4,0.6,0.7,1.2,1.1,1.8c0.1,0.1,0.1,0.2,0.2,0.3
		c0.4,0.6,0.7,1.2,1.1,1.8c0.5,0.7,0.9,1.4,1.4,2.2c0.4,0.5,0.7,1.1,1.1,1.6c1.4,2.1,2.9,4.1,4.5,6.2c0.6,0.8,1.2,1.6,1.9,2.4
		c0.3,0.4,0.6,0.8,1,1.2C366,841.6,366.1,841.8,366.2,841.9L366.2,841.9z"/>
	<g>
		<circle class="st4" cx="537.6" cy="654.8" r="23.3"/>
		<path class="st5" d="M535.6,633.5c12.9,0,23.3,10.4,23.3,23.3c0,5.9-2.2,11.3-5.9,15.4c4.8-4.3,7.8-10.5,7.8-17.4
			c0-12.9-10.4-23.3-23.3-23.3c-6.9,0-13.2,3-17.4,7.8C524.3,635.8,529.7,633.5,535.6,633.5z"/>
		<path class="st6" d="M560.8,655.7c0-0.2,0-0.3,0-0.5c-0.2,12.6-10.6,22.8-23.3,22.8c-12.9,0-23.3-10.4-23.3-23.3
			c0-12.7,10.2-23,22.8-23.3c-0.2,0-0.3,0-0.5,0c-13.4,0-24.2,10.8-24.2,24.2c0,13.4,10.8,24.2,24.2,24.2
			C550,679.9,560.8,669.1,560.8,655.7z"/>
	</g>
	<g>
		<circle class="st4" cx="578.3" cy="809.4" r="11.6"/>
		<path class="st5" d="M577.3,798.7c6.4,0,11.6,5.2,11.6,11.6c0,3-1.1,5.7-2.9,7.7c2.4-2.1,3.9-5.2,3.9-8.7
			c0-6.4-5.2-11.6-11.6-11.6c-3.5,0-6.6,1.5-8.7,3.9C571.7,799.9,574.4,798.7,577.3,798.7z"/>
		<path class="st6" d="M590,809.8c0-0.1,0-0.2,0-0.2c-0.1,6.3-5.3,11.4-11.6,11.4c-6.4,0-11.6-5.2-11.6-11.6
			c0-6.3,5.1-11.5,11.4-11.6c-0.1,0-0.2,0-0.2,0c-6.7,0-12.1,5.4-12.1,12.1c0,6.7,5.4,12.1,12.1,12.1
			C584.6,821.9,590,816.5,590,809.8z"/>
	</g>
	<g>
		<path class="st4" d="M488.2,841.9h-55.7c0-0.1,0.1-0.3,0.1-0.4c0.1-0.2,0.1-0.4,0.2-0.6c0.1-0.2,0.1-0.3,0.2-0.5
			c0.3-0.7,0.5-1.4,0.9-2.1c0.1-0.2,0.2-0.4,0.3-0.6c0.4-0.9,0.9-1.7,1.3-2.5c0.1-0.2,0.2-0.4,0.3-0.6c0.1-0.2,0.3-0.4,0.4-0.6
			c0.1-0.2,0.3-0.4,0.4-0.6c0.1-0.2,0.3-0.4,0.4-0.6c0.1-0.2,0.3-0.4,0.4-0.6c0.1-0.2,0.3-0.4,0.4-0.5c0.1-0.2,0.3-0.4,0.4-0.5
			c0.1-0.1,0.3-0.3,0.4-0.4l0,0c0,0,0-0.1,0.1-0.1c0-0.1,0.1-0.1,0.1-0.2c0.1-0.1,0.2-0.2,0.3-0.3c0,0,0,0,0,0
			c0.2-0.2,0.3-0.3,0.5-0.5c0,0,0,0,0,0c0.2-0.2,0.3-0.3,0.5-0.5c0,0,0,0,0.1-0.1c0.1-0.1,0.3-0.3,0.4-0.4c0.2-0.2,0.3-0.3,0.5-0.5
			c0.2-0.2,0.3-0.3,0.5-0.4c0.1-0.1,0.3-0.2,0.4-0.3c0.1,0,0.1-0.1,0.2-0.1c0.2-0.1,0.3-0.3,0.5-0.4l0,0c0.1,0,0.1-0.1,0.2-0.1
			c0.1-0.1,0.3-0.2,0.4-0.3c0.1-0.1,0.2-0.2,0.4-0.3l0.6-0.4c0,0,0.1-0.1,0.1-0.1c0.1-0.1,0.2-0.1,0.3-0.2c0.1,0,0.1-0.1,0.2-0.1
			c0.2-0.1,0.4-0.3,0.6-0.4c0,0,0,0,0,0c0.2-0.1,0.4-0.2,0.6-0.4c0.2-0.1,0.4-0.2,0.7-0.4l0.2-0.1c0.3-0.2,0.7-0.3,1-0.5
			c0,0,0,0,0,0c0.2-0.1,0.4-0.2,0.6-0.3c0,0,0,0,0.1,0c0.1,0,0.2-0.1,0.2-0.1c0.1,0,0.1-0.1,0.2-0.1c0.6-0.3,1.3-0.5,1.9-0.7
			c0.2-0.1,0.4-0.1,0.6-0.2c0.1,0,0.1,0,0.2-0.1c0.3-0.1,0.6-0.2,0.9-0.3c0.1,0,0.2,0,0.3-0.1c0.3-0.1,0.5-0.1,0.8-0.2
			c0.2,0,0.3-0.1,0.5-0.1c0.2,0,0.4-0.1,0.5-0.1c0.3-0.1,0.5-0.1,0.8-0.1c0.3,0,0.5-0.1,0.8-0.1c0.2,0,0.3,0,0.5-0.1
			c0,0,0.1,0,0.1,0c0,0,0.1,0,0.1,0c0.1,0,0.1,0,0.2,0c0.1,0,0.1,0,0.2,0h0c0.3,0,0.6-0.1,0.9-0.1c0.2,0,0.3,0,0.5,0
			c0.2,0,0.5,0,0.7,0h0c0.2,0,0.5,0,0.7,0C473.5,821.1,484.6,829.9,488.2,841.9z"/>
		<path class="st5" d="M488.2,841.9h-3.3c-4.3-10.7-14.7-18.3-27-18.3c-7.4,0-14.1,2.8-19.2,7.3c0,0,0-0.1,0.1-0.1
			c0-0.1,0.1-0.1,0.1-0.2c0.1-0.1,0.2-0.2,0.3-0.3c0,0,0,0,0,0c0.2-0.2,0.3-0.3,0.5-0.5c0,0,0,0,0,0c0.2-0.2,0.3-0.3,0.5-0.5
			c0,0,0,0,0.1-0.1c0.1-0.1,0.3-0.3,0.4-0.4c0.2-0.2,0.3-0.3,0.5-0.5c0.2-0.2,0.3-0.3,0.5-0.4c0.1-0.1,0.3-0.2,0.4-0.3
			c0.1,0,0.1-0.1,0.2-0.1c0.2-0.1,0.3-0.3,0.5-0.4l0,0c0.1,0,0.1-0.1,0.2-0.1c0.1-0.1,0.3-0.2,0.4-0.3c0.1-0.1,0.2-0.2,0.4-0.3
			l0.6-0.4c0,0,0.1-0.1,0.1-0.1c0.1-0.1,0.2-0.1,0.3-0.2c0.1,0,0.1-0.1,0.2-0.1c0,0,0.1,0,0.1-0.1c0.2-0.1,0.4-0.2,0.6-0.3
			c0,0,0,0,0,0c0.2-0.1,0.4-0.2,0.6-0.4c0.2-0.1,0.4-0.2,0.7-0.4l0.2-0.1c0.3-0.2,0.7-0.3,1-0.5c0,0,0,0,0,0
			c0.2-0.1,0.4-0.2,0.6-0.3c0,0,0,0,0.1,0c0.1,0,0.2-0.1,0.2-0.1c0.1,0,0.1-0.1,0.2-0.1c0.1,0,0.1-0.1,0.2-0.1c0,0,0,0,0,0
			c0.2-0.1,0.4-0.2,0.6-0.3c0.2-0.1,0.4-0.2,0.7-0.2c0.1-0.1,0.3-0.1,0.4-0.2c0.2-0.1,0.4-0.1,0.6-0.2c0.1,0,0.1,0,0.2-0.1
			c0.3-0.1,0.6-0.2,0.9-0.3c0.1,0,0.2,0,0.3-0.1c0.3-0.1,0.5-0.1,0.8-0.2c0.2,0,0.3-0.1,0.5-0.1c0.2,0,0.4-0.1,0.5-0.1
			c0.3-0.1,0.5-0.1,0.8-0.1c0.3,0,0.5-0.1,0.8-0.1c0.2,0,0.3,0,0.5-0.1c0,0,0.1,0,0.1,0c0,0,0.1,0,0.1,0c0.1,0,0.1,0,0.2,0
			c0.1,0,0.1,0,0.2,0h0c0.3,0,0.6-0.1,0.9-0.1c0.2,0,0.3,0,0.5,0c0.2,0,0.5,0,0.7,0h0c0.2,0,0.5,0,0.7,0
			C473.5,821.1,484.6,829.9,488.2,841.9z"/>
		<path class="st6" d="M432.5,841.9c0-0.1,0.1-0.3,0.1-0.4c0.1-0.2,0.1-0.4,0.2-0.6c0.1-0.2,0.1-0.3,0.2-0.5
			c0.3-0.7,0.5-1.4,0.9-2.1c0.1-0.2,0.2-0.4,0.3-0.6c0.4-0.9,0.9-1.7,1.3-2.5c0.1-0.2,0.2-0.4,0.3-0.6c0.1-0.2,0.3-0.4,0.4-0.6
			c0.1-0.2,0.3-0.4,0.4-0.6c0.1-0.2,0.3-0.4,0.4-0.6c0.1-0.2,0.3-0.4,0.4-0.6c0.1-0.2,0.3-0.4,0.4-0.5c0.1-0.2,0.3-0.4,0.4-0.5
			c0.1-0.1,0.3-0.3,0.4-0.4l0,0c0,0,0-0.1,0.1-0.1c0-0.1,0.1-0.1,0.1-0.2c0.1-0.1,0.2-0.2,0.3-0.3c0,0,0,0,0,0
			c0.2-0.2,0.3-0.3,0.5-0.5c0,0,0,0,0,0c0.2-0.2,0.3-0.3,0.5-0.5c0,0,0,0,0.1-0.1c0.1-0.1,0.3-0.3,0.4-0.4c0.2-0.2,0.3-0.3,0.5-0.5
			c0.2-0.2,0.3-0.3,0.5-0.4c0.1-0.1,0.3-0.2,0.4-0.3c0.1,0,0.1-0.1,0.2-0.1c0.2-0.1,0.3-0.3,0.5-0.4l0,0c0.1,0,0.1-0.1,0.2-0.1
			c0.1-0.1,0.3-0.2,0.4-0.3c0.4-0.3,0.7-0.5,1.1-0.8c0.1-0.1,0.2-0.1,0.3-0.2c0.1,0,0.1-0.1,0.2-0.1c0,0,0.1,0,0.1-0.1
			c0.2-0.1,0.4-0.2,0.6-0.3c0,0,0,0,0,0c0.2-0.1,0.4-0.2,0.6-0.4c0.3-0.2,0.6-0.3,0.8-0.4c0.3-0.2,0.7-0.3,1-0.5c0,0,0,0,0,0
			c0.2-0.1,0.4-0.2,0.6-0.3c0,0,0,0,0.1,0c0.2-0.1,0.4-0.2,0.6-0.3c0,0,0,0,0,0c0.2-0.1,0.4-0.2,0.6-0.3c0.2-0.1,0.4-0.2,0.7-0.2
			c0.3-0.1,0.7-0.2,1-0.3c0.1,0,0.1,0,0.2-0.1c0.3-0.1,0.6-0.2,0.9-0.3c0.1,0,0.2,0,0.3-0.1c1.2-0.3,2.5-0.6,3.8-0.7
			c0,0,0.1,0,0.1,0c0.1,0,0.2,0,0.3,0c0.1,0,0.1,0,0.2,0h0c0.8-0.1,1.6-0.1,2.3-0.1c-0.1,0-0.1,0-0.2,0h0c-0.1,0-0.3,0-0.4,0
			c-13.4,0-24.8,8.7-28.7,20.8c0,0,0,0.1,0,0.1L432.5,841.9z"/>
	</g>
	<g>
		<circle class="st4" cx="392.5" cy="772.5" r="29"/>
		<path class="st5" d="M390,746c16,0,29,13,29,29c0,7.4-2.8,14.1-7.3,19.2c6-5.3,9.8-13.1,9.8-21.7c0-16-13-29-29-29
			c-8.7,0-16.4,3.8-21.7,9.8C375.9,748.7,382.6,746,390,746z"/>
		<path class="st6" d="M421.5,773.7c0-0.2,0-0.4,0-0.6c-0.3,15.8-13.2,28.5-29,28.5c-16,0-29-13-29-29c0-15.8,12.7-28.7,28.5-29
			c-0.2,0-0.4,0-0.6,0c-16.7,0-30.2,13.5-30.2,30.2c0,16.7,13.5,30.2,30.2,30.2C408,803.8,421.5,790.3,421.5,773.7z"/>
	</g>
	<g>
		
			<ellipse transform="matrix(0.1602 -0.9871 0.9871 0.1602 -361.3671 1005.3257)" class="st4" cx="410.1" cy="715" rx="16.4" ry="16.4"/>
		<path class="st5" d="M408.7,700.1c9,0,16.4,7.3,16.4,16.4c0,4.2-1.6,8-4.1,10.8c3.4-3,5.5-7.4,5.5-12.2c0-9-7.3-16.4-16.4-16.4
			c-4.9,0-9.2,2.1-12.2,5.5C400.8,701.6,404.6,700.1,408.7,700.1z"/>
		<path class="st6" d="M426.5,715.7c0-0.1,0-0.2,0-0.3c-0.2,8.9-7.4,16-16.3,16c-9,0-16.4-7.3-16.4-16.4c0-8.9,7.1-16.2,16-16.3
			c-0.1,0-0.2,0-0.3,0c-9.4,0-17,7.6-17,17s7.6,17,17,17C418.9,732.7,426.5,725.1,426.5,715.7z"/>
	</g>
	<g>
		
			<ellipse transform="matrix(0.1602 -0.9871 0.9871 0.1602 -372.3964 1053.1881)" class="st4" cx="432.7" cy="745.4" rx="9.9" ry="9.9"/>
		<path class="st5" d="M431.9,736.4c5.5,0,9.9,4.4,9.9,9.9c0,2.5-0.9,4.8-2.5,6.6c2-1.8,3.3-4.5,3.3-7.4c0-5.5-4.4-9.9-9.9-9.9
			c-2.9,0-5.6,1.3-7.4,3.3C427.1,737.3,429.4,736.4,431.9,736.4z"/>
		<path class="st6" d="M442.6,745.8c0-0.1,0-0.1,0-0.2c-0.1,5.4-4.5,9.7-9.9,9.7c-5.5,0-9.9-4.4-9.9-9.9c0-5.4,4.3-9.8,9.7-9.9
			c-0.1,0-0.1,0-0.2,0c-5.7,0-10.3,4.6-10.3,10.3c0,5.7,4.6,10.3,10.3,10.3S442.6,751.5,442.6,745.8z"/>
	</g>
	<g>
		<circle class="st4" cx="487.5" cy="669.7" r="14.8"/>
		<path class="st5" d="M486.2,656.2c8.2,0,14.8,6.6,14.8,14.8c0,3.8-1.4,7.2-3.7,9.8c3.1-2.7,5-6.6,5-11c0-8.2-6.6-14.8-14.8-14.8
			c-4.4,0-8.3,1.9-11,5C479,657.6,482.5,656.2,486.2,656.2z"/>
		<path class="st6" d="M502.2,670.3c0-0.1,0-0.2,0-0.3c-0.2,8-6.7,14.5-14.8,14.5c-8.2,0-14.8-6.6-14.8-14.8
			c0-8.1,6.5-14.6,14.5-14.8c-0.1,0-0.2,0-0.3,0c-8.5,0-15.3,6.9-15.3,15.3c0,8.5,6.9,15.3,15.3,15.3
			C495.4,685.7,502.2,678.8,502.2,670.3z"/>
	</g>
	<g>
		<circle class="st4" cx="541.3" cy="703.3" r="12.4"/>
		<path class="st5" d="M540.3,692c6.8,0,12.4,5.5,12.4,12.4c0,3.1-1.2,6-3.1,8.2c2.6-2.3,4.2-5.6,4.2-9.3c0-6.8-5.5-12.4-12.4-12.4
			c-3.7,0-7,1.6-9.3,4.2C534.3,693.2,537.1,692,540.3,692z"/>
		<path class="st6" d="M553.7,703.8c0-0.1,0-0.2,0-0.2c-0.1,6.7-5.6,12.1-12.4,12.1c-6.8,0-12.4-5.5-12.4-12.4
			c0-6.7,5.4-12.2,12.1-12.4c-0.1,0-0.2,0-0.2,0c-7.1,0-12.9,5.8-12.9,12.9c0,7.1,5.8,12.9,12.9,12.9
			C547.9,716.7,553.7,710.9,553.7,703.8z"/>
	</g>
	<g>
		
			<ellipse transform="matrix(0.7071 -0.7071 0.7071 0.7071 -363.9691 483.3584)" class="st4" cx="401.5" cy="681" rx="8.3" ry="8.3"/>
		<path class="st5" d="M400.8,673.4c4.6,0,8.3,3.7,8.3,8.3c0,2.1-0.8,4.1-2.1,5.5c1.7-1.5,2.8-3.8,2.8-6.2c0-4.6-3.7-8.3-8.3-8.3
			c-2.5,0-4.7,1.1-6.2,2.8C396.7,674.2,398.6,673.4,400.8,673.4z"/>
		<path class="st6" d="M409.8,681.4c0-0.1,0-0.1,0-0.2c-0.1,4.5-3.8,8.2-8.3,8.2c-4.6,0-8.3-3.7-8.3-8.3c0-4.6,3.6-8.2,8.2-8.3
			c-0.1,0-0.1,0-0.2,0c-4.8,0-8.7,3.9-8.7,8.7s3.9,8.7,8.7,8.7C405.9,690,409.8,686.1,409.8,681.4z"/>
	</g>
	<path class="st7" d="M370.6,841.9h25.1h34.7c-9.5-13-17-27.5-22.3-43.1c-0.2-0.5-0.3-1-0.5-1.5c-5.1-15.6-7.8-32.2-7.8-49.4v-0.2
		c0-1.1,0-2.2,0-3.2c0.1-4.8,0.4-9.5,0.9-14.1c0.1-0.6,0.1-1.1,0.2-1.7c1.2-9.8,3.2-19.3,6.1-28.4c0.1-0.4,0.3-0.8,0.4-1.3
		c0,0,0,0,0,0c0,0,0,0,0,0c0,0,0-0.1,0-0.1c14.2-44.3,47.3-80.2,89.7-98.3c0,0,0,0,0,0c-1-0.1-2.1-0.2-3.1-0.2
		c-1-0.1-2.1-0.1-3.1-0.2c-1,0-1.9-0.1-2.9-0.1c-0.5,0-0.9,0-1.4,0c-0.7,0-1.3,0-2,0c-11.7,0-23.1,1.4-34,3.9
		c-0.6,0.1-1.2,0.3-1.8,0.4c-0.6,0.1-1.2,0.3-1.7,0.4c-0.2,0-0.4,0.1-0.6,0.2c-0.6,0.2-1.2,0.3-1.7,0.5c-0.6,0.2-1.2,0.3-1.7,0.5
		c-1,0.3-2,0.6-3,0.9c-1,0.3-2,0.6-3,1c-1,0.3-2,0.7-2.9,1c-3.9,1.4-7.7,3-11.4,4.7c-1.4,0.6-2.8,1.3-4.2,2
		c-1.8,0.9-3.6,1.9-5.4,2.9c-1.7,0.9-3.4,1.9-5,2.9c-0.7,0.4-1.3,0.8-2,1.2c-0.1,0.1-0.3,0.2-0.4,0.2c-0.3,0.2-0.5,0.3-0.8,0.5
		c-0.3,0.2-0.6,0.4-1,0.6c-0.4,0.3-0.8,0.6-1.3,0.8c-0.3,0.2-0.6,0.4-0.9,0.6c-0.3,0.2-0.6,0.4-0.9,0.6c-0.3,0.2-0.6,0.4-0.9,0.7
		c-1.1,0.8-2.3,1.6-3.4,2.4c-0.4,0.3-0.8,0.6-1.2,0.9c-0.4,0.3-0.8,0.6-1.2,0.9c-0.4,0.3-0.7,0.6-1.1,0.9c-0.4,0.3-0.9,0.7-1.3,1
		c-0.3,0.2-0.6,0.5-0.9,0.7c-1.4,1.1-2.8,2.3-4.1,3.5c-0.5,0.4-1,0.8-1.4,1.3c-1.3,1.2-2.6,2.4-3.9,3.7c-0.4,0.4-0.8,0.8-1.2,1.2
		c-0.4,0.4-0.9,0.9-1.3,1.3c-1.1,1.1-2.2,2.3-3.3,3.5c-0.3,0.3-0.5,0.6-0.8,0.8c-0.5,0.6-1,1.2-1.5,1.7c-0.4,0.4-0.7,0.9-1.1,1.3
		c-0.3,0.4-0.7,0.8-1,1.2c-0.5,0.6-0.9,1.1-1.4,1.7c-0.1,0.1-0.1,0.1-0.2,0.2c0,0-0.1,0.1-0.1,0.1c-0.7,0.8-1.3,1.6-1.9,2.4
		c-0.4,0.5-0.8,1-1.2,1.5c-0.9,1.2-1.8,2.4-2.7,3.7c-0.1,0.2-0.3,0.4-0.4,0.6c-0.9,1.3-1.8,2.6-2.6,3.9c-0.2,0.3-0.5,0.7-0.7,1.1
		c-0.2,0.3-0.5,0.7-0.7,1.1c-0.3,0.6-0.7,1.1-1,1.7c-1.1,1.8-2.2,3.7-3.2,5.6c-0.2,0.3-0.4,0.7-0.6,1c-0.2,0.4-0.4,0.8-0.7,1.3
		c-0.2,0.4-0.4,0.8-0.7,1.3c-0.2,0.3-0.3,0.6-0.4,0.9c-0.3,0.5-0.5,1.1-0.8,1.6c-0.3,0.5-0.5,1.1-0.8,1.7c-0.2,0.5-0.5,1-0.7,1.5
		c-0.3,0.5-0.5,1.1-0.7,1.6c-0.2,0.4-0.4,0.8-0.6,1.2c-0.2,0.4-0.4,0.9-0.6,1.3c-0.2,0.5-0.4,0.9-0.6,1.4c-0.5,1.2-1,2.5-1.5,3.7
		c-0.2,0.6-0.5,1.2-0.7,1.9c-0.3,0.7-0.5,1.5-0.8,2.2c-0.1,0.4-0.3,0.7-0.4,1.1c0,0.1,0,0.1-0.1,0.2c-0.2,0.6-0.4,1.1-0.6,1.7
		c-0.2,0.5-0.3,0.9-0.4,1.4c-0.1,0.2-0.1,0.4-0.2,0.7c-0.1,0.5-0.3,1-0.4,1.4c-0.2,0.6-0.4,1.3-0.6,1.9c-0.1,0.5-0.3,1-0.4,1.5
		c-0.1,0.3-0.2,0.5-0.2,0.8c-0.1,0.3-0.1,0.5-0.2,0.8c0,0.1,0,0.2-0.1,0.2c-0.1,0.5-0.3,1.1-0.4,1.6c-0.1,0.6-0.3,1.2-0.4,1.7
		c-0.2,0.9-0.4,1.9-0.6,2.8c-0.1,0.4-0.2,0.9-0.3,1.3c0,0.1,0,0.1,0,0.2c-0.1,0.5-0.2,0.9-0.3,1.4c-0.1,0.5-0.2,1-0.3,1.5
		c-0.1,0.7-0.2,1.3-0.3,2c-0.1,0.4-0.1,0.8-0.2,1.2c-0.1,0.3-0.1,0.7-0.2,1c0,0.1,0,0.1,0,0.2c0,0.3-0.1,0.6-0.1,0.9
		c-0.1,0.9-0.2,1.8-0.4,2.7c-0.1,0.6-0.1,1.2-0.2,1.8c0,0.2-0.1,0.5-0.1,0.7c0,0.2-0.1,0.5-0.1,0.7c0,0.4-0.1,0.8-0.1,1.2
		c-0.1,0.8-0.1,1.6-0.2,2.4c0,0.3,0,0.6-0.1,0.8c0,0.4-0.1,0.8-0.1,1.2c-0.2,2.5-0.3,5-0.3,7.6c0,0.6,0,1.3,0,1.9c0,0.6,0,1.3,0,1.9
		c0,0.5,0,0.9,0,1.4c0,0.4,0,0.9,0,1.3c0,0.5,0,1,0.1,1.5c0,0.4,0,0.8,0.1,1.2c0,0.8,0.1,1.5,0.1,2.3c0,0.3,0,0.6,0.1,0.9
		c0.1,1.8,0.3,3.6,0.5,5.4c0,0.4,0.1,0.7,0.1,1.1c0.1,0.6,0.1,1.2,0.2,1.8c0,0.3,0.1,0.6,0.1,0.9c0.1,0.4,0.1,0.8,0.2,1.3
		c0.1,0.4,0.1,0.8,0.2,1.3c0,0.3,0.1,0.7,0.2,1c0.1,0.4,0.1,0.8,0.2,1.2c0.1,0.4,0.1,0.9,0.2,1.3c0.1,0.7,0.2,1.3,0.4,1.9
		c0.1,0.6,0.2,1.1,0.3,1.7c0.1,0.5,0.2,1,0.3,1.4c0.1,0.4,0.2,0.8,0.2,1.1c0.3,1.2,0.5,2.4,0.8,3.6c0.1,0.5,0.2,0.9,0.4,1.4
		c0.2,0.7,0.4,1.4,0.5,2c0.1,0.5,0.3,0.9,0.4,1.4c0.2,0.6,0.3,1.1,0.5,1.7c0.1,0.3,0.2,0.7,0.3,1c0.2,0.7,0.5,1.5,0.7,2.2
		c0.2,0.5,0.3,1,0.5,1.5c0.1,0.2,0.1,0.4,0.2,0.7c0.2,0.6,0.4,1.2,0.6,1.7c0.2,0.5,0.3,0.9,0.5,1.4c0.1,0.3,0.2,0.7,0.4,1
		c0.2,0.4,0.3,0.8,0.5,1.2c0.6,1.7,1.3,3.3,2,4.9c0.1,0.3,0.3,0.6,0.4,0.9c0.2,0.4,0.4,0.9,0.6,1.3c0.3,0.6,0.6,1.2,0.8,1.8
		c0.5,1,1,2.1,1.5,3.1c0.3,0.6,0.6,1.3,1,1.9c0.7,1.4,1.4,2.7,2.1,4.1c0.5,0.9,1,1.8,1.5,2.7c0,0,0,0,0,0c0.5,0.9,1,1.7,1.5,2.6
		c0.4,0.6,0.7,1.2,1.1,1.8c0.1,0.1,0.1,0.2,0.2,0.3c0.4,0.6,0.7,1.2,1.1,1.8c0.5,0.7,0.9,1.4,1.4,2.2c0.4,0.5,0.7,1.1,1.1,1.6
		c1.4,2.1,2.9,4.1,4.5,6.2c0.6,0.8,1.2,1.6,1.9,2.4c0.3,0.4,0.6,0.8,1,1.2C370.3,841.6,370.5,841.8,370.6,841.9L370.6,841.9z"/>
	<path class="st7" d="M374.1,798.5c5,15.6,12.3,30.2,21.5,43.4h-25.1c-0.1-0.1-0.2-0.3-0.3-0.4c-0.3-0.4-0.7-0.8-1-1.2
		c-0.6-0.8-1.3-1.6-1.9-2.4c-1.6-2-3-4.1-4.5-6.2c-0.4-0.5-0.7-1.1-1.1-1.6c-0.5-0.7-1-1.4-1.4-2.2c-0.4-0.6-0.7-1.2-1.1-1.8
		c-0.1-0.1-0.1-0.2-0.2-0.3c-0.4-0.6-0.8-1.2-1.1-1.8c-0.5-0.9-1-1.7-1.5-2.6c0,0,0,0,0,0c-0.5-0.9-1-1.8-1.5-2.7
		c-0.7-1.3-1.4-2.7-2.1-4.1c-0.3-0.6-0.6-1.3-1-1.9c-0.5-1-1-2-1.5-3.1c-0.3-0.6-0.6-1.2-0.8-1.8c-0.2-0.4-0.4-0.9-0.6-1.3
		c-0.1-0.3-0.3-0.6-0.4-0.9c-0.7-1.6-1.4-3.3-2-4.9c-0.2-0.4-0.3-0.8-0.5-1.2c-0.1-0.3-0.3-0.7-0.4-1c-0.2-0.5-0.3-0.9-0.5-1.4
		c-0.2-0.6-0.4-1.2-0.6-1.7c-0.1-0.2-0.2-0.4-0.2-0.7c-0.2-0.5-0.3-1-0.5-1.5c-0.2-0.7-0.5-1.5-0.7-2.2c-0.1-0.3-0.2-0.7-0.3-1
		c-0.2-0.6-0.3-1.1-0.5-1.7c-0.1-0.5-0.3-0.9-0.4-1.4c-0.2-0.7-0.4-1.4-0.5-2c-0.1-0.5-0.2-0.9-0.4-1.4c-0.3-1.2-0.6-2.4-0.8-3.6
		c-0.1-0.4-0.2-0.7-0.2-1.1c-0.1-0.5-0.2-1-0.3-1.4c-0.1-0.6-0.2-1.1-0.3-1.7c-0.1-0.6-0.2-1.3-0.4-1.9c-0.1-0.4-0.2-0.9-0.2-1.3
		c-0.1-0.4-0.1-0.8-0.2-1.2c-0.1-0.3-0.1-0.7-0.2-1c-0.1-0.4-0.1-0.8-0.2-1.3c-0.1-0.4-0.1-0.8-0.2-1.3c0-0.3-0.1-0.6-0.1-0.9
		c-0.1-0.6-0.2-1.2-0.2-1.8c0-0.4-0.1-0.7-0.1-1.1c-0.2-1.8-0.4-3.6-0.5-5.4c0-0.3,0-0.6-0.1-0.9c-0.1-0.8-0.1-1.5-0.1-2.3
		c0-0.4,0-0.8-0.1-1.2c0-0.5,0-1-0.1-1.5c0-0.4,0-0.9,0-1.3c0-0.5,0-0.9,0-1.4c0-0.6,0-1.3,0-1.9c0-0.6,0-1.3,0-1.9
		c0-2.5,0.1-5.1,0.3-7.6c0-0.4,0.1-0.8,0.1-1.2c0-0.3,0-0.6,0.1-0.8c0.1-0.8,0.1-1.6,0.2-2.4c0-0.4,0.1-0.8,0.1-1.2
		c0-0.2,0-0.5,0.1-0.7c0-0.2,0.1-0.5,0.1-0.7c0.1-0.6,0.1-1.2,0.2-1.8c0.1-0.9,0.2-1.8,0.4-2.7c0-0.3,0.1-0.6,0.1-0.9
		c0-0.1,0-0.1,0-0.2c0-0.3,0.1-0.7,0.2-1c0.1-0.4,0.1-0.8,0.2-1.2c0.1-0.7,0.2-1.3,0.3-2c0.1-0.5,0.2-1,0.3-1.5
		c0.1-0.5,0.2-0.9,0.3-1.4c0-0.1,0-0.1,0-0.2c0.1-0.4,0.2-0.9,0.3-1.3c0.2-0.9,0.4-1.9,0.6-2.8c0.1-0.6,0.3-1.2,0.4-1.7
		c0.1-0.5,0.3-1.1,0.4-1.6c0-0.1,0-0.2,0.1-0.2c0.1-0.3,0.1-0.5,0.2-0.8c0.1-0.3,0.1-0.5,0.2-0.8c0.1-0.5,0.3-1,0.4-1.5
		c0.2-0.6,0.4-1.3,0.6-1.9c0.1-0.5,0.3-1,0.4-1.4c0.1-0.2,0.1-0.4,0.2-0.7c0.1-0.5,0.3-0.9,0.4-1.4c0.2-0.6,0.4-1.1,0.6-1.7
		c0-0.1,0-0.1,0.1-0.2c0.1-0.4,0.2-0.7,0.4-1.1c0.3-0.7,0.5-1.5,0.8-2.2c0.2-0.6,0.5-1.2,0.7-1.9c0.5-1.3,1-2.5,1.5-3.7
		c0.2-0.5,0.4-0.9,0.6-1.4c0.2-0.4,0.4-0.9,0.6-1.3c0.2-0.4,0.4-0.8,0.6-1.2c0.2-0.5,0.5-1.1,0.7-1.6c0.2-0.5,0.5-1,0.7-1.5
		c0.3-0.6,0.5-1.1,0.8-1.7c0.3-0.5,0.5-1.1,0.8-1.6c0.1-0.3,0.3-0.6,0.4-0.9c0.2-0.4,0.4-0.8,0.7-1.3c0.2-0.4,0.4-0.8,0.7-1.3
		c0.2-0.3,0.4-0.7,0.6-1c1-1.9,2.1-3.8,3.2-5.6c0.3-0.6,0.7-1.1,1-1.7c0.2-0.4,0.4-0.7,0.7-1.1c0.2-0.4,0.5-0.7,0.7-1.1
		c0.9-1.3,1.7-2.6,2.6-3.9c0.1-0.2,0.3-0.4,0.4-0.6c0.9-1.2,1.8-2.5,2.7-3.7c0.4-0.5,0.8-1,1.2-1.5c0.6-0.8,1.3-1.6,1.9-2.4
		c0,0,0.1-0.1,0.1-0.1c0.1-0.1,0.1-0.1,0.2-0.2c0.5-0.6,0.9-1.1,1.4-1.7c0.3-0.4,0.7-0.8,1-1.2c0.4-0.4,0.7-0.9,1.1-1.3
		c0.5-0.6,1-1.2,1.5-1.7c0.3-0.3,0.5-0.6,0.8-0.8c1.1-1.2,2.2-2.3,3.3-3.5c0.4-0.5,0.9-0.9,1.3-1.3c0.4-0.4,0.8-0.8,1.2-1.2
		c1.3-1.2,2.6-2.5,3.9-3.7c0.5-0.4,0.9-0.9,1.4-1.3c1.3-1.2,2.7-2.4,4.1-3.5c0.3-0.2,0.6-0.5,0.9-0.7c0.4-0.3,0.9-0.7,1.3-1
		c0.4-0.3,0.7-0.6,1.1-0.9c0.4-0.3,0.8-0.6,1.2-0.9c0.4-0.3,0.8-0.6,1.2-0.9c1.1-0.8,2.2-1.6,3.4-2.4c0.3-0.2,0.6-0.4,0.9-0.7
		c0.3-0.2,0.6-0.4,0.9-0.6c0.3-0.2,0.6-0.4,0.9-0.6c0.4-0.3,0.8-0.6,1.3-0.8c0.3-0.2,0.6-0.4,1-0.6c0.3-0.2,0.5-0.3,0.8-0.5
		c0.1-0.1,0.3-0.2,0.4-0.2c0.6-0.4,1.3-0.8,2-1.2c1.7-1,3.3-2,5-2.9c1.8-1,3.6-1.9,5.4-2.9c1.4-0.7,2.8-1.4,4.2-2
		c3.7-1.7,7.5-3.3,11.4-4.7c1-0.3,1.9-0.7,2.9-1c1-0.3,2-0.7,3-1c1-0.3,2-0.6,3-0.9c0.6-0.2,1.2-0.3,1.7-0.5
		c0.6-0.2,1.2-0.3,1.7-0.5c0.2-0.1,0.4-0.1,0.6-0.2c0.6-0.2,1.2-0.3,1.7-0.4c0.6-0.2,1.2-0.3,1.8-0.4c0,0,0,0,0,0
		c-50.4,28.2-84.4,82.1-84.4,143.9c0,2.9,0.1,5.9,0.2,8.8c0,0.9,0.1,1.8,0.2,2.7c0,0,0,0,0,0v0c0.8,11.9,2.9,23.4,6.1,34.4
		C373.1,795.3,373.6,796.9,374.1,798.5L374.1,798.5z"/>
</g>
<g class="st1">
	<path class="st2" d="M211-9.9c0,1.6-1.3,2.9-2.9,2.9c-1.6,0-2.9-1.3-2.9-2.9s1.3-2.9,2.9-2.9C209.7-12.9,211-11.5,211-9.9z"/>
	<path class="st2" d="M590,123.7c0,1.6-1.3,2.9-2.9,2.9s-2.9-1.3-2.9-2.9s1.3-2.9,2.9-2.9S590,122.1,590,123.7z"/>
	<path class="st2" d="M581.9,54.1c0,1.6-1.3,2.9-2.9,2.9c-1.6,0-2.9-1.3-2.9-2.9s1.3-2.9,2.9-2.9C580.6,51.2,581.9,52.5,581.9,54.1z
		"/>
	<path class="st2" d="M561.9,175.7c0,1.6-1.3,2.9-2.9,2.9c-1.6,0-2.9-1.3-2.9-2.9c0-1.6,1.3-2.9,2.9-2.9
		C560.6,172.7,561.9,174,561.9,175.7z"/>
	<path class="st2" d="M422.2,217.7c0,1.6-1.3,2.9-2.9,2.9c-1.6,0-2.9-1.3-2.9-2.9c0-1.6,1.3-2.9,2.9-2.9
		C420.9,214.7,422.2,216,422.2,217.7z"/>
	<path class="st2" d="M193.2,115.5c0,1.6-1.3,2.9-2.9,2.9c-1.6,0-2.9-1.3-2.9-2.9s1.3-2.9,2.9-2.9
		C191.9,112.6,193.2,113.9,193.2,115.5z"/>
	<path class="st2" d="M126.7,243.5c0,1.6-1.3,2.9-2.9,2.9c-1.6,0-2.9-1.3-2.9-2.9c0-1.6,1.3-2.9,2.9-2.9
		C125.4,240.6,126.7,241.9,126.7,243.5z"/>
	<path class="st2" d="M129.6,151.9c0,1.6-1.3,2.9-2.9,2.9c-1.6,0-2.9-1.3-2.9-2.9c0-1.6,1.3-2.9,2.9-2.9
		C128.3,149,129.6,150.3,129.6,151.9z"/>
	<path class="st2" d="M50.2,117.4c0,1.6-1.3,2.9-2.9,2.9c-1.6,0-2.9-1.3-2.9-2.9s1.3-2.9,2.9-2.9C48.9,114.4,50.2,115.7,50.2,117.4z
		"/>
	<circle class="st2" cx="90.9" cy="86.1" r="2.9"/>
	<path class="st2" d="M108.3-4.1c0,1.6-1.3,2.9-2.9,2.9c-1.6,0-2.9-1.3-2.9-2.9s1.3-2.9,2.9-2.9C107-7,108.3-5.7,108.3-4.1z"/>
	<circle class="st2" cx="423.1" cy="38.9" r="2.9"/>
	<path class="st2" d="M523.1,11.5c0,1.6-1.3,2.9-2.9,2.9s-2.9-1.3-2.9-2.9c0-1.6,1.3-2.9,2.9-2.9S523.1,9.9,523.1,11.5z"/>
	<path class="st2" d="M286.3,38.9c0,1.6-1.3,2.9-2.9,2.9s-2.9-1.3-2.9-2.9s1.3-2.9,2.9-2.9S286.3,37.3,286.3,38.9z"/>
	<path class="st2" d="M504.4,210.7c0,1.6-1.3,2.9-2.9,2.9c-1.6,0-2.9-1.3-2.9-2.9c0-1.6,1.3-2.9,2.9-2.9
		C503.1,207.8,504.4,209.1,504.4,210.7z"/>
</g>
<g class="st1">
	<path class="st2" d="M327.9,230.6c0,1.6-1.3,2.9-2.9,2.9s-2.9-1.3-2.9-2.9c0-1.6,1.3-2.9,2.9-2.9S327.9,229,327.9,230.6z"/>
	<path class="st2" d="M706.8,364.2c0,1.6-1.3,2.9-2.9,2.9c-1.6,0-2.9-1.3-2.9-2.9c0-1.6,1.3-2.9,2.9-2.9
		C705.5,361.2,706.8,362.6,706.8,364.2z"/>
	<path class="st2" d="M698.7,294.6c0,1.6-1.3,2.9-2.9,2.9c-1.6,0-2.9-1.3-2.9-2.9c0-1.6,1.3-2.9,2.9-2.9
		C697.4,291.7,698.7,293,698.7,294.6z"/>
	<path class="st2" d="M678.7,416.2c0,1.6-1.3,2.9-2.9,2.9c-1.6,0-2.9-1.3-2.9-2.9c0-1.6,1.3-2.9,2.9-2.9
		C677.4,413.2,678.7,414.5,678.7,416.2z"/>
	<path class="st2" d="M539,458.2c0,1.6-1.3,2.9-2.9,2.9c-1.6,0-2.9-1.3-2.9-2.9c0-1.6,1.3-2.9,2.9-2.9
		C537.7,455.2,539,456.5,539,458.2z"/>
	<path class="st2" d="M310.1,356c0,1.6-1.3,2.9-2.9,2.9s-2.9-1.3-2.9-2.9s1.3-2.9,2.9-2.9S310.1,354.4,310.1,356z"/>
	<path class="st2" d="M243.5,484c0,1.6-1.3,2.9-2.9,2.9c-1.6,0-2.9-1.3-2.9-2.9c0-1.6,1.3-2.9,2.9-2.9
		C242.2,481.1,243.5,482.4,243.5,484z"/>
	<path class="st2" d="M246.4,392.4c0,1.6-1.3,2.9-2.9,2.9c-1.6,0-2.9-1.3-2.9-2.9c0-1.6,1.3-2.9,2.9-2.9
		C245.1,389.4,246.4,390.8,246.4,392.4z"/>
	<path class="st2" d="M167,357.8c0,1.6-1.3,2.9-2.9,2.9c-1.6,0-2.9-1.3-2.9-2.9s1.3-2.9,2.9-2.9C165.7,354.9,167,356.2,167,357.8z"
		/>
	<circle class="st2" cx="207.7" cy="326.6" r="2.9"/>
	<path class="st2" d="M225.1,236.4c0,1.6-1.3,2.9-2.9,2.9c-1.6,0-2.9-1.3-2.9-2.9c0-1.6,1.3-2.9,2.9-2.9
		C223.8,233.5,225.1,234.8,225.1,236.4z"/>
	<circle class="st2" cx="539.9" cy="279.4" r="2.9"/>
	<path class="st2" d="M639.9,252c0,1.6-1.3,2.9-2.9,2.9c-1.6,0-2.9-1.3-2.9-2.9c0-1.6,1.3-2.9,2.9-2.9
		C638.6,249.1,639.9,250.4,639.9,252z"/>
	<path class="st2" d="M403.1,279.4c0,1.6-1.3,2.9-2.9,2.9c-1.6,0-2.9-1.3-2.9-2.9c0-1.6,1.3-2.9,2.9-2.9
		C401.8,276.5,403.1,277.8,403.1,279.4z"/>
	<path class="st2" d="M621.2,451.2c0,1.6-1.3,2.9-2.9,2.9s-2.9-1.3-2.9-2.9c0-1.6,1.3-2.9,2.9-2.9S621.2,449.6,621.2,451.2z"/>
</g>
<g>
</g>
<g>
</g>
<g>
</g>
<g>
</g>
<g>
</g>
<g>
</g>
</svg>
