<?xml version="1.0" encoding="utf-8"?>
<!-- Generator: Adobe Illustrator 22.1.0, SVG Export Plug-In . SVG Version: 6.00 Build 0)  -->
<svg version="1.1" id="Calque_1" xmlns="http://www.w3.org/2000/svg" xmlns:xlink="http://www.w3.org/1999/xlink" x="0px" y="0px"
	 viewBox="0 0 5000 3000" style="enable-background:new 0 0 5000 3000;" xml:space="preserve">
<style type="text/css">
	.st0{fill:url(#SVGID_1_);}
	.st1{fill:#EDEDF0;}
	.st2{opacity:0.5;}
	.st3{fill:#155277;}
	.st4{fill:url(#SVGID_2_);}
	.st5{display:none;fill:url(#SVGID_3_);}
	.st6{fill:#FF8A8A;}
	.st7{fill:#FAFBFB;}
	.st8{fill:#E0E0E0;}
	.st9{fill:#BDBDBD;}
	.st10{fill:#F5F5F5;}
	.st11{opacity:0.1;fill:#212121;}
</style>
<linearGradient id="SVGID_1_" gradientUnits="userSpaceOnUse" x1="0" y1="1500" x2="4999.5313" y2="1500">
	<stop  offset="0" style="stop-color:#FFFFFF"/>
	<stop  offset="0" style="stop-color:#30CFD0"/>
	<stop  offset="1" style="stop-color:#330867"/>
</linearGradient>
<rect class="st0" width="4999.5" height="3000"/>
<g>
	<g>
		<path class="st1" d="M2629.8,914.5c-28.9,3-56.9,8.8-83.9,17l-163.3-536.9L2173.7,416c-13.5-17.9-35-28.5-58.1-26.2
			c-36.5,3.7-63.2,38.3-59.8,77.2c3.5,38.9,35.9,67.5,72.4,63.7c23.1-2.4,42.2-17.1,52.3-37.4l150.7-15.4l49.2,161.7
			c-0.6,4-1.5,9.5-2.7,16.3c-41.6,82.8-237.9,431.4-618.3,495.7l-220.8-511.9c6.3-1.3,12.7-2.5,19.2-3.8
			c232.3-46.4,172.1-125.3,172.1-125.3l-426.4,43.6c-21.8,2.2-37.9,22.9-35.8,46.2l4.1,46.1c2.2,24.9,24,42.3,47,37.6
			c28.6-5.9,74.5-15.2,145.9-29.6l135.8,315l-130.1,167.3c-84-56.5-185.5-85-292-74.1c-255.6,26.1-443,268.3-418.5,541
			c24.5,272.7,251.6,472.6,507.2,446.5c250.8-25.6,435.7-259.2,419.5-525.5l60-6.1c21.9,63,81.2,105.2,146.9,98.4
			c78.2-8,135.6-82.1,128.1-165.6c-3.1-34-16.5-64.1-36.5-87.6c275-161.6,390.9-422.5,438.1-583l54.1,177.8
			c-173.4,86.3-285.5,282.1-266.2,496.8c24.5,272.7,251.6,472.6,507.2,446.5c255.6-26.1,443-268.4,418.5-541
			C3112.5,1088.2,2885.4,888.4,2629.8,914.5z M1772.2,1367.2c-16.7,20.8-28,46.2-32.3,74l-63.4,6.5
			c-22.1-105.3-75-196.7-147.4-264.3l105.3-135.6L1772.2,1367.2z M1229.2,1625.8c-35.8,3.7-67.8-24.5-71.2-62.7
			c-3.4-38.2,22.9-72.3,58.8-76c35.8-3.7,67.8,24.5,71.2,62.7C1291.4,1588.1,1265,1622.2,1229.2,1625.8z M1465.5,1265.3
			c27.5,26.1,51.4,56.5,70.6,90.5L1330,1483.1l-29.5,3l0.2,2.1c-1.4-1.8-2.9-3.5-4.4-5.2L1465.5,1265.3z M1358.4,1480.2l183.6-113.4
			c14.8,28.3,26.3,58.8,34.2,91.1L1358.4,1480.2z M1406.3,1219.6L1263,1404l50.1-225.2C1346.1,1187.8,1377.4,1201.6,1406.3,1219.6z
			 M1219.3,1449.1l-25.2-280.9c36.9-3.1,73-0.3,107.5,7.8l-55.6,250.1l-16.5,21.3l2.6,2.3c-6.1-0.6-12.3-0.9-18.7-0.2
			C1215.3,1449.1,1217.3,1449.1,1219.3,1449.1z M1182.2,1169.4l25.2,280.9c-10.6,1.8-20.6,5.2-29.8,10.2l-132.6-244.3
			C1086.3,1191.6,1132.5,1175.3,1182.2,1169.4z M1034.8,1222.4l132.6,244.3c-8.6,6.1-16.3,13.5-22.7,22c0,0,0,0,0,0l-214.9-164.6
			C958.1,1283.5,993.7,1248.8,1034.8,1222.4z M922.9,1334.4l214.9,164.6c0,0,0,0,0,0c-6,10-10.4,21.1-13,32.9c0.5-2.2,1-4.3,1.6-6.4
			l-257.5-65.2C879.8,1414.8,898.2,1372.3,922.9,1334.4z M866.2,1472.7l257.5,65.2c-1.5,9.3-2.1,19-1.2,28.9
			c-0.2-2.1-0.2-4.2-0.3-6.3l-263.3,26.9C856,1547.9,858.6,1509.4,866.2,1472.7z M860,1599.9l263.3-26.9c1.7,11.3,4.9,22,9.5,31.8
			l-229,141.4C880.9,1702.3,865.6,1652.9,860,1599.9z M909.8,1757.2l229-141.4c-1.2-1.9-2.3-3.9-3.4-5.9c6.2,11.6,14.4,21.8,24,30.2
			l-154.3,229.3C967,1839.1,934.5,1801.1,909.8,1757.2z M1014.8,1876.6l154.3-229.3l0,0c9.4,6.4,19.8,11.1,30.8,13.9
			c-2-0.5-4-1-6-1.7l-61.1,274.6C1090.1,1922.6,1050.3,1902.9,1014.8,1876.6z M1226.6,1663.9l25.2,280.9c-36.9,3.1-73,0.3-107.5-7.8
			l61.1-274.7l0,0c8.8,1.6,17.8,2.2,27.1,1.2C1230.6,1663.9,1228.6,1663.9,1226.6,1663.9z M1263.7,1943.6l-25.2-280.9
			c10.6-1.8,20.6-5.2,29.8-10.2l132.6,244.3C1359.6,1921.4,1313.3,1937.7,1263.7,1943.6z M1411.1,1890.6l-132.6-244.3
			c8.6-6.1,16.3-13.5,22.7-22c0,0,0,0,0,0l214.9,164.6C1487.8,1829.5,1452.2,1864.2,1411.1,1890.6z M1523,1778.6l-214.9-164.6
			c6-10,10.4-21.1,13-32.9c-0.5,2.2-1,4.3-1.6,6.4l257.5,65.2C1566.1,1698.2,1547.7,1740.7,1523,1778.6z M1579.7,1640.3l-257.5-65.2
			c0.7-4.4,1.2-8.8,1.4-13.3l263.7-26.9C1589.3,1571.1,1586.7,1606.5,1579.7,1640.3z M1910.5,1317.6c-14.1-3.3-28.8-4.4-43.9-2.8
			c-11.6,1.2-22.7,4-33.3,7.9l-42.1-97.7c226.2-43.9,389.1-177,496.7-301.8C2219.8,1060.9,2104.3,1216.7,1910.5,1317.6z
			 M3037.1,1364.8l-263.3,26.9c-1.7-11.3-4.9-22-9.5-31.8l229-141.4C3016.2,1262.4,3031.5,1311.8,3037.1,1364.8z M2987.3,1207.5
			l-229,141.4c1.2,1.9,2.3,3.9,3.4,5.9c-6.2-11.6-14.4-21.8-24-30.2l154.3-229.3C2930.1,1125.6,2962.6,1163.7,2987.3,1207.5z
			 M2882.3,1088.1L2728,1317.4c-9.4-6.4-19.8-11.1-30.8-13.9c2,0.5,4,1,6,1.7l61.1-274.7C2807,1042.1,2846.8,1061.8,2882.3,1088.1z
			 M2680.4,1477.6c-35.8,3.7-67.8-24.5-71.2-62.7c-3.4-38.2,22.9-72.3,58.8-76c35.8-3.7,67.8,24.5,71.2,62.7
			C2742.6,1439.8,2716.2,1473.9,2680.4,1477.6z M2670.5,1300.8l-25.2-280.9c36.9-3.1,73-0.3,107.5,7.8l-61.1,274.7
			c-8.8-1.6-17.8-2.2-27.1-1.2C2666.5,1300.9,2668.5,1300.9,2670.5,1300.8z M2633.4,1021.1l25.2,280.9c0,0-0.1,0-0.1,0l-81.9-269.2
			C2595,1027.4,2613.9,1023.4,2633.4,1021.1z M2529.1,1128.2l-32.8-60.4c4-2.4,8.2-4.7,12.3-6.9L2529.1,1128.2z M2486,1074.1
			l60.6,111.6l42.9,141.1l28.3-9.8l0.8,1.4c-8.6,6.1-16.3,13.5-22.7,22c0,0,0,0,0,0l-214.9-164.6
			C2409.3,1135.2,2444.9,1100.5,2486,1074.1z M2374.1,1186.2l214.9,164.6c0,0,0,0,0,0c-6,10-10.4,21.1-13,32.9
			c0.5-2.2,1-4.3,1.6-6.4l-257.5-65.2C2331,1266.6,2349.4,1224,2374.1,1186.2z M2317.4,1324.4l257.5,65.2c-1.5,9.3-2.1,19-1.2,28.9
			c-0.2-2.1-0.2-4.2-0.3-6.3l-263.3,26.9C2307.2,1399.7,2309.8,1361.2,2317.4,1324.4z M2311.2,1451.7l263.3-26.9
			c1.7,11.3,4.9,22,9.5,31.8l-229,141.4C2332.1,1554,2316.8,1504.7,2311.2,1451.7z M2361,1608.9l229-141.4c-1.2-1.9-2.3-3.9-3.4-5.9
			c6.2,11.6,14.4,21.8,24,30.2L2456.3,1721C2418.2,1690.8,2385.7,1652.8,2361,1608.9z M2466,1728.3l154.3-229.3l0,0
			c9.4,6.4,19.8,11.1,30.8,13.9c-2-0.5-4-1-6-1.7l-61.1,274.6C2541.3,1774.3,2501.5,1754.6,2466,1728.3z M2677.8,1515.7l25.2,280.9
			c-36.9,3.1-73,0.3-107.5-7.8l61.1-274.7l0,0c8.8,1.6,17.8,2.2,27.1,1.2C2681.8,1515.6,2679.8,1515.6,2677.8,1515.7z
			 M2714.9,1795.4l-25.2-280.9c10.6-1.8,20.6-5.2,29.8-10.2l132.6,244.3C2810.8,1773.1,2764.5,1789.4,2714.9,1795.4z M2862.3,1742.3
			L2729.7,1498c8.6-6.1,16.3-13.5,22.7-22c0,0,0,0,0,0l214.9,164.6C2939,1681.2,2903.4,1715.9,2862.3,1742.3z M2974.2,1630.3
			l-214.9-164.6c6-10,10.4-21.1,13-32.9c-0.5,2.2-1,4.3-1.6,6.4l257.5,65.2C3017.3,1549.9,2998.9,1592.4,2974.2,1630.3z
			 M3030.9,1492l-257.5-65.2c1.5-9.3,2.1-19,1.2-28.9c0.2,2.1,0.2,4.2,0.3,6.3l263.3-26.9C3041.1,1416.8,3038.5,1455.3,3030.9,1492z
			"/>
		<polygon class="st1" points="2829,742.4 2796.3,377.5 2441.5,503.7 2568.7,813.6 		"/>
	</g>
</g>
<g class="st2">
	<path class="st3" d="M1553.3,252.2c0,10.8-8.2,19.5-18.3,19.5s-18.3-8.7-18.3-19.5s8.2-19.5,18.3-19.5S1553.3,241.4,1553.3,252.2z"
		/>
	<path class="st3" d="M3925.2,1144.3c0,10.8-8.2,19.5-18.3,19.5c-10.1,0-18.3-8.7-18.3-19.5s8.2-19.5,18.3-19.5
		C3917,1124.8,3925.2,1133.6,3925.2,1144.3z"/>
	<path class="st3" d="M3874.8,679.8c0,10.8-8.2,19.5-18.3,19.5s-18.3-8.7-18.3-19.5s8.2-19.5,18.3-19.5S3874.8,669.1,3874.8,679.8z"
		/>
	<path class="st3" d="M3749.5,1491.4c0,10.8-8.2,19.5-18.3,19.5s-18.3-8.7-18.3-19.5s8.2-19.5,18.3-19.5
		S3749.5,1480.7,3749.5,1491.4z"/>
	<path class="st3" d="M2875,1771.9c0,10.8-8.2,19.5-18.3,19.5s-18.3-8.7-18.3-19.5c0-10.8,8.2-19.5,18.3-19.5
		S2875,1761.1,2875,1771.9z"/>
	<path class="st3" d="M4285.5,1407.3c0,10.8-8.2,19.5-18.3,19.5s-18.3-8.7-18.3-19.5s8.2-19.5,18.3-19.5
		S4285.5,1396.5,4285.5,1407.3z"/>
	<path class="st3" d="M1442,1089.6c0,10.8-8.2,19.5-18.3,19.5s-18.3-8.7-18.3-19.5s8.2-19.5,18.3-19.5S1442,1078.9,1442,1089.6z"/>
	<path class="st3" d="M1025.2,1944.6c0,10.8-8.2,19.5-18.3,19.5c-10.1,0-18.3-8.7-18.3-19.5s8.2-19.5,18.3-19.5
		C1017,1925.1,1025.2,1933.8,1025.2,1944.6z"/>
	<path class="st3" d="M345.9,1619.5c0,10.8-8.2,19.5-18.3,19.5c-10.1,0-18.3-8.7-18.3-19.5s8.2-19.5,18.3-19.5
		C337.8,1600,345.9,1608.8,345.9,1619.5z"/>
	<path class="st3" d="M1043.5,1332.6c0,10.8-8.2,19.5-18.3,19.5c-10.1,0-18.3-8.7-18.3-19.5s8.2-19.5,18.3-19.5
		C1035.3,1313.1,1043.5,1321.9,1043.5,1332.6z"/>
	<path class="st3" d="M546.5,1102.1c0,10.8-8.2,19.5-18.3,19.5c-10.1,0-18.3-8.7-18.3-19.5s8.2-19.5,18.3-19.5
		C538.4,1082.6,546.5,1091.3,546.5,1102.1z"/>
	<ellipse class="st3" cx="801.3" cy="893.3" rx="18.3" ry="19.5"/>
	<path class="st3" d="M910,291.2c0,10.8-8.2,19.5-18.3,19.5c-10.1,0-18.3-8.7-18.3-19.5s8.2-19.5,18.3-19.5
		C901.8,271.7,910,280.4,910,291.2z"/>
	<path class="st3" d="M327.7,395.6c0,10.8-8.2,19.5-18.3,19.5s-18.3-8.7-18.3-19.5c0-10.8,8.2-19.5,18.3-19.5
		S327.7,384.8,327.7,395.6z"/>
	<ellipse class="st3" cx="2880.6" cy="578.5" rx="18.3" ry="19.5"/>
	<path class="st3" d="M3506.7,395.6c0,10.8-8.2,19.5-18.3,19.5c-10.1,0-18.3-8.7-18.3-19.5c0-10.8,8.2-19.5,18.3-19.5
		C3498.5,376.1,3506.7,384.8,3506.7,395.6z"/>
	<path class="st3" d="M2024.6,578.5c0,10.8-8.2,19.5-18.3,19.5s-18.3-8.7-18.3-19.5s8.2-19.5,18.3-19.5S2024.6,567.7,2024.6,578.5z"
		/>
	<path class="st3" d="M3389.6,1725.3c0,10.8-8.2,19.5-18.3,19.5c-10.1,0-18.3-8.7-18.3-19.5s8.2-19.5,18.3-19.5
		C3381.5,1705.8,3389.6,1714.5,3389.6,1725.3z"/>
</g>
<linearGradient id="SVGID_2_" gradientUnits="userSpaceOnUse" x1="0" y1="1648.4326" x2="4999.5313" y2="1648.4326">
	<stop  offset="0" style="stop-color:#FFFFFF"/>
	<stop  offset="0" style="stop-color:#F6D242"/>
	<stop  offset="1" style="stop-color:#FF52E5"/>
	<stop  offset="1" style="stop-color:#000000"/>
</linearGradient>
<path class="st4" d="M0,301.7c0,0,165.7,1566.6,1911.5,1237.4s2023.1-891.6,2023.1-891.6s641.6-800,1064.8,16.7V3000H0V301.7z"/>
<linearGradient id="SVGID_3_" gradientUnits="userSpaceOnUse" x1="0" y1="1500" x2="4999.5313" y2="1500">
	<stop  offset="0" style="stop-color:#F093FB"/>
	<stop  offset="1" style="stop-color:#F5576C"/>
</linearGradient>
<path class="st5" d="M165.7,0c0,0-437.4,1397.5,1050.6,1664.1s2351.2-433.3,2351.2-433.3s958-833.3,1432,133.3V3000H0V0H165.7z"/>
<path class="st6" d="M79.8,0"/>
<ellipse class="st7" cx="466.4" cy="226.9" rx="65.6" ry="69.9"/>
<ellipse class="st7" cx="692.4" cy="937" rx="65.6" ry="69.9"/>
<ellipse class="st7" cx="1624.2" cy="366.8" rx="65.6" ry="69.9"/>
<ellipse class="st7" cx="1558.6" cy="1271.5" rx="65.6" ry="69.9"/>
<ellipse class="st7" cx="2434.2" cy="797.1" rx="65.6" ry="69.9"/>
<path class="st7" d="M4999.5,1343.4v-147.8V991.2c0.2-0.1,0.3-0.2,0.5-0.4l-0.5-11.9v0V670.5v-19.6V0H3960.9
	c-164.6,145-274.9,357.5-293.8,597.8c0,0,0,0,0-0.1c-0.5,6.1-0.9,12.2-1.3,18.4c-0.4,6.1-0.7,12.3-0.9,18.4
	c-0.2,5.7-0.4,11.5-0.5,17.2c-0.1,2.8-0.1,5.6-0.1,8.4c-0.1,3.9-0.1,7.7-0.1,11.6c0,69,7.5,136.1,21.8,200.4
	c0.8,3.5,1.5,6.9,2.3,10.4c0.8,3.4,1.6,6.9,2.5,10.3c0.3,1.1,0.5,2.3,0.8,3.4c0.8,3.4,1.7,6.8,2.6,10.2c0.9,3.4,1.8,6.8,2.7,10.2
	c1.6,5.9,3.3,11.7,5,17.6c1.7,5.8,3.5,11.6,5.3,17.4s3.7,11.5,5.7,17.3c7.8,22.9,16.4,45.3,25.9,67.3c3.5,8.2,7.2,16.4,11,24.5
	c5,10.8,10.3,21.4,15.8,31.9c5.2,10.1,10.6,19.9,16.1,29.7c2.2,3.9,4.4,7.7,6.6,11.5c0.4,0.8,0.9,1.6,1.4,2.3c1,1.6,1.9,3.2,2.9,4.8
	c1.1,1.9,2.3,3.8,3.4,5.7c1.5,2.5,3.1,5,4.6,7.5c1.1,1.9,2.3,3.7,3.5,5.6c1.2,1.9,2.4,3.7,3.6,5.6c1.2,1.8,2.4,3.7,3.6,5.5
	c4.4,6.8,8.9,13.4,13.5,20c1.7,2.4,3.4,4.8,5,7.1c1.7,2.4,3.4,4.8,5.2,7.1c1.6,2.2,3.1,4.3,4.7,6.4c1.9,2.6,3.8,5.1,5.7,7.6
	c1.3,1.8,2.7,3.5,4,5.3c6.3,8.2,12.8,16.3,19.4,24.3c2.3,2.8,4.7,5.6,7.1,8.4c6.6,7.8,13.3,15.4,20.2,22.9c2.1,2.4,4.3,4.7,6.5,7
	c2.4,2.6,4.9,5.3,7.4,7.8c6.3,6.6,12.8,13.1,19.3,19.5c1.5,1.5,3.1,3,4.7,4.5c3.2,3.1,6.4,6.1,9.6,9c2.4,2.2,4.7,4.4,7.1,6.6
	c2.1,1.9,4.3,3.9,6.4,5.8c3,2.7,6.1,5.4,9.2,8.1c0.4,0.3,0.8,0.7,1.2,1c0.2,0.2,0.4,0.4,0.7,0.6c4.4,3.8,8.9,7.6,13.4,11.3
	c2.8,2.3,5.6,4.6,8.5,6.9c6.7,5.4,13.5,10.7,20.4,15.8c1.1,0.8,2.1,1.6,3.2,2.4c7.1,5.3,14.3,10.5,21.6,15.6c1.9,1.4,3.9,2.7,5.8,4
	c1.9,1.3,3.9,2.7,5.9,4c3.1,2.1,6.2,4.1,9.3,6.1c10.2,6.6,20.4,13,30.9,19.1c1.9,1.1,3.8,2.2,5.7,3.3c2.3,1.3,4.6,2.6,6.9,3.9
	c2.3,1.3,4.6,2.6,7,3.9c1.6,0.9,3.2,1.8,4.8,2.6c2.9,1.6,5.8,3.1,8.7,4.6c3,1.6,6.1,3.2,9.1,4.7c2.8,1.4,5.7,2.9,8.5,4.3
	c2.9,1.5,5.9,2.9,8.9,4.3c2.3,1.1,4.6,2.2,6.9,3.3c2.4,1.1,4.7,2.2,7.1,3.3c2.6,1.2,5.2,2.4,7.9,3.5c6.8,3,13.7,5.9,20.6,8.8
	c3.4,1.4,6.8,2.8,10.3,4.1c4.1,1.6,8.1,3.1,12.2,4.7c2,0.8,4,1.5,6.1,2.2c0.3,0.1,0.6,0.2,0.9,0.3c3.1,1.1,6.2,2.3,9.4,3.3
	c2.5,0.9,5.1,1.8,7.6,2.6c1.2,0.4,2.4,0.8,3.6,1.2c2.6,0.9,5.3,1.7,7.9,2.6c3.5,1.1,7.1,2.2,10.6,3.3c2.8,0.9,5.7,1.7,8.5,2.5
	c1.5,0.4,3,0.9,4.5,1.3c1.4,0.4,2.9,0.8,4.3,1.2c0.4,0.1,0.9,0.3,1.3,0.4c3,0.8,6,1.6,9,2.4c3.2,0.8,6.4,1.6,9.5,2.4
	c5.2,1.3,10.4,2.5,15.7,3.7c2.4,0.6,4.8,1.1,7.2,1.6c0.3,0.1,0.7,0.2,1,0.2c2.5,0.5,5.1,1.1,7.6,1.6c2.8,0.6,5.7,1.1,8.5,1.7
	c3.7,0.7,7.3,1.4,11,2.1c2.2,0.4,4.5,0.8,6.7,1.1c1.8,0.3,3.6,0.6,5.5,0.9c0.4,0.1,0.8,0.2,1.2,0.2c1.7,0.3,3.4,0.6,5.1,0.8
	c4.9,0.8,9.8,1.4,14.8,2.1c3.2,0.4,6.5,0.8,9.7,1.2c1.3,0.2,2.7,0.3,4,0.5c1.3,0.2,2.7,0.3,4,0.4c2.1,0.3,4.3,0.5,6.4,0.7
	c4.5,0.4,9,0.9,13.5,1.2c1.6,0.1,3.1,0.3,4.6,0.4c2.2,0.2,4.3,0.3,6.5,0.5c13.9,0.9,27.8,1.5,41.9,1.7c3.5,0.1,7,0.1,10.5,0.1
	s7,0,10.5-0.1c2.5,0,5.1-0.1,7.6-0.1c2.4-0.1,4.7-0.1,7.1-0.2c2.7-0.1,5.5-0.2,8.2-0.3c2.1-0.1,4.3-0.2,6.4-0.3
	c4.2-0.2,8.4-0.4,12.6-0.8c1.6-0.1,3.2-0.2,4.7-0.3c10.1-0.7,20.1-1.7,30.1-2.8c2-0.2,4.1-0.5,6.1-0.7c3.3-0.4,6.6-0.8,9.8-1.3
	c1.7-0.2,3.4-0.4,5.1-0.7c2.3-0.3,4.7-0.6,7-1c2.3-0.3,4.6-0.7,7-1.1c1.8-0.3,3.6-0.6,5.5-0.9c2.2-0.4,4.5-0.8,6.7-1.1
	c2.4-0.4,4.7-0.9,7.1-1.3c3.6-0.7,7.2-1.4,10.8-2.1c3.1-0.6,6.2-1.3,9.3-1.9c2.7-0.6,5.3-1.1,7.9-1.8c2.1-0.4,4.1-0.9,6.2-1.4
	c6.6-1.5,13.1-3.1,19.6-4.9c2.6-0.7,5.2-1.4,7.8-2.1c3.7-1,7.5-2.1,11.2-3.2c2.5-0.7,5.1-1.5,7.6-2.2c3.2-0.9,6.3-1.9,9.5-2.9
	c1.8-0.6,3.7-1.2,5.6-1.8c4.1-1.3,8.2-2.7,12.2-4.1c2.9-1,5.7-2,8.5-3c1.2-0.4,2.4-0.9,3.6-1.3c3.2-1.2,6.4-2.3,9.6-3.5
	c2.6-0.9,5.1-1.9,7.7-2.9c1.9-0.7,3.8-1.5,5.7-2.2c2.3-0.9,4.6-1.8,6.9-2.8c9.2-3.7,18.3-7.6,27.3-11.7c1.7-0.8,3.5-1.6,5.2-2.4
	c2.5-1.1,4.9-2.3,7.4-3.4c3.4-1.6,6.8-3.3,10.2-4.9c5.7-2.8,11.4-5.7,17-8.6c3.6-1.9,7.1-3.8,10.7-5.7c7.6-4.1,15-8.3,22.4-12.6
	c4.9-2.9,9.9-5.8,14.7-8.8c0.1-0.1,0.1-0.1,0.2-0.1c4.8-3,9.6-6,14.3-9c3.4-2.2,6.7-4.4,10.1-6.6c0.5-0.4,1.1-0.7,1.6-1.1
	c3.3-2.2,6.5-4.4,9.7-6.6c4-2.8,8-5.6,12-8.4c3-2.1,6-4.3,9-6.6c11.6-8.5,22.9-17.3,34-26.4c4.4-3.6,8.8-7.3,13.2-11.1
	c2.2-1.9,4.5-3.8,6.7-5.8C4998,1344.9,4998.8,1344.2,4999.5,1343.4L4999.5,1343.4z"/>
<g>
	<g>
		<ellipse class="st8" cx="3966.7" cy="360" rx="128.5" ry="137.1"/>
		<path class="st9" d="M3849.2,371.7c0-75.7,57.5-137.1,128.5-137.1c32.7,0,62.5,13,85.2,34.5c-23.5-28.3-57.9-46.2-96.2-46.2
			c-71,0-128.5,61.4-128.5,137.1c0,40.8,16.8,77.5,43.3,102.6C3861.5,438.4,3849.2,406.6,3849.2,371.7z"/>
		<path class="st10" d="M3971.8,222.9c-0.8,0-1.7,0.1-2.5,0.1c69.8,1.4,125.9,62.2,125.9,137c0,75.7-57.5,137.1-128.5,137.1
			c-70.1,0-127.1-59.9-128.4-134.4c0,0.9-0.1,1.8-0.1,2.7c0,78.7,59.8,142.5,133.6,142.5c73.8,0,133.6-63.8,133.6-142.5
			C4105.4,286.7,4045.6,222.9,3971.8,222.9z"/>
	</g>
	<g>
		<ellipse class="st8" cx="4820.1" cy="119.8" rx="64.2" ry="68.5"/>
		<path class="st9" d="M4761.3,125.7c0-37.8,28.8-68.5,64.2-68.5c16.3,0,31.2,6.5,42.6,17.2c-11.8-14.2-28.9-23.1-48.1-23.1
			c-35.5,0-64.2,30.7-64.2,68.5c0,20.4,8.4,38.7,21.7,51.3C4767.4,159,4761.3,143.1,4761.3,125.7z"/>
		<path class="st10" d="M4822.6,51.3c-0.4,0-0.8,0-1.3,0c34.9,0.7,63,31.1,63,68.5c0,37.8-28.8,68.5-64.2,68.5
			c-35.1,0-63.5-30-64.2-67.2c0,0.5,0,0.9,0,1.4c0,39.3,29.9,71.2,66.8,71.2c36.9,0,66.8-31.9,66.8-71.2
			C4889.4,83.2,4859.5,51.3,4822.6,51.3z"/>
	</g>
	<g>
		<path class="st8" d="M4999.5,650.9v328.1c-0.8-0.2-1.5-0.5-2.3-0.7c-1.1-0.4-2.1-0.7-3.2-1.1c-0.9-0.3-1.7-0.6-2.6-0.9
			c-4-1.5-8-3.2-11.8-5.1c-1.1-0.5-2.1-1-3.2-1.5c-4.8-2.4-9.4-5.1-13.9-7.9c-1-0.7-2-1.3-3-2c-1.1-0.7-2.2-1.5-3.3-2.3
			c-1-0.8-2.1-1.5-3.2-2.3c-1-0.8-2.1-1.6-3.1-2.4c-1-0.8-2.1-1.6-3-2.4c-1-0.8-2-1.7-3-2.5c-1-0.9-2-1.7-2.9-2.6
			c-0.8-0.8-1.6-1.5-2.4-2.2l0,0c-0.2-0.1-0.3-0.3-0.4-0.4c-0.3-0.3-0.6-0.6-0.9-0.8c-0.6-0.6-1.2-1.1-1.7-1.7
			c-0.1-0.1-0.1-0.1-0.2-0.2c-0.9-0.9-1.8-1.8-2.7-2.8c0,0,0,0-0.1-0.1c-0.9-0.9-1.8-1.9-2.6-2.8c-0.1-0.1-0.2-0.2-0.3-0.3
			c-0.8-0.9-1.6-1.8-2.3-2.6c-0.9-1-1.7-2-2.6-3c-0.8-1-1.7-2-2.5-3.1c-0.7-0.8-1.3-1.7-1.9-2.5c-0.2-0.3-0.5-0.6-0.7-0.9
			c-0.7-0.9-1.4-1.9-2.1-2.9l0,0c-0.2-0.3-0.4-0.6-0.7-0.9c-0.5-0.8-1.1-1.5-1.6-2.3c-0.5-0.7-1-1.4-1.5-2.2l-2.3-3.7
			c-0.2-0.3-0.3-0.6-0.5-0.8c-0.4-0.6-0.7-1.1-1-1.7c-0.3-0.4-0.5-0.8-0.7-1.2c-0.8-1.2-1.5-2.5-2.2-3.8c0-0.1-0.1-0.2-0.1-0.2
			c-0.7-1.2-1.3-2.4-2-3.6c-0.7-1.3-1.4-2.6-2-3.9l-0.5-1c-0.9-1.9-1.8-3.9-2.7-5.8c0,0,0-0.1-0.1-0.1c-0.5-1.1-1-2.3-1.5-3.4
			c0-0.1-0.1-0.3-0.2-0.4c-0.2-0.4-0.4-0.9-0.6-1.4c-0.2-0.4-0.3-0.8-0.4-1.1c-1.5-3.7-2.8-7.4-4-11.3c-0.4-1.1-0.7-2.3-1-3.4
			c-0.1-0.4-0.2-0.8-0.4-1.3c-0.5-1.8-1-3.6-1.5-5.4c-0.1-0.6-0.3-1.1-0.4-1.7c-0.4-1.5-0.8-3-1.1-4.5c-0.2-0.9-0.4-1.9-0.6-2.8
			c-0.2-1.1-0.4-2.1-0.6-3.2c-0.3-1.5-0.5-3-0.8-4.5c-0.2-1.5-0.5-3.1-0.7-4.6c-0.1-0.9-0.2-1.9-0.3-2.8c0-0.2-0.1-0.4-0.1-0.6
			c0-0.2-0.1-0.4-0.1-0.6c0-0.3-0.1-0.7-0.1-1c0-0.3-0.1-0.7-0.1-1v-0.2c-0.2-1.8-0.4-3.6-0.5-5.4c-0.1-1-0.1-2-0.2-2.9
			c-0.1-1.5-0.1-2.9-0.2-4.4v-0.1c0-1.4-0.1-2.8-0.1-4.3C4884.6,737.2,4933.1,671.7,4999.5,650.9z"/>
		<path class="st9" d="M4999.5,650.9v19.6c-59.3,25.1-101.2,86.8-101.2,159c0,43.5,15.2,83.1,40.3,113.3c-0.2-0.1-0.3-0.3-0.4-0.4
			c-0.3-0.3-0.6-0.6-0.9-0.8c-0.6-0.6-1.2-1.1-1.7-1.7c-0.1-0.1-0.1-0.1-0.2-0.2c-0.9-0.9-1.8-1.8-2.7-2.8c0,0,0,0-0.1-0.1
			c-0.9-0.9-1.8-1.9-2.6-2.8c-0.1-0.1-0.2-0.2-0.3-0.3c-0.8-0.9-1.6-1.8-2.3-2.6c-0.9-1-1.7-2-2.6-3c-0.8-1-1.7-2-2.5-3.1
			c-0.7-0.8-1.3-1.7-1.9-2.5c-0.2-0.3-0.5-0.6-0.7-0.9c-0.7-0.9-1.4-1.9-2.1-2.9l0,0c-0.2-0.3-0.4-0.6-0.7-0.9
			c-0.5-0.8-1.1-1.5-1.6-2.3c-0.5-0.7-1-1.4-1.5-2.2l-2.3-3.7c-0.2-0.3-0.3-0.6-0.5-0.8c-0.4-0.6-0.7-1.1-1-1.7
			c-0.3-0.4-0.5-0.8-0.7-1.2c-0.1-0.2-0.2-0.4-0.3-0.5c-0.6-1.1-1.3-2.2-1.9-3.2c0-0.1-0.1-0.2-0.1-0.2c-0.7-1.2-1.3-2.4-2-3.6
			c-0.7-1.3-1.4-2.6-2-3.9l-0.5-1c-0.9-1.9-1.8-3.9-2.7-5.8c0,0,0-0.1-0.1-0.1c-0.5-1.1-1-2.3-1.5-3.4c0-0.1-0.1-0.3-0.2-0.4
			c-0.2-0.4-0.4-0.9-0.6-1.4c-0.2-0.4-0.3-0.8-0.4-1.1c-0.1-0.4-0.3-0.7-0.4-1.1c0,0,0,0,0-0.1c-0.5-1.2-1-2.5-1.4-3.8
			c-0.5-1.3-0.9-2.6-1.4-3.9c-0.3-0.8-0.5-1.6-0.8-2.4c-0.4-1.1-0.7-2.3-1-3.4c-0.1-0.4-0.2-0.8-0.4-1.3c-0.5-1.8-1-3.6-1.5-5.4
			c-0.1-0.6-0.3-1.1-0.4-1.7c-0.4-1.5-0.8-3-1.1-4.5c-0.2-0.9-0.4-1.9-0.6-2.8c-0.2-1.1-0.4-2.1-0.6-3.2c-0.3-1.5-0.5-3-0.8-4.5
			c-0.2-1.5-0.5-3.1-0.7-4.6c-0.1-0.9-0.2-1.9-0.3-2.8c0-0.2-0.1-0.4-0.1-0.6c0-0.2-0.1-0.4-0.1-0.6c0-0.3-0.1-0.7-0.1-1
			c0-0.3-0.1-0.7-0.1-1v-0.2c-0.2-1.8-0.4-3.6-0.5-5.4c-0.1-1-0.1-2-0.2-2.9c-0.1-1.5-0.1-2.9-0.2-4.4v-0.1c0-1.4-0.1-2.8-0.1-4.3
			C4884.6,737.2,4933.1,671.7,4999.5,650.9z"/>
		<path class="st10" d="M4999.5,978.9c-0.8-0.3-1.6-0.5-2.3-0.8c-1.1-0.4-2.1-0.7-3.2-1.1c-0.9-0.3-1.7-0.6-2.6-0.9
			c-4-1.5-8-3.2-11.8-5.1c-1.1-0.5-2.1-1-3.2-1.5c-4.8-2.4-9.4-5.1-13.9-7.9c-1-0.7-2-1.3-3-2c-1.1-0.8-2.2-1.5-3.3-2.3
			c-1-0.8-2.1-1.5-3.2-2.3s-2.1-1.6-3.1-2.4c-1-0.8-2.1-1.6-3-2.4c-1-0.8-2-1.7-3-2.5c-1-0.9-2-1.7-2.9-2.6
			c-0.8-0.8-1.6-1.5-2.4-2.2l0,0c-0.2-0.1-0.3-0.3-0.4-0.4c-0.3-0.3-0.6-0.6-0.9-0.8c-0.6-0.6-1.2-1.1-1.7-1.7
			c-0.1-0.1-0.1-0.1-0.2-0.2c-0.9-0.9-1.8-1.8-2.7-2.8c0,0,0,0-0.1-0.1c-0.9-0.9-1.8-1.9-2.6-2.8c-0.1-0.1-0.2-0.2-0.3-0.3
			c-0.8-0.9-1.6-1.8-2.3-2.6c-0.9-1-1.7-2-2.6-3c-0.8-1-1.7-2-2.5-3.1c-0.7-0.8-1.3-1.7-1.9-2.5c-0.2-0.3-0.5-0.6-0.7-0.9
			c-0.7-0.9-1.4-1.9-2.1-2.9l0,0c-0.2-0.3-0.4-0.6-0.7-0.9c-0.5-0.8-1.1-1.5-1.6-2.3c-1.5-2.2-2.9-4.4-4.3-6.7
			c-0.4-0.6-0.7-1.1-1-1.7c-0.3-0.4-0.5-0.8-0.7-1.2c-0.1-0.2-0.2-0.4-0.3-0.5c-0.6-1.1-1.3-2.2-1.9-3.3c0-0.1-0.1-0.2-0.1-0.2
			c-0.7-1.2-1.3-2.4-2-3.6c-0.8-1.6-1.7-3.3-2.5-4.9c-0.9-1.9-1.8-3.9-2.7-5.8c0,0,0-0.1-0.1-0.1c-0.5-1.1-1-2.3-1.5-3.4
			c0-0.1-0.1-0.3-0.2-0.4c-0.5-1.2-1-2.4-1.4-3.7c0,0,0,0,0-0.1c-0.5-1.3-1-2.5-1.4-3.8c-0.5-1.3-0.9-2.6-1.4-3.9
			c-0.7-1.9-1.3-3.9-1.8-5.8c-0.1-0.4-0.2-0.8-0.4-1.3c-0.5-1.8-1-3.6-1.5-5.4c-0.1-0.6-0.3-1.1-0.4-1.7c-1.8-7.3-3.1-14.8-4-22.4
			c0-0.2-0.1-0.4-0.1-0.6c-0.1-0.6-0.1-1.1-0.2-1.6c0-0.3-0.1-0.7-0.1-1v-0.2c-0.4-4.6-0.7-9.2-0.8-13.8c0,0.3,0,0.6,0,0.9v0.1
			c0,0.8-0.1,1.6-0.1,2.3c0,78.9,48.2,145.8,115,169c0.2,0.1,0.3,0.1,0.5,0.2L4999.5,978.9z"/>
	</g>
	<g>
		<ellipse class="st8" cx="4616.5" cy="1214.4" rx="160.3" ry="171"/>
		<path class="st9" d="M4469.9,1229c0-94.4,71.8-171,160.3-171c40.8,0,78,16.3,106.3,43c-29.4-35.3-72.2-57.6-120-57.6
			c-88.5,0-160.3,76.6-160.3,171c0,50.9,20.9,96.7,54,128C4485.2,1312.2,4469.9,1272.5,4469.9,1229z"/>
		<path class="st10" d="M4622.8,1043.4c-1.1,0-2.1,0.1-3.2,0.1c87.1,1.8,157.1,77.6,157.1,170.9c0,94.4-71.8,171-160.3,171
			c-87.5,0-158.5-74.8-160.2-167.6c0,1.1-0.1,2.2-0.1,3.4c0,98.2,74.6,177.8,166.6,177.8s166.6-79.6,166.6-177.8
			C4789.5,1123,4714.9,1043.4,4622.8,1043.4z"/>
	</g>
	<g>
		<ellipse class="st8" cx="4299.1" cy="1110.5" rx="90.3" ry="96.3"/>
		<path class="st9" d="M4216.6,1118.8c0-53.2,40.4-96.3,90.3-96.3c23,0,43.9,9.2,59.8,24.2c-16.5-19.9-40.7-32.5-67.6-32.5
			c-49.9,0-90.3,43.1-90.3,96.3c0,28.7,11.8,54.4,30.4,72.1C4225.2,1165.6,4216.6,1143.2,4216.6,1118.8z"/>
		<path class="st10" d="M4302.7,1014.2c-0.6,0-1.2,0-1.8,0c49,1,88.5,43.7,88.5,96.3c0,53.2-40.4,96.3-90.3,96.3
			c-49.3,0-89.3-42.1-90.2-94.4c0,0.6,0,1.3,0,1.9c0,55.3,42,100.1,93.8,100.1c51.8,0,93.8-44.8,93.8-100.1
			C4396.5,1059,4354.5,1014.2,4302.7,1014.2z"/>
	</g>
	<g>
		<ellipse class="st8" cx="4467" cy="977.3" rx="54.6" ry="58.3"/>
		<path class="st9" d="M4417.1,982.3c0-32.2,24.5-58.3,54.6-58.3c13.9,0,26.6,5.5,36.2,14.7c-10-12-24.6-19.7-40.9-19.7
			c-30.2,0-54.6,26.1-54.6,58.3c0,17.4,7.1,32.9,18.4,43.6C4422.3,1010.7,4417.1,997.2,4417.1,982.3z"/>
		<path class="st10" d="M4469.2,919c-0.4,0-0.7,0-1.1,0c29.7,0.6,53.6,26.5,53.6,58.3c0,32.2-24.5,58.3-54.6,58.3
			c-29.8,0-54-25.5-54.6-57.1c0,0.4,0,0.8,0,1.1c0,33.5,25.4,60.6,56.8,60.6c31.4,0,56.8-27.1,56.8-60.6S4500.6,919,4469.2,919z"/>
	</g>
	<g>
		<ellipse class="st8" cx="4049" cy="654.9" rx="81.5" ry="86.9"/>
		<path class="st9" d="M3974.5,662.3c0-48,36.5-86.9,81.5-86.9c20.7,0,39.6,8.3,54,21.9c-14.9-18-36.7-29.3-61-29.3
			c-45,0-81.5,38.9-81.5,86.9c0,25.9,10.6,49.1,27.5,65C3982.3,704.6,3974.5,684.4,3974.5,662.3z"/>
		<path class="st10" d="M4052.3,568c-0.5,0-1.1,0-1.6,0c44.3,0.9,79.9,39.4,79.9,86.9c0,48-36.5,86.9-81.5,86.9
			c-44.5,0-80.6-38-81.4-85.2c0,0.6,0,1.1,0,1.7c0,49.9,37.9,90.3,84.7,90.3c46.8,0,84.7-40.4,84.7-90.3
			C4137,608.4,4099,568,4052.3,568z"/>
	</g>
	<g>
		<ellipse class="st8" cx="4234.4" cy="337.8" rx="68.3" ry="72.8"/>
		<path class="st9" d="M4172,344.1c0-40.2,30.6-72.8,68.3-72.8c17.4,0,33.2,6.9,45.3,18.3c-12.5-15.1-30.8-24.5-51.1-24.5
			c-37.7,0-68.3,32.6-68.3,72.8c0,21.7,8.9,41.2,23,54.5C4178.5,379.5,4172,362.6,4172,344.1z"/>
		<path class="st10" d="M4237.1,265c-0.5,0-0.9,0-1.3,0c37.1,0.8,66.9,33,66.9,72.8c0,40.2-30.6,72.8-68.3,72.8
			c-37.2,0-67.5-31.8-68.2-71.4c0,0.5,0,1,0,1.4c0,41.8,31.8,75.7,71,75.7c39.2,0,71-33.9,71-75.7
			C4308.1,298.9,4276.3,265,4237.1,265z"/>
	</g>
	<g>
		<ellipse class="st8" cx="4111.4" cy="1161.4" rx="46" ry="49.1"/>
		<path class="st9" d="M4069.3,1165.6c0-27.1,20.6-49.1,46-49.1c11.7,0,22.4,4.7,30.5,12.4c-8.4-10.1-20.7-16.6-34.5-16.6
			c-25.4,0-46,22-46,49.1c0,14.6,6,27.8,15.5,36.8C4073.7,1189.5,4069.3,1178.1,4069.3,1165.6z"/>
		<path class="st10" d="M4113.2,1112.3c-0.3,0-0.6,0-0.9,0c25,0.5,45.1,22.3,45.1,49.1c0,27.1-20.6,49.1-46,49.1
			c-25.1,0-45.5-21.5-46-48.1c0,0.3,0,0.6,0,1c0,28.2,21.4,51,47.9,51c26.4,0,47.9-22.9,47.9-51
			C4161.1,1135.2,4139.7,1112.3,4113.2,1112.3z"/>
	</g>
	<path class="st11" d="M4999.5,1343.4v-147.8V991.2c-71.9,55.9-152.1,100.4-238.2,131.2c-2.7,1-5.4,1.9-8.1,2.8
		c-86,29.8-177.7,45.9-273,45.9h-0.9c-6,0-12-0.1-17.9-0.2c-26.3-0.6-52.4-2.4-78.1-5.4c-3.1-0.4-6.2-0.8-9.4-1.1
		c-54-6.9-106.4-19-157-35.8c-2.3-0.8-4.6-1.6-7-2.3c0,0,0,0,0,0c0,0,0,0,0,0c-0.2-0.1-0.3-0.1-0.5-0.2
		c-244.5-83.9-442.6-278.4-542.4-528.2c0,0,0,0,0-0.1c-0.5,6.1-0.9,12.2-1.3,18.4c-0.4,6.1-0.7,12.3-0.9,18.4
		c-0.2,5.7-0.4,11.5-0.5,17.2c-0.1,2.8-0.1,5.6-0.1,8.4c-0.1,3.9-0.1,7.7-0.1,11.6c0,69,7.5,136.1,21.8,200.4
		c0.8,3.5,1.5,6.9,2.3,10.4c0.8,3.4,1.6,6.9,2.5,10.3c0.3,1.1,0.5,2.3,0.8,3.4c0.8,3.4,1.7,6.8,2.6,10.2c0.9,3.4,1.8,6.8,2.7,10.2
		c1.6,5.9,3.3,11.7,5,17.6c1.7,5.8,3.5,11.6,5.3,17.4s3.7,11.5,5.7,17.3c7.8,22.9,16.4,45.3,25.9,67.3c3.5,8.2,7.2,16.4,11,24.5
		c5,10.8,10.3,21.4,15.8,31.9c5.2,10.1,10.6,19.9,16.1,29.7c2.2,3.9,4.4,7.7,6.6,11.5c0.4,0.8,0.9,1.6,1.4,2.3
		c1,1.6,1.9,3.2,2.9,4.8c1.1,1.9,2.3,3.8,3.4,5.7c1.5,2.5,3.1,5,4.6,7.5c1.1,1.9,2.3,3.7,3.5,5.6c1.2,1.9,2.4,3.7,3.6,5.6
		c1.2,1.8,2.4,3.7,3.6,5.5c4.4,6.8,8.9,13.4,13.5,20c1.7,2.4,3.4,4.8,5,7.1c1.7,2.4,3.4,4.8,5.2,7.1c1.6,2.2,3.1,4.3,4.7,6.4
		c1.9,2.6,3.8,5.1,5.7,7.6c1.3,1.8,2.7,3.5,4,5.3c6.3,8.2,12.8,16.3,19.4,24.3c2.3,2.8,4.7,5.6,7.1,8.4c6.6,7.8,13.3,15.4,20.2,22.9
		c2.1,2.4,4.3,4.7,6.5,7c2.4,2.6,4.9,5.3,7.4,7.8c6.3,6.6,12.8,13.1,19.3,19.5c1.5,1.5,3.1,3,4.7,4.5c3.2,3.1,6.4,6.1,9.6,9
		c2.4,2.2,4.7,4.4,7.1,6.6c2.1,1.9,4.3,3.9,6.4,5.8c3,2.7,6.1,5.4,9.2,8.1c0.4,0.3,0.8,0.7,1.2,1c0.2,0.2,0.4,0.4,0.7,0.6
		c4.4,3.8,8.9,7.6,13.4,11.3c2.8,2.3,5.6,4.6,8.5,6.9c6.7,5.4,13.5,10.7,20.4,15.8c1.1,0.8,2.1,1.6,3.2,2.4
		c7.1,5.3,14.3,10.5,21.6,15.6c1.9,1.4,3.9,2.7,5.8,4c1.9,1.3,3.9,2.7,5.9,4c3.1,2.1,6.2,4.1,9.3,6.1c10.2,6.6,20.4,13,30.9,19.1
		c1.9,1.1,3.8,2.2,5.7,3.3c2.3,1.3,4.6,2.6,6.9,3.9c2.3,1.3,4.6,2.6,7,3.9c1.6,0.9,3.2,1.8,4.8,2.6c2.9,1.6,5.8,3.1,8.7,4.6
		c3,1.6,6.1,3.2,9.1,4.7c2.8,1.4,5.7,2.9,8.5,4.3c2.9,1.5,5.9,2.9,8.9,4.3c2.3,1.1,4.6,2.2,6.9,3.3c2.4,1.1,4.7,2.2,7.1,3.3
		c2.6,1.2,5.2,2.4,7.9,3.5c6.8,3,13.7,5.9,20.6,8.8c3.4,1.4,6.8,2.8,10.3,4.1c4.1,1.6,8.1,3.1,12.2,4.7c2,0.8,4,1.5,6.1,2.2
		c0.3,0.1,0.6,0.2,0.9,0.3c3.1,1.1,6.2,2.3,9.4,3.3c2.5,0.9,5.1,1.8,7.6,2.6c1.2,0.4,2.4,0.8,3.6,1.2c2.6,0.9,5.3,1.7,7.9,2.6
		c3.5,1.1,7.1,2.2,10.6,3.3c2.8,0.9,5.7,1.7,8.5,2.5c1.5,0.4,3,0.9,4.5,1.3c1.4,0.4,2.9,0.8,4.3,1.2c0.4,0.1,0.9,0.3,1.3,0.4
		c3,0.8,6,1.6,9,2.4c3.2,0.8,6.4,1.6,9.5,2.4c5.2,1.3,10.4,2.5,15.7,3.7c2.4,0.6,4.8,1.1,7.2,1.6c0.3,0.1,0.7,0.2,1,0.2
		c2.5,0.5,5.1,1.1,7.6,1.6c2.8,0.6,5.7,1.1,8.5,1.7c3.7,0.7,7.3,1.4,11,2.1c2.2,0.4,4.5,0.8,6.7,1.1c1.8,0.3,3.6,0.6,5.5,0.9
		c0.4,0.1,0.8,0.2,1.2,0.2c1.7,0.3,3.4,0.6,5.1,0.8c4.9,0.8,9.8,1.4,14.8,2.1c3.2,0.4,6.5,0.8,9.7,1.2c1.3,0.2,2.7,0.3,4,0.5
		c1.3,0.2,2.7,0.3,4,0.4c2.1,0.3,4.3,0.5,6.4,0.7c4.5,0.4,9,0.9,13.5,1.2c1.6,0.1,3.1,0.3,4.6,0.4c2.2,0.2,4.3,0.3,6.5,0.5
		c13.9,0.9,27.8,1.5,41.9,1.7c3.5,0.1,7,0.1,10.5,0.1s7,0,10.5-0.1c2.5,0,5.1-0.1,7.6-0.1c2.4-0.1,4.7-0.1,7.1-0.2
		c2.7-0.1,5.5-0.2,8.2-0.3c2.1-0.1,4.3-0.2,6.4-0.3c4.2-0.2,8.4-0.4,12.6-0.8c1.6-0.1,3.2-0.2,4.7-0.3c10.1-0.7,20.1-1.7,30.1-2.8
		c2-0.2,4.1-0.5,6.1-0.7c3.3-0.4,6.6-0.8,9.8-1.3c1.7-0.2,3.4-0.4,5.1-0.7c2.3-0.3,4.7-0.6,7-1c2.3-0.3,4.6-0.7,7-1.1
		c1.8-0.3,3.6-0.6,5.5-0.9c2.2-0.4,4.5-0.8,6.7-1.1c2.4-0.4,4.7-0.9,7.1-1.3c3.6-0.7,7.2-1.4,10.8-2.1c3.1-0.6,6.2-1.3,9.3-1.9
		c2.7-0.6,5.3-1.1,7.9-1.8c2.1-0.4,4.1-0.9,6.2-1.4c6.6-1.5,13.1-3.1,19.6-4.9c2.6-0.7,5.2-1.4,7.8-2.1c3.7-1,7.5-2.1,11.2-3.2
		c2.5-0.7,5.1-1.5,7.6-2.2c3.2-0.9,6.3-1.9,9.5-2.9c1.8-0.6,3.7-1.2,5.6-1.8c4.1-1.3,8.2-2.7,12.2-4.1c2.9-1,5.7-2,8.5-3
		c1.2-0.4,2.4-0.9,3.6-1.3c3.2-1.2,6.4-2.3,9.6-3.5c2.6-0.9,5.1-1.9,7.7-2.9c1.9-0.7,3.8-1.5,5.7-2.2c2.3-0.9,4.6-1.8,6.9-2.8
		c9.2-3.7,18.3-7.6,27.3-11.7c1.7-0.8,3.5-1.6,5.2-2.4c2.5-1.1,4.9-2.3,7.4-3.4c3.4-1.6,6.8-3.3,10.2-4.9c5.7-2.8,11.4-5.7,17-8.6
		c3.6-1.9,7.1-3.8,10.7-5.7c7.6-4.1,15-8.3,22.4-12.6c4.9-2.9,9.9-5.8,14.7-8.8c0.1-0.1,0.1-0.1,0.2-0.1c4.8-3,9.6-6,14.3-9
		c3.4-2.2,6.7-4.4,10.1-6.6c0.5-0.4,1.1-0.7,1.6-1.1c3.3-2.2,6.5-4.4,9.7-6.6c4-2.8,8-5.6,12-8.4c3-2.1,6-4.3,9-6.6
		c11.6-8.5,22.9-17.3,34-26.4c4.4-3.6,8.8-7.3,13.2-11.1c2.2-1.9,4.5-3.8,6.7-5.8C4998,1344.9,4998.8,1344.2,4999.5,1343.4
		L4999.5,1343.4z"/>
	<path class="st11" d="M4759.7,1322.6c86.3-29.7,166.9-72.7,239.8-126.9v147.8c-0.8,0.7-1.6,1.4-2.3,2.1c-2.2,1.9-4.4,3.9-6.7,5.8
		c-4.4,3.8-8.8,7.4-13.2,11.1c-11.1,9.1-22.4,17.9-34,26.4c-3,2.2-6,4.4-9,6.6c-4,2.9-7.9,5.7-12,8.4c-3.2,2.2-6.5,4.4-9.7,6.6
		c-0.5,0.4-1.1,0.7-1.6,1.1c-3.4,2.3-6.7,4.4-10.1,6.6c-4.8,3.1-9.5,6.1-14.3,9c-0.1,0-0.1,0.1-0.2,0.1c-4.9,3-9.8,5.9-14.7,8.8
		c-7.4,4.3-14.9,8.5-22.4,12.6c-3.5,1.9-7.1,3.8-10.7,5.7c-5.6,2.9-11.3,5.8-17,8.6c-3.4,1.7-6.7,3.3-10.2,4.9
		c-2.4,1.2-4.9,2.3-7.4,3.4c-1.7,0.8-3.5,1.6-5.2,2.4c-9,4.1-18.1,8-27.3,11.7c-2.3,0.9-4.6,1.9-6.9,2.8c-1.9,0.7-3.8,1.5-5.7,2.2
		c-2.6,1-5.1,2-7.7,2.9c-3.2,1.2-6.4,2.4-9.6,3.5c-1.2,0.4-2.4,0.9-3.6,1.3c-2.8,1-5.7,2-8.5,3c-4,1.4-8.1,2.8-12.2,4.1
		c-1.9,0.6-3.7,1.2-5.6,1.8c-3.2,1-6.3,2-9.5,2.9c-2.5,0.7-5,1.5-7.6,2.2c-3.7,1.1-7.5,2.1-11.2,3.2c-2.6,0.7-5.2,1.4-7.8,2.1
		c-6.5,1.7-13,3.3-19.6,4.9c-2.1,0.5-4.1,1-6.2,1.4c-2.6,0.6-5.3,1.2-7.9,1.8c-3.1,0.7-6.2,1.3-9.3,1.9c-3.6,0.7-7.2,1.4-10.8,2.1
		c-2.4,0.4-4.7,0.9-7.1,1.3c-2.2,0.4-4.5,0.8-6.7,1.1c-1.8,0.3-3.6,0.6-5.5,0.9c-2.3,0.4-4.6,0.8-7,1.1c-2.3,0.4-4.7,0.7-7,1
		c-1.7,0.2-3.4,0.5-5.1,0.7c-3.3,0.5-6.6,0.9-9.8,1.3c-2,0.3-4.1,0.5-6.1,0.7c-10,1.1-20,2.1-30.1,2.8c-1.6,0.1-3.2,0.2-4.7,0.3
		c-4.2,0.3-8.4,0.6-12.6,0.8c-2.1,0.1-4.3,0.2-6.4,0.3c-2.7,0.1-5.5,0.2-8.2,0.3c-2.4,0.1-4.7,0.1-7.1,0.2c-2.5,0.1-5,0.1-7.6,0.1
		c-3.5,0.1-7,0.1-10.5,0.1s-7,0-10.5-0.1c-14.1-0.2-28-0.7-41.9-1.7c-2.2-0.1-4.3-0.3-6.5-0.5c-1.5-0.1-3.1-0.2-4.6-0.4
		c-4.5-0.4-9-0.8-13.5-1.2c-2.1-0.2-4.3-0.4-6.4-0.7c-1.3-0.1-2.7-0.3-4-0.4c-1.4-0.1-2.7-0.3-4-0.5c-3.2-0.4-6.5-0.8-9.7-1.2
		c-4.9-0.6-9.9-1.3-14.8-2.1c-1.7-0.2-3.4-0.5-5.1-0.8c-0.4,0-0.8-0.1-1.2-0.2c-1.8-0.3-3.6-0.6-5.5-0.9c-2.2-0.4-4.5-0.8-6.7-1.1
		c-3.7-0.6-7.3-1.3-11-2.1c-2.8-0.5-5.6-1.1-8.5-1.7c-2.6-0.5-5.1-1.1-7.6-1.6c-0.3-0.1-0.7-0.1-1-0.2c-2.4-0.5-4.8-1-7.2-1.6
		c-5.2-1.2-10.5-2.4-15.7-3.7c-3.2-0.8-6.4-1.6-9.5-2.4c-3-0.8-6-1.6-9-2.4c-0.4-0.1-0.9-0.2-1.3-0.4c-1.4-0.4-2.9-0.8-4.3-1.2
		c-1.5-0.4-3-0.9-4.5-1.3c-2.8-0.8-5.7-1.6-8.5-2.5c-3.5-1.1-7.1-2.2-10.6-3.3c-2.6-0.8-5.3-1.7-7.9-2.6c-1.2-0.4-2.4-0.8-3.6-1.2
		c-2.6-0.8-5.1-1.7-7.6-2.6c-3.2-1.1-6.3-2.2-9.4-3.3c-0.3-0.1-0.6-0.2-0.9-0.3c-2.1-0.7-4.1-1.5-6.1-2.2c-4.1-1.5-8.1-3.1-12.2-4.7
		c-3.4-1.3-6.9-2.7-10.3-4.1c-6.9-2.8-13.8-5.7-20.6-8.8c-2.6-1.2-5.2-2.3-7.9-3.5c-2.4-1.1-4.8-2.2-7.1-3.3
		c-2.3-1.1-4.6-2.1-6.9-3.3c-3-1.4-5.9-2.9-8.9-4.3c-2.8-1.4-5.7-2.8-8.5-4.3c-3-1.5-6.1-3.1-9.1-4.7c-2.9-1.5-5.8-3.1-8.7-4.6
		c-1.6-0.9-3.2-1.8-4.8-2.6c-2.3-1.3-4.7-2.6-7-3.9c-2.3-1.3-4.6-2.6-6.9-3.9c-1.9-1.1-3.8-2.2-5.7-3.3
		c-10.4-6.1-20.7-12.5-30.9-19.1c-3.1-2-6.2-4.1-9.3-6.1c-2-1.3-3.9-2.6-5.9-4c-2-1.3-3.9-2.7-5.8-4c-7.3-5-14.5-10.2-21.6-15.6
		c-1.1-0.8-2.2-1.6-3.2-2.4c-6.9-5.1-13.7-10.4-20.4-15.8c-2.8-2.3-5.7-4.6-8.5-6.9c-4.5-3.7-9-7.4-13.4-11.3
		c-0.2-0.2-0.4-0.4-0.7-0.6c-0.4-0.4-0.8-0.7-1.2-1c-3.1-2.7-6.1-5.4-9.2-8.1c-2.1-1.9-4.3-3.8-6.4-5.8c-2.4-2.2-4.8-4.4-7.1-6.6
		c-3.2-3-6.4-6-9.6-9c-1.6-1.5-3.1-3-4.7-4.5c-6.5-6.4-13-12.9-19.3-19.5c-2.5-2.6-5-5.2-7.4-7.8c-2.2-2.3-4.3-4.6-6.5-7
		c-6.9-7.5-13.6-15.1-20.2-22.9c-2.4-2.8-4.7-5.6-7.1-8.4c-6.6-7.9-13-16-19.4-24.2c-1.4-1.8-2.7-3.5-4-5.3
		c-1.9-2.5-3.8-5.1-5.7-7.6c-1.6-2.1-3.2-4.2-4.7-6.4c-1.7-2.4-3.4-4.7-5.2-7.1c-1.7-2.4-3.4-4.7-5-7.1c-4.6-6.6-9.1-13.3-13.5-20
		c-1.2-1.8-2.4-3.7-3.6-5.5c-1.2-1.8-2.4-3.7-3.6-5.6c-1.2-1.9-2.4-3.7-3.5-5.6c-1.6-2.5-3.1-5-4.6-7.5c-1.2-1.9-2.3-3.8-3.4-5.7
		c-1-1.6-1.9-3.2-2.9-4.8c-0.5-0.7-0.9-1.5-1.4-2.3c-2.2-3.8-4.5-7.6-6.6-11.5c-5.6-9.8-10.9-19.7-16.1-29.7
		c-5.4-10.5-10.7-21.2-15.8-31.9c-3.8-8.1-7.5-16.2-11-24.5c-9.5-21.9-18.1-44.4-25.9-67.3c-1.9-5.7-3.8-11.5-5.7-17.2
		c-1.8-5.8-3.6-11.6-5.3-17.4c-1.7-5.8-3.4-11.7-5-17.6c-0.9-3.4-1.8-6.8-2.7-10.2c-0.9-3.4-1.8-6.8-2.6-10.2
		c-0.3-1.1-0.6-2.3-0.8-3.4c-0.8-3.4-1.7-6.9-2.5-10.3c-0.8-3.5-1.6-7-2.4-10.5c0,0.1,0.1,0.1,0.1,0.1
		c155.7,296.6,453.1,497.2,794.4,497.2c16.2,0,32.4-0.4,48.4-1.4c5.1-0.3,10.1-0.6,15.1-1c0,0,0,0,0,0h0
		c65.4-4.8,128.9-17,189.9-35.8C4742.4,1328.4,4751.1,1325.6,4759.7,1322.6L4759.7,1322.6z"/>
</g>
<g>
</g>
<g>
</g>
<g>
</g>
<g>
</g>
<g>
</g>
<g>
</g>
<g>
</g>
<g>
</g>
<g>
</g>
<g>
</g>
<g>
</g>
<g>
</g>
<g>
</g>
<g>
</g>
<g>
</g>
</svg>
