<?xml version="1.0" encoding="utf-8"?>
<!-- Generator: Adobe Illustrator 22.1.0, SVG Export Plug-In . SVG Version: 6.00 Build 0)  -->
<svg version="1.1" id="Calque_1" xmlns="http://www.w3.org/2000/svg" xmlns:xlink="http://www.w3.org/1999/xlink" x="0px" y="0px"
	 viewBox="0 0 5000 3000" style="enable-background:new 0 0 5000 3000;" xml:space="preserve">
<style type="text/css">
	.st0{fill:#F8BBD0;}
	.st1{opacity:0.11;fill:#F48FB1;}
	.st2{fill:#F48FB1;}
	.st3{fill:#EDEDF0;}
	.st4{fill:#FFFFFF;}
</style>
<g>
	<rect x="0.5" y="0.5" class="st0" width="4999" height="3008"/>
	<path d="M4999,1v3007H1V1H4999 M5000,0H0v3009h5000V0L5000,0z"/>
</g>
<path class="st1" d="M4557.6,2316.5c-5.9,0-11.8,0.2-17.6,0.5c-29.9-119.5-75.9-266-146.2-418.2
	c-133.1-288.4-315.5-511.9-538.5-663.5l76.6-137c63.2,6.2,105.4,10.4,132.7,13.2c24.6,2.5,45.8-18.2,45.8-44.6v-49
	c0-24.8-18.8-44.8-41.9-44.8h-451.8c0,0-55.8,89.5,192.5,113.4c13.2,1.3,25.7,2.5,37.8,3.6l-57.6,103.1
	c-120.2-71.6-251.2-123.5-391.8-154.8l19.9-201.7h-76.3c-40.9,0-74.1-35.6-74.1-79.3c0-43.7,33.3-79.3,74.1-79.3H3518
	c12.5,20.3,34,33.8,58.5,33.8c38.7,0,70-33.5,70-74.9c0-41.4-31.3-74.9-70-74.9c-24.5,0-46,13.4-58.5,33.8h-176.9
	c-83.3,0-151,72.5-151,161.6c0,85.8,62.9,156.2,141.9,161.3l-35.5,359.2c-22.4-2-45-3.2-67.9-3.2c-452.8,0-819.9,392.7-819.9,877.2
	c0,484.4,367.1,877.2,819.9,877.2c452.8,0,819.9-392.7,819.9-877.2c0-431.8-291.7-790.4-675.7-863.4l16.6-168
	c414,94,728.3,367.1,934.5,812.4c66.4,143.4,110.6,283.2,139.7,398.2c-138.1,43.5-238.9,180-238.9,341.7
	c0,196.8,149.1,356.2,333,356.2s333-159.5,333-356.2C4890.6,2476,4741.5,2316.5,4557.6,2316.5z M3282.2,1422.1l-42.6,430.2v-432.5
	C3254,1420.2,3268.1,1421,3282.2,1422.1z M3228.5,2282.7c-67.5,0-122.3-58.7-122.3-130.9c0-72.2,54.9-130.9,122.3-130.9
	s122.3,58.7,122.3,130.9C3350.9,2224,3296,2282.7,3228.5,2282.7z M3217.4,1419.9v530.2c-20.1,1.3-39.3,5.8-57.2,13.3l-206.3-482.3
	C3034.8,1443.2,3123.8,1421.5,3217.4,1419.9z M2933.6,1491l206.3,482.3c-17.1,9.7-32.6,22.2-46.1,36.9c0,0,0,0,0,0l-373.3-349
	C2780.2,1590.6,2852.5,1532.5,2933.6,1491z M2706,1679.1l373.3,349c0,0,0,0,0,0c-12.8,17.6-22.9,37.5-29.7,59.1
	c1.2-4,2.5-7.9,4-11.7l-469.3-171.1C2612.2,1821.2,2653.8,1745.2,2706,1679.1z M2577.2,1926.9l469.3,171.1
	c-3.5,13.5-5.8,27.5-6.6,41.9h-495.5C2545.5,2065.7,2556.9,1994.1,2577.2,1926.9z M2544.4,2163.7H3040c1.2,21.5,5.5,42.1,12.4,61.2
	l-450.8,220.7C2566.2,2359.2,2545.9,2263.9,2544.4,2163.7z M2610.8,2467.4l450.8-220.7c-1.9-3.8-3.7-7.8-5.3-11.8
	c9.7,22.9,23.2,43.6,39.7,61l-326.2,399.3C2703.9,2631.5,2649.6,2554.2,2610.8,2467.4z M2786.7,2710.8l326.2-399.3c0,0,0,0,0,0
	c16.5,13.7,35,24.5,55.2,31.8c-3.7-1.3-7.3-2.7-10.9-4.3l-160,502C2919.6,2811.2,2848.5,2766.8,2786.7,2710.8z M3018.3,2848.7
	l160-502.1l0,0c12.6,3.7,25.7,6.2,39.2,7.1v530.1C3148,2882.5,3081.2,2870.4,3018.3,2848.7z M3239.7,2883.7v-530.2
	c20.1-1.3,39.3-5.8,57.2-13.3l206.3,482.3C3422.3,2860.5,3333.3,2882.1,3239.7,2883.7z M3523.5,2812.7l-206.3-482.3
	c17.1-9.7,32.6-22.2,46.1-36.9c0,0,0,0,0,0l373.3,349C3676.9,2713.1,3604.6,2771.2,3523.5,2812.7z M3751,2624.5l-373.3-349
	c12.8-17.6,22.9-37.5,29.7-59c-1.2,4-2.5,7.9-4,11.7l469.3,171.1C3844.9,2482.4,3803.3,2558.4,3751,2624.5z M3879.9,2376.8
	l-469.3-171.1c3.5-13.5,5.8-27.5,6.6-41.9h495.5C3911.6,2238,3900.2,2309.5,3879.9,2376.8z M3912.7,2139.9h-495.6
	c-1.2-21.5-5.5-42.1-12.4-61.2l450.8-220.7C3890.9,1944.5,3911.2,2039.7,3912.7,2139.9z M3846.3,1836.3L3395.4,2057
	c1.9,3.8,3.7,7.8,5.3,11.8c-9.7-22.9-23.2-43.6-39.7-61l326.2-399.3C3753.2,1672.2,3807.5,1749.5,3846.3,1836.3z M3670.4,1592.8
	l-326.2,399.3c0,0,0,0,0,0c-11.8-9.8-24.8-18.1-38.6-24.8l2.9-29.8l151.3-475C3537.5,1492.4,3608.6,1536.9,3670.4,1592.8z
	 M3438.8,1455l-119.7,375.7l39.3-397.6C3385.8,1438.7,3412.7,1446,3438.8,1455z M4767.8,2565.4l-153.4,75.1c0.7,1.3,1.2,2.6,1.8,4
	c-3.3-7.8-7.9-14.8-13.5-20.8l111-135.9C4736.1,2509.6,4754.6,2535.9,4767.8,2565.4z M4708,2482.6l-111,135.9
	c-1.5-1.2-3.1-2.2-4.7-3.3v-11l-0.2-3.9c-0.1-1.6-0.7-7.6-1.8-17.3l46.1-144.6C4662.8,2448.4,4686.9,2463.5,4708,2482.6z
	 M4557.6,2717.3c-22.9,0-41.6-20-41.6-44.5c0-24.6,18.7-44.5,41.6-44.5c22.9,0,41.6,20,41.6,44.5
	C4599.3,2697.3,4580.6,2717.3,4557.6,2717.3z M4629.2,2435.7l-41.1,129.1c-4-30.5-11.2-79.1-23.8-140.9
	C4586.8,2424.6,4608.6,2428.6,4629.2,2435.7z M4507.4,2545.5l-43.2-101c7.6-3.5,15.3-6.6,23.3-9.3
	C4496.6,2479.5,4503,2516.9,4507.4,2545.5z M4457.3,2447.9l54.3,127c2.2,16.5,3.4,27.3,3.8,31.4v12.5h2.5c-2.1,1.8-4.2,3.7-6.1,5.7
	c0,0,0,0,0,0l-127-118.7C4405.1,2481.8,4429.7,2462,4457.3,2447.9z M4379.9,2511.9l127,118.7l0,0c-4.4,6-7.8,12.8-10.1,20.1
	c0.4-1.3,0.9-2.7,1.4-4l-159.6-58.2C4348,2560.3,4362.1,2534.4,4379.9,2511.9z M4324.9,2676.8h168.6c-0.1-1.3-0.2-2.7-0.2-4
	c0-1.4,0.1-2.7,0.2-4h-168.6c0.4-25.3,4.2-49.6,11.2-72.5l159.7,58.2c-1.5,5.8-2.4,12-2.4,18.3c0,8.8,1.6,17.2,4.4,24.9l-153.4,75.1
	C4332.3,2743.3,4325.4,2710.9,4324.9,2676.8z M4347.5,2780.1l153.4-75.1c-0.6-1.3-1.2-2.6-1.8-4c3.3,7.8,7.9,14.8,13.5,20.8
	l-111,135.9C4379.2,2835.9,4360.7,2809.6,4347.5,2780.1z M4407.3,2862.9l111-135.9c0,0,0,0,0,0c5.6,4.7,11.9,8.3,18.8,10.8
	c-1.3-0.4-2.5-0.9-3.7-1.5l-54.4,170.8C4452.5,2897.1,4428.3,2882,4407.3,2862.9z M4561.4,2921.8v-180.4c-1.3,0.1-2.5,0.2-3.8,0.2
	c-1.3,0-2.5-0.1-3.8-0.2v180.4c-23.6-0.4-46.4-4.5-67.8-11.9l54.4-170.8l0,0c5.5,1.6,11.2,2.6,17.1,2.6c8.2,0,16-1.7,23.3-4.7
	l70.2,164.1C4623.6,2913.8,4593.3,2921.2,4561.4,2921.8z M4658,2897.6l-70.2-164.1c5.8-3.3,11.1-7.6,15.7-12.5c0,0,0,0,0,0
	l127,118.7C4710.2,2863.7,4685.6,2883.5,4658,2897.6z M4735.4,2833.6l-127-118.7c4.4-6,7.8-12.8,10.1-20.1c-0.4,1.3-0.9,2.7-1.4,4
	l159.6,58.2C4767.3,2785.2,4753.2,2811.1,4735.4,2833.6z M4622,2672.8c0,1.4-0.1,2.7-0.2,4h168.6c-0.4,25.3-4.2,49.6-11.1,72.5
	l-159.7-58.2C4621.1,2685.2,4622,2679.1,4622,2672.8c0-8.8-1.6-17.2-4.4-24.9l153.4-75.1c12.1,29.4,19,61.8,19.5,95.9h-168.6
	C4621.8,2670.1,4622,2671.4,4622,2672.8z"/>
<path class="st1" d="M1769.3,1354c-46,0-91,4.7-134.7,13.2l-95-446.3c24.8,17.6,55.6,32,92.3,34.6c16.6,1.2,34.9-30.7,40.8-42.8
	c29.6-61.1,27.7-166.7,8.5-231.7c-5.1-17.2-25.1-67.6-49.3-65.9c-66.5,4.8-114.2,48-140.5,79.5l-19.4-91
	c-8.1-38-31.2-70.3-63.3-88.6c-32.1-18.3-70-20.8-104-6.9l-181.5,74.4c-17.3-12.9-38.3-20.5-61-20.5c-59.1,0-106.9,51.2-106.9,114.4
	s47.9,114.4,106.9,114.4c51.8,0,94.9-39.4,104.8-91.7l179.8-73.7c2.3-0.9,4.5-0.8,6.7,0.4c2.2,1.2,3.5,3.2,4.1,5.7l58.4,274.3
	c-31.8,66.4-155.5,304-399.1,541.4c-145.5,141.7-351.2,298.4-623.6,410.5L39.4,797c8.7-0.8,17.4-1.7,26.4-2.5
	C444.9,758,359.7,621.3,359.7,621.3H0v431.4l282.5,846.9c-37.1,12.7-75.4,24.5-114.8,35.4C135.4,1814,77.2,1704.8,0,1614.5v324.2
	c3.7,10.9,7.1,22,10.3,33.1c-3.4,0.7-6.9,1.3-10.3,2v349h14.4c-2.2,8.6-4.3,17.4-6.8,25.9l-7.6-2.8v21.6l1.5,0.5
	c-0.5,1.4-1,2.8-1.5,4.3v323.9c88.4-103.3,151.8-231.4,180-373.4H654l77.7-498.6c147.2-90.7,268.1-190.5,364.2-284.1
	c174.3-169.8,290.3-338.7,358.5-454l66.7,313.1c-291.6,109.6-500.7,406.6-500.7,756c0,442.5,335.3,801.3,749,801.3
	c413.6,0,749-358.7,749-801.3C2518.2,1712.7,2182.9,1354,1769.3,1354z M2357.4,2145.1h-426.1c-1-18.5-4.7-36.2-10.7-52.6
	l387.6-189.8C2338.7,1977,2356.1,2058.9,2357.4,2145.1z M2300.3,1884l-387.6,189.8c1.6,3.3,3.1,6.7,4.6,10.1
	c-8.3-19.7-19.9-37.5-34.2-52.5l280.4-343.3C2220.3,1742.9,2267,1809.4,2300.3,1884z M2149.1,1674.7L1868.7,2018
	c-7.1-5.9-14.6-11.1-22.5-15.7c-7.9-4.6-16.2-8.5-24.9-11.6c3.2,1.1,6.3,2.3,9.4,3.7l137.5-431.6
	C2034.9,1588.4,2096,1626.6,2149.1,1674.7z M1778.8,1981.7V1526c59.7,1,117.1,11.5,171.2,30.1l-137.5,431.7c-6.9-2-14-3.6-21.2-4.7
	C1787.2,1982.4,1783.1,1982,1778.8,1981.7v0.2c-2.7-0.2-5.5-0.4-8.2-0.5C1773.4,1981.4,1776.1,1981.5,1778.8,1981.7z M1759.7,1526
	v428.8l-89.4-420C1699.4,1529.5,1729.3,1526.5,1759.7,1526z M1557,1568.2L1585,1700l-51.9-121.4
	C1541,1575,1548.9,1571.5,1557,1568.2z M1515.7,1587.1l90.2,210.8l49.7,233.5c-0.7,0.7-1.5,1.3-2.1,2l-320.9-300
	C1383.8,1672.7,1446,1622.8,1515.7,1587.1z M1320.1,1748.9l320.9,300c-11,15.1-19.7,32.2-25.6,50.8c1-3.4,2.2-6.8,3.4-10.1
	l-403.4-147.1C1239.4,1871.1,1275.1,1805.7,1320.1,1748.9z M1209.3,1961.9l403.5,147.1c-3,11.6-5,23.6-5.7,36.1h0.2
	c-0.2,2.9-0.4,5.8-0.5,8.8c0-3,0.1-5.9,0.3-8.8h-425.9C1182.1,2081.2,1191.8,2019.7,1209.3,1961.9z M1181.1,2165.5h426.1
	c1,18.4,4.7,36.2,10.7,52.6l-387.6,189.8C1199.8,2333.5,1182.4,2251.6,1181.1,2165.5z M1238.2,2426.6l387.6-189.8
	c-1.7-3.3-3.1-6.7-4.6-10.1c8.3,19.7,19.9,37.5,34.2,52.5L1375,2622.5C1318.2,2567.6,1271.6,2501.2,1238.2,2426.6z M1389.4,2635.9
	l280.4-343.3c14.2,11.8,30.1,21.1,47.4,27.3c-3.2-1.1-6.3-2.3-9.4-3.7l-137.5,431.6C1503.6,2722.2,1442.5,2684,1389.4,2635.9z
	 M1759.7,2328.8v455.7c-59.6-1-117.1-11.5-171.2-30.1l137.5-431.7C1736.9,2325.9,1748.1,2328.1,1759.7,2328.8v-0.2
	c2.7,0.2,5.5,0.4,8.2,0.5C1765.2,2329.1,1762.4,2329,1759.7,2328.8z M1769.3,2267.8c-58,0-105.2-50.5-105.2-112.5
	c0-43.4,23.1-81.1,56.9-99.8l51.3-12.5c56.6,1.7,102.1,51.4,102.1,112.3C1874.4,2217.3,1827.3,2267.8,1769.3,2267.8z M1778.8,2784.5
	v-455.9c17.3-1.1,33.8-5,49.2-11.4l177.4,414.7C1935.9,2764.5,1859.3,2783.2,1778.8,2784.5z M2022.8,2723.5l-177.4-414.7
	c14.7-8.4,28-19.1,39.6-31.7l320.9,300C2154.7,2637.8,2092.6,2687.8,2022.8,2723.5z M2218.5,2561.7l-320.9-300
	c11-15.1,19.7-32.2,25.6-50.8c-1.1,3.4-2.2,6.8-3.4,10.1l403.4,147.1C2299.2,2439.5,2263.4,2504.9,2218.5,2561.7z M2329.3,2348.7
	l-403.5-147.1c3-11.6,5-23.6,5.7-36h-0.2c0.2-2.9,0.4-5.8,0.5-8.8c0,3-0.1,5.9-0.3,8.8h425.9
	C2356.5,2229.3,2346.7,2290.8,2329.3,2348.7z"/>
<g>
	<line class="st2" x1="2205.7" y1="782.9" x2="2854.2" y2="782.9"/>
	<path class="st2" d="M2205.7,782.9l20.3-0.3l20.3-0.2l40.5-0.4l81.1-0.6c54-0.4,108.1-0.4,162.1-0.5l81.1,0.1
		c27,0.1,54,0.1,81.1,0.4l81.1,0.6l40.5,0.5l20.3,0.2l20.3,0.3l-20.3,0.3l-20.3,0.2l-40.5,0.5l-81.1,0.6c-27,0.2-54,0.2-81.1,0.4
		l-81.1,0.1c-54-0.1-108.1-0.1-162.1-0.5l-81.1-0.6l-40.5-0.4l-20.3-0.2L2205.7,782.9z"/>
</g>
<g>
	<g>
		<path class="st3" d="M3229,1651.8c-29.1,0-57.5,3-85.1,8.5l-114.6-552.7h-209.9c-11.9-19.3-32.3-32-55.5-32
			c-36.7,0-66.4,31.8-66.4,71c0,39.2,29.7,71,66.4,71c23.2,0,43.6-12.7,55.5-32h151.4l34.5,166.4c-1,4-2.3,9.3-4.2,16
			c-48.8,78.4-275.4,406.5-659.8,431.9l-174-533.6c6.4-0.6,12.8-1.2,19.5-1.9c235.4-22.6,182.5-107.5,182.5-107.5h-428.4
			c-21.9,0-39.7,19-39.7,42.5v46.4c0,25.1,20.1,44.7,43.4,42.3c29-2.9,75.6-7.6,147.9-14.6l107.1,328.3l-144.4,153.8
			c-78.6-65-177.1-103.8-284.1-103.8c-256.8,0-465,222.7-465,497.5c0,274.8,208.2,497.5,465,497.5c251.9,0,456.9-214.4,464.6-481.9
			h60.3c16.1,65.2,71.5,113.3,137.4,113.3c78.6,0,142.3-68.2,142.3-152.3c0-34.2-10.7-65.7-28.5-91.1
			c288.3-133.3,427-382,488.3-537.4l37.9,183c-180.3,68.5-309.4,252.5-309.4,468.9c0,274.8,208.2,497.5,465,497.5
			c256.8,0,465-222.7,465-497.5C3694,1874.5,3485.8,1651.8,3229,1651.8z M2334.7,2016.3c-18.5,19-32,43.3-38.8,70.6h-63.7
			c-12.6-107.4-57.1-204.1-123.1-278.9l117-124.6L2334.7,2016.3z M1771,2219.1c-36,0-65.3-31.3-65.3-69.9
			c0-38.5,29.3-69.9,65.3-69.9c36,0,65.3,31.3,65.3,69.9C1836.3,2187.8,1807,2219.1,1771,2219.1z M2038.5,1883.2
			c25.1,28.8,46.2,61.7,62.2,97.6l-216.6,106.1h-29.6v2.1c-1.2-2-2.5-3.8-3.9-5.7L2038.5,1883.2z M1912.7,2086.9l192.9-94.5
			c12.2,29.7,21,61.4,25.9,94.5H1912.7z M1983.7,1831.6l-159.2,169.5l70-219.7C1926.6,1793.7,1956.5,1810.7,1983.7,1831.6z
			 M1776.9,2041.6v-283c37,0.6,72.7,7.1,106.3,18.7l-77.7,244l-18.3,19.5l2.4,2.6c-6-1.2-12.2-2.1-18.6-2.1
			C1773,2041.3,1775,2041.5,1776.9,2041.6z M1765.1,1758.6v283c-10.7,0.7-21,3.1-30.5,7.1l-110.1-257.4
			C1667.6,1771,1715.1,1759.4,1765.1,1758.6z M1613.6,1796.5l110.1,257.5c-9.1,5.2-17.4,11.9-24.6,19.7c0,0,0,0,0,0l-199.2-186.3
			C1531.7,1849.7,1570.3,1818.7,1613.6,1796.5z M1492.1,1896.9l199.2,186.3c0,0,0,0,0,0c-6.8,9.4-12.2,20-15.9,31.5
			c0.7-2.1,1.4-4.2,2.1-6.2l-250.5-91.3C1442,1972.8,1464.2,1932.2,1492.1,1896.9z M1423.3,2029.2l250.5,91.4
			c-2.4,9.2-3.7,18.8-3.7,28.7c0-2.1,0.2-4.2,0.3-6.4h-264.6C1406.4,2103.3,1412.5,2065.1,1423.3,2029.2z M1405.8,2155.6h264.5
			c0.6,11.5,2.9,22.4,6.6,32.7l-240.6,117.8C1417.5,2259.9,1406.6,2209.1,1405.8,2155.6z M1441.3,2317.7l240.6-117.8
			c-1-2-2-4.1-2.8-6.3c5.2,12.2,12.4,23.3,21.2,32.6l-174.1,213.2C1491,2405.3,1462,2364,1441.3,2317.7z M1535.2,2447.6l174.1-213.2
			l0,0c8.8,7.3,18.7,13.1,29.5,17c-2-0.7-3.9-1.4-5.8-2.3l-85.4,268C1606.1,2501.2,1568.1,2477.5,1535.2,2447.6z M1765.1,2256.9v283
			c-37-0.6-72.7-7.1-106.3-18.7l85.4-268l0,0c8.6,2.5,17.5,4,26.9,4C1769,2257.2,1767.1,2257,1765.1,2256.9z M1776.9,2539.9v-283
			c10.7-0.7,21-3.1,30.6-7.1l110.1,257.4C1874.5,2527.5,1826.9,2539.1,1776.9,2539.9z M1928.5,2502l-110.1-257.5
			c9.1-5.2,17.4-11.9,24.6-19.7c0,0,0,0,0,0l199.2,186.3C2010.3,2448.8,1971.7,2479.9,1928.5,2502z M2049.9,2401.6l-199.2-186.3
			c6.8-9.4,12.2-20,15.9-31.5c-0.7,2.1-1.4,4.2-2.1,6.2l250.5,91.3C2100,2325.7,2077.8,2366.3,2049.9,2401.6z M2118.7,2269.3
			l-250.5-91.4c1.1-4.3,1.9-8.7,2.6-13.1h265C2134.4,2201.2,2128.7,2236.2,2118.7,2269.3z M2476.9,1980.9
			c-13.7-4.7-28.3-7.3-43.5-7.3c-11.7,0-23,1.7-33.9,4.5l-33.2-101.9c229.1-20.8,403.2-137,521.5-250.7
			C2807.7,1756.1,2678.8,1899.9,2476.9,1980.9z M3594.2,2142.9h-264.5c-0.6-11.5-2.9-22.4-6.6-32.7l240.6-117.8
			C3582.6,2038.6,3593.4,2089.4,3594.2,2142.9z M3558.7,1980.8l-240.6,117.8c1,2,1.9,4.1,2.8,6.3c-5.2-12.2-12.4-23.3-21.2-32.6
			l174.1-213.2C3509,1893.2,3538,1934.5,3558.7,1980.8z M3464.8,1850.9L3290.7,2064c-8.8-7.3-18.7-13.1-29.5-17
			c2,0.7,3.9,1.5,5.8,2.3l85.4-268C3393.9,1797.3,3431.9,1821,3464.8,1850.9z M3229,2219.1c-36,0-65.3-31.3-65.3-69.9
			c0-38.5,29.3-69.9,65.3-69.9c36,0,65.3,31.3,65.3,69.9C3294.3,2187.8,3265,2219.1,3229,2219.1z M3234.9,2041.6v-283
			c37,0.6,72.7,7.1,106.3,18.7l-85.4,268c-8.6-2.5-17.5-4-26.9-4C3231,2041.3,3233,2041.5,3234.9,2041.6z M3223.1,1758.6v283
			c0,0-0.1,0-0.1,0l-57.4-277.2C3184.2,1760.9,3203.5,1758.9,3223.1,1758.6z M3109.6,1854.9l-27.2-63.6c4.2-2,8.5-3.8,12.9-5.6
			L3109.6,1854.9z M3071.6,1796.5l50.3,117.6l30.1,145.3l29.1-6.9l0.6,1.5c-9.1,5.2-17.4,11.9-24.6,19.7c0,0,0,0,0,0l-199.2-186.3
			C2989.7,1849.7,3028.3,1818.7,3071.6,1796.5z M2950.1,1896.9l199.2,186.3c0,0,0,0,0,0c-6.8,9.4-12.2,20-15.9,31.5
			c0.7-2.1,1.4-4.2,2.1-6.2l-250.5-91.3C2900,1972.8,2922.2,1932.2,2950.1,1896.9z M2881.3,2029.2l250.5,91.4
			c-2.4,9.2-3.7,18.8-3.7,28.7c0-2.1,0.2-4.2,0.3-6.4h-264.6C2864.4,2103.3,2870.5,2065.1,2881.3,2029.2z M2863.8,2155.6h264.5
			c0.6,11.5,2.9,22.4,6.6,32.7l-240.6,117.8C2875.4,2259.9,2864.6,2209.1,2863.8,2155.6z M2899.3,2317.7l240.6-117.8
			c-1-2-2-4.1-2.8-6.3c5.2,12.2,12.4,23.3,21.2,32.6l-174.1,213.2C2949,2405.3,2920,2364,2899.3,2317.7z M2993.1,2447.6l174.1-213.2
			l0,0c8.8,7.3,18.7,13.1,29.5,17c-2-0.7-3.9-1.4-5.8-2.3l-85.4,268C3064.1,2501.2,3026.1,2477.5,2993.1,2447.6z M3223.1,2256.9v283
			c-37-0.6-72.7-7.1-106.3-18.7l85.4-268l0,0c8.6,2.5,17.5,4,26.9,4C3227,2257.2,3225,2257,3223.1,2256.9z M3234.9,2539.9v-283
			c10.7-0.7,21-3.1,30.6-7.1l110.1,257.4C3332.4,2527.5,3284.9,2539.1,3234.9,2539.9z M3386.4,2502l-110.1-257.5
			c9.1-5.2,17.4-11.9,24.6-19.7c0,0,0,0,0,0l199.2,186.3C3468.3,2448.8,3429.7,2479.9,3386.4,2502z M3507.9,2401.6l-199.2-186.3
			c6.8-9.4,12.2-20,15.9-31.5c-0.7,2.1-1.4,4.2-2.1,6.2l250.5,91.3C3558,2325.7,3535.8,2366.3,3507.9,2401.6z M3576.7,2269.3
			l-250.5-91.4c2.4-9.2,3.7-18.8,3.7-28.7c0,2.1-0.2,4.2-0.3,6.4h264.6C3593.6,2195.2,3587.5,2233.4,3576.7,2269.3z"/>
		<polygon class="st3" points="3442.7,1500.3 3442.7,1132.6 3078.2,1222.5 3177.1,1544.8 		"/>
	</g>
</g>
<g>
	<path class="st4" d="M1795,440.1c-2,0-2.9-1.8-2.9-5.4l1-43l-1.4-18.1c0-2.4-0.4-5.9-1.3-10.4c-0.8-4.6-1.3-7.7-1.3-9.5
		s-0.2-3.7-0.6-5.8c-0.4-2.1-0.9-4.6-1.6-7.6c-0.7-3-1.2-5.3-1.5-6.9c-0.3-1.6-1.1-6.1-2.4-13.3c-2.8-15.2-5.1-26.2-7.1-33.1
		c-1.9-6.9-2.9-11.3-2.9-13.2c0-3,1.4-4.6,4.2-4.6l2.4,1.7c0.3,6,2.2,17.7,5.4,35.2c3.3,17.4,5.8,27.5,7.7,30.1
		c2.2-6.8,3.7-15.4,4.5-25.6c0.8-10.3,1.5-18,2-23.3c1.2-11.6,3.2-17.4,5.8-17.4c2.1,0,3.2,0.8,3.2,2.4c0,1.2-0.3,2.8-0.8,4.8
		c-0.5,2.1-0.9,3.9-1.2,5.5c-0.2,1.6-1,6.4-2.3,14.3c-1.3,7.9-2.3,13.9-2.9,17.8c-1.8,11.8-2.7,22.7-2.7,32.5l0.6,7.3l-1.3,3.4v1.7
		l1.5,26.8c0,20.1-0.1,35.1-0.4,45.1l0.6,0.7l0.2,1.5c0,1.7-0.4,3.2-1.2,4.5C1797.7,439.5,1796.5,440.1,1795,440.1z"/>
	<path class="st4" d="M1876.6,370.2l-1.9,28.7l0.4,0.9c-1.1,5-1.6,9.5-1.6,13.5c0,4-0.7,8.1-2.2,12.4c-1.5,4.2-3.7,8.1-6.7,11.4
		c-3,3.4-6.1,5.1-9.5,5.1c-3.4,0-6.5-1.4-9.5-4.1c-2.9-2.8-5.3-6.3-7.3-10.6c-1.9-4.3-3.6-9.4-5.1-15.3c-1.5-5.9-2.6-11.7-3.4-17.4
		c-0.8-5.7-1.5-11.6-2-17.7c-0.8-10.2-1.2-19-1.2-26.4c0-7.4,0.3-15.9,0.9-25.4c0.6-9.5,0.9-15.6,1-18.4c0.1-2.8,0.1-5.2,0.2-7.3
		c0.1-2.1,0.2-4.6,0.5-7.6c0.3-2.9,0.6-5.5,1.1-7.7c0.4-2.2,1.1-4.5,2-6.8c0.9-2.3,2-4.2,3.3-5.8c2.8-3.4,6.8-5.1,12-5.1
		c5.1,0,9.3,1.5,12.7,4.5c0.5,0.8,1.7,2.6,3.7,5.3c2,2.8,3.5,5.4,4.5,7.9c1,2.5,2.1,8.7,3.3,18.4
		C1874.9,328,1876.6,350.5,1876.6,370.2z M1847.8,272.2c-10.2,0-15.4,22-15.4,66.1v8.7c0,10.3,0.7,21.4,2.2,33.2
		c1.5,11.9,3,21.5,4.6,28.9c1.6,7.4,3.8,13.7,6.7,18.9c2.9,5.2,6.1,7.8,9.6,7.8c4.7,0,8.2-5.2,10.4-15.5c2.2-10.3,3.5-19.5,3.9-27.6
		c0.5-11,0.7-18.2,0.7-21.5v-5.3c0-2.8,0-5.1-0.1-7c0-1.9-0.1-5.1-0.2-9.5c-0.1-4.4-0.2-8.3-0.4-11.7c-0.2-3.4-0.5-7.5-0.8-12.4
		c-0.3-4.9-0.8-9.2-1.4-13s-1.3-7.9-2.1-12.2c-0.8-4.3-1.7-8-2.8-11.2c-1.1-3.1-2.4-6-3.8-8.7C1856,274.9,1852.3,272.2,1847.8,272.2
		z"/>
	<path class="st4" d="M1951.6,391.1l0.2,14c0,12.6-1.5,21.8-4.6,27.8c-1.3,2.5-3.2,4.6-5.6,6.3c-2.4,1.7-5.6,2.6-9.5,2.6
		c-3.9,0-7.4-1.1-10.7-3.3c-3.3-2.2-5.8-5-7.5-8.3c-1.8-3.3-3.3-7.2-4.6-11.6c-1.3-4.4-2.3-8.6-2.8-12.5
		c-1.6-10.3-3.1-16.9-4.6-19.9c0-11.8-0.7-29.5-2.1-53.1c-1.4-23.5-2.1-41.2-2.1-53.1l-1.4-4.7c0-1,0.4-2,1.1-3
		c0.7-1,1.5-1.5,2.5-1.5c3.5,0,5.2,5.4,5.2,16.3l1.8,75.3c0.5,0.7,0.9,2.5,1,5.3c0.7,10.3,1.3,16.9,1.9,19.8
		c-0.3,1.7-0.4,3.6-0.4,5.7c0,2,0.7,5.4,2,10.2c1.3,4.8,3.1,9.5,5.2,14.1c2.1,4.6,4.8,8.6,8,12c3.2,3.3,6,5,8.5,5
		c2.5,0,4.4-0.3,5.6-0.9c1.2-0.6,2.2-1.2,2.8-1.9c0.7-0.7,1.2-1.8,1.7-3.4c0.4-1.6,0.7-2.8,0.9-3.6c0.1-0.8,0.3-2.3,0.4-4.5
		c0.1-2.1,0.2-3.4,0.2-3.9c0-0.5-0.1-1.1-0.1-2l0.6-7.4v-25.4l-1.4-13.4l-1.2-39.9v-2.8l-0.9-1.3c0.6-4.2,0.9-8.5,0.9-12.7
		l-1.9-37.9c0-1.2,0.5-2,1.5-2.7c1-0.6,2-0.9,3.1-0.9l3.6,3.6l-0.6,1.7l0.6,1.7l-1.4,13.4l2,40.2l1,38.7l0.7,0.2
		c-0.1,1-0.2,2.6-0.2,4.7l0.6,15.7l0.6,0.7L1951.6,391.1z"/>
	<path class="st4" d="M1984.4,284.9c-4.1-2.6-6.1-5.9-6.1-9.8c0-2,0.8-3.7,2.5-5c1.7-1.3,3.5-1.9,5.4-1.9c3.2,0,5.5,2.1,6.9,6.4
		l-0.4,0.7c0.3,0.6,0.4,1.8,0.4,3.6s-0.8,4.9-2.5,9.1c-1.7,4.2-3.9,8.1-6.6,11.5c-2.7,3.5-5.2,5.3-7.5,5.3l-3.4-1.7l0.4-2
		C1980.8,295,1984.4,289.6,1984.4,284.9z"/>
	<path class="st4" d="M2016.1,274.1l-0.4-4c0-1.3,1.4-2,4.2-2c5.7,0,10.1,1.7,13.1,5.1c3,3.4,5,7.1,6,11c1,3.9,1.7,6.9,2.3,8.9
		c1.2,4.4,1.7,7.9,1.7,10.3c0,7.5-1.9,16.5-5.8,27c-2.5,6.7-3.8,10.4-3.8,11.1c0,7.3,2.7,21.9,8.1,43.9c5.4,22,9.9,37.6,13.3,46.9
		c0,4.9-0.9,7.3-2.7,7.3c-1.4,0-2.6-0.7-3.5-2c-0.9-1.3-1.5-2.1-1.7-2.3c-0.4-5.8-2.2-13.9-5.3-24.2c-3.2-10.3-5.1-17.2-5.8-20.7
		c-0.7-3.4-2-10.5-3.8-21.1c-1.8-10.6-3.5-18.7-4.9-24.4l-1.6-1.3l-4,1.7v83.6l0.4,5.6c0,3-1.3,4.5-3.8,4.5c-1,0-1.9-0.3-2.5-1
		c-0.7-0.7-1-1.6-1-2.7l0.7-1.2l0.8-135.3V274.1z M2021.9,275.1l-1,48.6c0,6.4,0.2,11.1,0.6,14.3h0.4c1,0,2.8-1.5,5.4-4.6
		c2.6-3,4.4-5.5,5.4-7.3c1-1.8,1.8-4.8,2.4-9c0.6-4.2,0.9-7.7,0.9-10.5c0-2.8-0.2-5.7-0.6-8.8c-0.4-3-1-6.3-1.8-9.9
		c-0.8-3.6-2.1-6.5-3.9-8.9c-1.8-2.4-3.8-3.5-6.2-3.5v-0.7L2021.9,275.1z"/>
	<path class="st4" d="M2084.1,430.8l12.5-0.8c6.5,0,9.8,1.2,9.8,3.6c-1.2,2.2-3.2,3.6-6.2,4.2c-3,0.6-5.9,0.9-8.6,0.9h-4.9
		c-6.2,0-9.8-0.5-10.8-1.6c-1-1.1-1.4-2.2-1.4-3.3l1.9-8.3v-0.4c-0.5-3-0.8-6.2-0.8-9.8l1-22.7l-1.2-47.7l1-44.3
		c0-2.7-0.4-6.7-1.3-11.9c-0.9-5.3-1.4-9.1-1.4-11.6l3.8-6.2l14.5-2l0.7,0.7c3.3,0,5.1,0.5,5.6,1.4c0.5,0.9,0.8,1.9,0.8,2.9
		c0,2.8-2.5,4.2-7.5,4.2l-5.6-0.4c-3.1,0-4.6,0.9-4.6,2.6l1.6,37.9l-1,27.9l-0.4,0.4l1.2,0.8l11.5-2.3c0.7,0,1.6,0.4,2.4,1.3
		c0.9,0.8,1.3,1.7,1.3,2.6c0,3-1.1,4.5-3.2,4.5l-4.8-0.2c-5.3,0-7.9,1.4-7.9,4.2l1.5,18.7l-0.7,1.3v45.3c0.7,0.9,1.1,3,1.1,6.2
		V430.8z"/>
	<path class="st4" d="M2213.3,301.7l-0.4-5.6c0-3.1,1-4.7,3-4.7c1.4,0,2.5,0.7,3.3,2.1c0.8,1.4,1.3,2.8,1.3,4.4v14.9l-1.1,1.9
		c0,11.6-0.7,34.1-2.2,67.4c-1.5,33.3-3,51.6-4.4,54.7c-0.3,0.1-1.3,0.3-3,0.8c-1.7,0.5-2.8,0.7-3.5,0.7c-0.7,0-1.3-0.5-1.8-1.5
		c-0.5-1-1-2.3-1.3-3.9c-0.3-1.6-0.6-2.6-0.9-3.2l0.2-0.7c-0.9-6.2-2.7-13.2-5.4-21.2s-4.5-13.3-5.3-16.1c-0.5-0.7-2.3-6.2-5.6-16.7
		c-12.5-41.4-20.3-63.8-23.6-67.1c-1.1,4.6-1.6,9.8-1.6,15.7l0.4,17.5l-0.4,10.8c0,1.7,0.3,6.9,0.8,15.6h-0.6
		c0,24.7,0.5,38.4,1.4,41v20c0.5,1,0.8,2.3,0.8,3.9c0,3.5-1.3,5.2-3.9,5.2c-2.9,0-4.4-4-4.4-12l0.8-14.6l-1.3-64.1l1.3-39.5v-3.9
		c0-2,0.1-3.3,0.2-3.9c0.1-0.7,0.2-1.4,0.3-2.3c0.1-0.9,0.3-1.6,0.5-2.1c0.2-0.5,0.4-1.1,0.7-1.7c0.5-1.3,1.3-2.4,2.1-3.2l0.6,0.8
		l2-0.5c1.6,0.6,2.5,1.7,2.8,3.5c0,0.1,0.1,0.6,0.3,1.3c0.2,0.7,0.3,1.1,0.3,1.1c2.4,10.6,7.4,25.4,15,44.3
		c7.6,18.9,12.2,31.1,13.8,36.5c1.6,5.4,3.1,11.1,4.4,17.1c2.8,13.4,6,23.1,9.4,29.3l0.4-0.7
		C2211.7,390.7,2213.3,350.2,2213.3,301.7z M2208.9,437.6c0.1,0,0.2,0.1,0.2,0.2L2208.9,437.6z"/>
	<path class="st4" d="M2288.5,351.3l0.4,26.6c0,33.4-5,53.8-15.1,61.1c-2.4,1.8-5.2,2.7-8.2,2.7c-16.3,0-24.4-27.4-24.4-82.1
		c0-21.1,1.4-39.4,4.1-55c2-11.3,5.1-17,9.3-17c0.9,0,1.8,0.4,2.7,1.2c0.8,0.8,2,1.5,3.5,2c1.5,0.5,3.5,1.1,6,1.6
		c2.5,0.5,4.4,0.9,5.4,1.1c2.8,0.5,5.5,3.4,8,8.6c5.8,10.6,8.7,26.6,8.7,48.1L2288.5,351.3z M2247.7,359.4l0.4,17.6
		c0,14.1,1.5,27.6,4.5,40.4c1.1,4.8,2.7,9,4.8,12.5c2.1,3.6,4.6,5.3,7.3,5.3s5.2-1.1,7.2-3.3c2.1-2.2,3.7-5.2,4.9-9.1
		c1.2-3.9,2.2-7.8,3.1-11.9c0.8-4,1.4-8.5,1.7-13.5c0.5-8,0.8-15.1,0.8-21.3l-2.3-52.7l-0.8-1.7l0.4-1.1c0-6.5-1.7-12.1-5.1-16.9
		c-3.4-4.8-7.5-7.2-12.4-7.2h-8.7c-1.2,0-2.2,6.6-3.1,19.9c-0.9,13.2-1.5,20.6-1.7,22L2247.7,359.4z"/>
	<path class="st4" d="M2360.3,444.8c-2.4,0-3.6-3.3-3.6-9.9c-0.3-3.9-1-9.5-2.2-16.8c-1.2-7.3-2-12-2.2-14.3c-0.3-2.2-1-10.4-2-24.5
		c-2.7-35.2-5.3-54.1-7.6-56.6c-1.4,16.8-2.1,27-2.1,30.8c0,3.8-0.3,8.8-0.9,15c-0.6,6.2-1.6,14.3-3,24.2
		c-1.4,9.9-2.2,15.5-2.4,16.9c-0.2,1.3-0.4,3.4-0.7,6.3c-0.3,2.9-0.6,5.6-1,8.2c-0.4,2.6-0.8,5.4-1.4,8.3c-1.1,6.5-2.5,9.7-4.3,9.7
		c-2.1,0-3.7-3.3-4.8-10s-2-16.1-2.7-28.5c-0.7-12.3-1.2-19.8-1.4-22.3c-0.3-2.5-1-8.2-2.2-17s-2-15-2.2-18.6
		c-0.2-3.6-0.5-8.1-0.7-13.7c-0.2-5.5-0.5-10-0.7-13.4c-0.5-9.6-1.9-17.7-4.2-24.1c0.6-1.2,1.5-1.7,2.8-1.7c1.3,0,2.2,0.5,2.8,1.4
		c0.6,0.9,1,2.1,1.3,3.7c0.2,1.6,0.4,3,0.5,4.4c0.1,2.8,0.3,5.8,0.5,9c0.2,3.2,1.7,17.5,4.6,42.7c2.9,25.2,4.5,44.6,4.7,58.1
		c0.4,1.1,0.8,3.1,1.1,6s0.7,4.9,1.2,5.9h0.2c1.6-10.9,2.5-18,2.9-21.3c0.4-3.3,0.9-7.6,1.6-12.8c0.7-5.2,1.2-9.3,1.4-12.2
		c0.3-2.9,0.6-6.6,1-11c0.6-6.7,1.1-14.9,1.4-24.4c0.3-9.5,0.8-17.1,1.6-22.9c0.8-5.7,1.2-9.6,1.2-11.5l3.8-1.7
		c0.9,0,1.7,0.3,2.4,0.8c0.7,0.5,1.1,1.2,1.1,1.9c0,0.7-0.2,1.5-0.5,2.2c6.4,23.1,10.2,49.8,11.6,80.2c0.5,11.6,1.7,20.2,3.7,25.7
		c1.8-5.4,3.3-18.4,4.4-38.9c1.1-20.5,1.6-34.8,1.6-42.8s0.5-15.9,1.4-23.6c0.9-7.7,1.4-12.9,1.4-15.6s-0.3-4.6-0.8-5.5
		c0-2.3,1.4-3.5,4.2-3.5c1.2,0,1.9,0.1,2.3,0.4c0.4,0.3,0.6,1.7,0.6,4.1c0,2.5-0.3,5-1,7.6l0.4,1.4c-1.2,5.9-1.8,11.1-1.8,15.8
		c0,4.6,0.1,7.2,0.4,7.6l-1.2,4.5l0.6,1.5c-0.4,0.9-0.6,1.6-0.6,2.1c0,0.5,0.2,2.1,0.6,4.7l-0.6,1c0,5.4-0.6,17.1-1.7,35.1
		c-1.1,18-1.8,28.4-2.2,31.2c-0.3,2.8-0.9,5.7-1.6,8.8c-0.7,3.1-1.1,5.6-1.1,7.3C2365.9,436.7,2364,444.8,2360.3,444.8z M2360.7,418
		v0.2h0.2C2360.9,418.1,2360.9,418,2360.7,418z"/>
	<path class="st4" d="M2473.4,372.1l2.3,58.1v2.4c0,1.7-0.2,2.8-0.6,3.3c-1.1,1-2.3,1.5-3.6,1.5c-1.3,0-2.3-0.4-3.2-1.1
		c-0.8-0.7-1.2-1.6-1.2-2.7c0.4-0.9,0.6-1.7,0.6-2.6l-0.6-4.5v-22.1c0-2-3.7-3.6-11-5.1c-7.3-1.4-12.8-2.1-16.3-2.1
		c-1.4,0-2.6,2.7-3.7,8.1c-1.1,5.4-2.1,11.3-3.2,17.8c-1,6.5-2,10.5-3.1,12.1c-3.3,0-5.4-0.9-6.4-2.7c2.2-3.3,4.3-11.5,6.3-24.4
		c2-12.9,3.6-22.3,4.8-28.1c1.2-5.8,3.4-18.5,6.6-38c3.2-19.5,5.3-32,6.4-37.5c1.1-5.5,2-9.5,2.6-12.1c0.6-2.6,1.4-5.7,2.3-9.3
		c2.2-8.6,4.2-12.8,6-12.8c2.2,0,3.6,0.5,4.3,1.6c0.7,1.1,1.3,3.5,1.8,7.4c0.5,3.9,1,8.8,1.5,14.8c0.5,6,1,11.5,1.4,16.5
		c1.3,15.7,2.1,26,2.4,30.9c0.3,4.9,0.9,8.5,1.9,10.7c-0.3,4.5-0.4,8.4-0.4,11.6C2471.6,366.9,2472.2,369.7,2473.4,372.1z
		 M2439.3,391.1c5.8,2.1,12.9,3.2,21.1,3.2c1.7,0,3-0.1,3.8-0.4l1,0.4c1.3,0,1.9-0.7,1.9-2.1c0-31.1-2.7-64.5-8.1-100.5
		c-0.1-0.4-0.2-1.2-0.5-2.4c-0.2-1.2-0.4-2.1-0.4-2.7c-1.7,5.2-2.6,8.4-2.7,9.8l0.6,1.3c-0.5,0.5-1.3,3.1-2.3,7.7
		c-1.1,4.6-2.6,14.1-4.5,28.5c-1.9,14.4-3.3,23.7-4.2,27.8c-0.8,4.1-1.7,7.8-2.7,11.2c-2,7.4-3,13.1-3,17V391.1z"/>
</g>
<g>
	<path class="st4" d="M2250.5,673.3l1.7,73.4c0,2.2-0.3,3.9-0.9,5.1c-0.6,1.2-1.8,1.8-3.6,1.8c-1.8,0-2.7-2.6-2.7-7.7l0.8-39.9
		l-1.6-36.1c0-16.5-0.2-30.2-0.6-40.9c-0.4-10.7-0.6-17.8-0.7-21.4c-0.1-3.6-0.2-6.2-0.3-8.1c-0.3-5.7-1-10.5-1.8-14.4
		c1.3-2.1,3.1-3.2,5.4-3.2c4.9,0,9.4,1.2,13.4,3.7c4,2.5,7.1,5.7,9.5,9.7c4.9,8.3,7.3,16.9,7.3,25.6s-1.5,17.6-4.4,26.6
		c-3.7,11.4-8.3,18.4-14,20.9c-1.8,0.8-3.1,1.6-3.8,2.5C2253.2,672.1,2251.9,673,2250.5,673.3z M2247.6,588.5l2.4,76.2l0.4,0.4
		c1.4-0.1,2.5-0.6,3.2-1.3c0.7-0.7,1.4-1.4,2.1-2.2c0.7-0.8,1.2-1.3,1.4-1.6c9-9.6,13.5-21.8,13.5-36.4c0-5.1-0.2-9.1-0.6-12.2
		c-0.4-3-1.6-6-3.5-8.8c-1.9-2.8-3.6-4.8-5-6c-1.4-1.2-3.4-2.8-5.9-4.8c-2.5-2-4-3.1-4.3-3.3H2247.6z"/>
	<path class="st4" d="M2329.8,750.5l-6.9-0.8c-1.1,0-2.4,0.4-3.9,1.3c-1.5,0.8-3.3,1.3-5.3,1.3c-2.1,0-3.4-0.7-3.9-2.2l-3.5,0.2
		c-3,0-4.9-0.8-5.7-2.3c0-0.9,0.4-1.7,1.2-2.3c0.8-0.6,1.3-1.1,1.6-1.5h6l0.8-0.9l0.7-4.7l-1.5-48.8l1-52c0-10.1-0.3-18.7-1-25.8
		c-1.4-0.4-3.4-0.7-6.2-0.7l-5,0.4c-2.6,0-4-1.3-4-3.8c0-0.7,0.6-1.3,1.9-1.9c1.3-0.6,2.3-0.9,3.1-0.9c19.3,0,29,2.3,29,6.7
		c0,0.4-0.2,1-0.5,1.7l-4.8,0.4c-1.1-0.9-3.1-1.3-6-1.3l-1,0.7c0.4,1.3,0.6,5.3,0.6,11.9l-0.6,53l1.4,48.9l-0.2,6.9
		c0,3.5,0.2,5.6,0.6,6.2l-0.2,0.5c0,1.5,1.5,2.2,4.6,2.2l6.1-0.2c4.1,0,6.2,1.1,6.2,3.2c0,1.3-0.4,2.4-1.3,3.2
		C2332.2,750.1,2331.1,750.5,2329.8,750.5z"/>
	<path class="st4" d="M2412,616.5l-0.4-5.6c0-3.1,1-4.7,3-4.7c1.4,0,2.5,0.7,3.3,2.1c0.8,1.4,1.3,2.8,1.3,4.4v14.9l-1.1,1.9
		c0,11.6-0.7,34.1-2.2,67.4c-1.5,33.3-3,51.6-4.4,54.7c-0.3,0.1-1.3,0.3-3,0.8c-1.7,0.5-2.8,0.7-3.5,0.7c-0.7,0-1.3-0.5-1.8-1.5
		c-0.5-1-1-2.3-1.3-3.9c-0.3-1.6-0.6-2.6-0.9-3.2l0.2-0.7c-0.9-6.2-2.7-13.2-5.4-21.2s-4.5-13.3-5.3-16.1c-0.5-0.7-2.3-6.2-5.6-16.7
		c-12.5-41.4-20.3-63.8-23.6-67.1c-1.1,4.6-1.6,9.8-1.6,15.7l0.4,17.5l-0.4,10.8c0,1.7,0.3,6.9,0.8,15.6h-0.6
		c0,24.7,0.5,38.4,1.4,41v20c0.5,1,0.8,2.3,0.8,3.9c0,3.5-1.3,5.2-3.9,5.2c-2.9,0-4.4-4-4.4-12l0.8-14.6l-1.3-64.1l1.3-39.5v-3.9
		c0-2,0.1-3.3,0.2-3.9c0.1-0.7,0.2-1.4,0.3-2.3c0.1-0.9,0.3-1.6,0.5-2.1c0.2-0.5,0.4-1.1,0.7-1.7c0.5-1.3,1.3-2.4,2.1-3.2l0.6,0.8
		l2-0.5c1.6,0.6,2.5,1.7,2.8,3.5c0,0.1,0.1,0.6,0.3,1.3c0.2,0.7,0.3,1.1,0.3,1.1c2.4,10.6,7.4,25.4,15,44.3
		c7.6,18.9,12.2,31.1,13.8,36.5c1.6,5.4,3.1,11.1,4.4,17.1c2.8,13.4,6,23.1,9.4,29.3l0.4-0.7C2410.4,705.6,2412,665.1,2412,616.5z
		 M2407.7,752.5c0.1,0,0.2,0.1,0.2,0.2L2407.7,752.5z"/>
	<path class="st4" d="M2465.1,651l-0.4,14.3c0,6.7,2.4,19.1,7.1,37.1c5.8,21.6,10.6,35.3,14.6,41.1c2.7,3.8,4.1,6.6,4.1,8.3
		c0,3-1.2,4.5-3.6,4.5c-3.3,0-7.2-6.7-11.7-20c-4.6-13.3-8.4-27.2-11.5-41.4c-3.1-14.3-4.8-24-5-29.1l-0.5-0.9
		c-0.5,1.1-1.6,3.5-3.3,7.2c-1.7,3.7-2.9,6.4-3.6,8c-2,5.2-3.1,10.4-3.1,15.8l-1,16v28.5l1.4,12.7c0,0.8-0.4,1.5-1.1,2
		c-0.7,0.5-1.7,0.8-3,0.8c-1.3,0-2.3-0.3-2.9-0.9c-0.6-0.6-1-1.9-1-3.8v-41.9l1.9-28.1l2-43.1v-30.9c0.7-1.7,1.8-2.5,3.3-2.5
		c1.5,0,2.6,0.4,3.4,1.3s1.2,1.9,1.2,2.9c-1.2,2.4-1.8,6.1-1.8,11c0,4.9-0.1,12.7-0.4,23.2c-0.3,10.5-0.4,18.4-0.4,23.6
		c1.4-0.6,6.8-10.8,16.2-30.7c9.5-19.9,14.7-29.9,15.6-29.9c3.5,0,5.4,1.2,5.6,3.7C2478.7,623.4,2471.3,637.2,2465.1,651z"/>
	<path class="st4" d="M2551.5,700.8l-0.6,9.6c0,0.4,0.2,1.2,0.6,2.5c-1.3,10.4-3.1,17.8-5.4,22c-2.3,4.2-4.9,7.5-7.8,9.8
		c-2.9,2.3-6.6,4.5-11.2,6.7c-1,0.1-2.3,0.5-4.1,1.1c-1.8,0.7-3.2,1-4.2,1c-5.4,0-8.1-1-8.1-3l1-56.5l-1.4-92.9
		c0-10.7,1.8-16,5.4-16c9.5,0,16.7,3.3,21.7,9.8s7.5,15.3,7.5,26.3c0,11-4.5,23-13.4,35.9c2,3.1,4.2,6.5,6.8,10.1l5.7,8.3
		c3.7,5.2,5.8,9.7,6.5,13.5C2551.2,693,2551.5,696.9,2551.5,700.8z M2516.7,602.3l0.8,53.4l0.6,0.2c4.9,0,8.9-3,12-9
		c2.5-4.8,4.5-9.7,6.1-14.7c1.6-5,2.6-8.2,3.2-9.5v-8.5c0-5.1-1.7-9.9-5.2-14.6c-3.5-4.6-7.5-7-12.1-7
		C2518.5,592.7,2516.7,595.9,2516.7,602.3z M2518.5,744.6l1.3,0.2c4.3,0,9.3-2.3,15-7c5.7-4.7,8.9-8.8,9.7-12.4
		c0.8-3.6,1.2-8.1,1.2-13.6c0-26.6-6-42.6-17.9-47.9c-1.4,0.1-3.2,0.5-5.5,1.2c-2.3,0.7-3.9,1.2-4.8,1.3
		C2518.2,688.3,2518.5,714.3,2518.5,744.6z"/>
	<path class="st4" d="M2605,750.5l-6.9-0.8c-1.1,0-2.4,0.4-3.9,1.3c-1.5,0.8-3.3,1.3-5.3,1.3c-2.1,0-3.4-0.7-3.9-2.2l-3.5,0.2
		c-3,0-4.9-0.8-5.7-2.3c0-0.9,0.4-1.7,1.2-2.3c0.8-0.6,1.3-1.1,1.6-1.5h6l0.8-0.9l0.7-4.7l-1.5-48.8l1-52c0-10.1-0.3-18.7-1-25.8
		c-1.4-0.4-3.4-0.7-6.2-0.7l-5,0.4c-2.6,0-4-1.3-4-3.8c0-0.7,0.6-1.3,1.9-1.9c1.3-0.6,2.3-0.9,3.1-0.9c19.3,0,29,2.3,29,6.7
		c0,0.4-0.2,1-0.5,1.7l-4.8,0.4c-1.1-0.9-3.1-1.3-6-1.3l-1,0.7c0.4,1.3,0.6,5.3,0.6,11.9l-0.6,53l1.4,48.9l-0.2,6.9
		c0,3.5,0.2,5.6,0.6,6.2l-0.2,0.5c0,1.5,1.5,2.2,4.6,2.2l6.1-0.2c4.1,0,6.2,1.1,6.2,3.2c0,1.3-0.4,2.4-1.3,3.2
		C2607.4,750.1,2606.3,750.5,2605,750.5z"/>
	<path class="st4" d="M2652.6,651l-0.4,14.3c0,6.7,2.4,19.1,7.1,37.1c5.8,21.6,10.6,35.3,14.6,41.1c2.7,3.8,4.1,6.6,4.1,8.3
		c0,3-1.2,4.5-3.6,4.5c-3.3,0-7.2-6.7-11.7-20c-4.6-13.3-8.4-27.2-11.5-41.4c-3.1-14.3-4.8-24-5-29.1l-0.5-0.9
		c-0.5,1.1-1.6,3.5-3.3,7.2c-1.7,3.7-2.9,6.4-3.6,8c-2,5.2-3.1,10.4-3.1,15.8l-1,16v28.5l1.4,12.7c0,0.8-0.4,1.5-1.1,2
		c-0.7,0.5-1.7,0.8-3,0.8c-1.3,0-2.3-0.3-2.9-0.9c-0.6-0.6-1-1.9-1-3.8v-41.9l1.9-28.1l2-43.1v-30.9c0.7-1.7,1.8-2.5,3.3-2.5
		c1.5,0,2.6,0.4,3.4,1.3c0.8,0.9,1.2,1.9,1.2,2.9c-1.2,2.4-1.8,6.1-1.8,11c0,4.9-0.1,12.7-0.4,23.2c-0.3,10.5-0.4,18.4-0.4,23.6
		c1.4-0.6,6.8-10.8,16.2-30.7c9.5-19.9,14.7-29.9,15.6-29.9c3.5,0,5.4,1.2,5.6,3.7C2666.2,623.4,2658.8,637.2,2652.6,651z"/>
	<path class="st4" d="M2697.8,750.5l0.2-5.7l-0.7-0.9c1-3,1.5-6,1.5-9.1l-1-29.4l1.4-67.1l-0.8-26.7c0-4.2,2-6.3,6-6.3
		c1.6,0,2.7,0.5,3.4,1.4c0.5,0.1,2.5,0.4,6,0.9c8.5,1,12.9,2.9,13.1,5.6c0,1.2-1.3,2.6-4,4.2c-7.7-2.7-13.3-4.1-16.9-4.2l-1,1.3
		c0.1,2.1,0.2,5.3,0.2,9.6l-0.8,34.6c0,4.1,1,6.2,3,6.2l7-0.4c5.3,0,8,1.3,8.1,4c0,1.5-0.4,2.9-1.1,4c-0.7,1.2-2,1.7-3.8,1.7
		s-3.2-0.6-4.1-1.7l-6.8-1.1h-0.9l-1,1.1v0.7c0.3,3.8,0.4,9.7,0.4,17.6l-0.4,31.7c0,14.8,0.9,23,2.8,24.6c1.2,1.1,3.5,1.6,6.7,1.6
		l7.7-0.4c4.1,0,6.1,1,6.1,2.9c0,2.7-3,4-9.1,4h-17.2C2699.4,755.2,2698,753.6,2697.8,750.5z"/>
	<path class="st4" d="M2747,612.1c0-5.7,1.5-8.5,4.6-8.5c6.8,0,12.4,1.8,16.8,5.5c4.4,3.7,6.6,9.1,6.6,16.2v16.2
		c0,5.7-2.7,13.9-8.1,24.6c-1.8,3.6-2.7,5.5-2.7,5.8c0,0.3,2.6,12.1,7.9,35.3c5.3,23.2,8,35.1,8.3,35.9c0.3,0.7,0.9,2.2,2,4.6
		c1.1,2.3,1.6,4.3,1.6,6c0,1.7-0.8,2.5-2.3,2.5l-3.1-1.1c-3.3-3.9-6.8-18.4-10.7-43.5c-3.7-24.2-6.9-36.4-9.6-36.4h-0.8
		c-3.1,0-4.6,1.1-4.6,3.2c0,8.1,0.4,21.6,1.3,40.5c0.9,18.9,1.6,29.5,2.2,31.7l-1.5,3.7h-3.1l-1.5-1.7
		C2748.1,688.1,2747,641.3,2747,612.1z M2752.9,615.1l0.8,54l0.4,0.4c2.6,0,5-1.5,7.1-4.4c2.1-2.9,3.7-6.5,4.8-10.7
		c2.2-8.7,3.4-15.3,3.4-19.8c0-4.5-0.1-7.9-0.4-10.2c-0.3-2.3-0.8-4.7-1.7-7.2c-1.8-5.2-5.8-7.8-11.9-7.8c-0.8,0-1.4,0.7-1.8,2.1
		C2753.1,612.8,2752.9,614,2752.9,615.1z"/>
</g>
<g>
</g>
<g>
</g>
<g>
</g>
<g>
</g>
<g>
</g>
<g>
</g>
<g>
</g>
<g>
</g>
<g>
</g>
<g>
</g>
<g>
</g>
<g>
</g>
<g>
</g>
<g>
</g>
<g>
</g>
</svg>
