<?xml version="1.0" encoding="utf-8"?>
<!-- Generator: Adobe Illustrator 22.1.0, SVG Export Plug-In . SVG Version: 6.00 Build 0)  -->
<svg version="1.1" xmlns="http://www.w3.org/2000/svg" xmlns:xlink="http://www.w3.org/1999/xlink" x="0px" y="0px"
	 viewBox="0 0 50 50" style="enable-background:new 0 0 50 50;" xml:space="preserve">
<style type="text/css">
	.st0{fill:#FFFFFF;stroke:#F8BBD0;stroke-width:2;stroke-miterlimit:10;}
	.st1{fill:#F8BBD0;}
	.st2{fill:none;}
</style>
<g id="Calque_1">
	<path class="st0" d="M39.5,9.6c11.9,11.2,7.2,31-8.4,35.7S0.7,36,4.4,20.1S27.7-1.6,39.5,9.6z"/>
	<g>
		<g>
			<path class="st1" d="M39.6,28.3c0-3.2-2.5-5.7-5.7-5.7c-0.3,0-0.7,0-1.1,0.1l-1.4-6.3h-2.6c-0.2-0.2-0.4-0.4-0.6-0.4
				c-0.5,0-0.8,0.3-0.8,0.8c0,0.5,0.3,0.8,0.8,0.8c0.2,0,0.6-0.2,0.6-0.4h1.9l0.4,1.9c0,0.1,0,0.1-0.1,0.2c-0.6,0.9-3.4,4.6-8,5
				l-2.1-6c0.1,0,0.2,0,0.2,0c2.8-0.2,2.3-1.2,2.3-1.2h-5.3c-0.2,0-0.5,0.2-0.5,0.5V18c0,0.3,0.2,0.5,0.6,0.5s0.9-0.1,1.8-0.2
				l1.3,3.7l-1.8,1.8c-1-0.7-2.2-1.2-3.5-1.2c-3.2,0-5.7,2.5-5.7,5.7s2.5,5.7,5.7,5.7c3.1,0,5.6-2.4,5.7-5.5h0.7
				c0.2,0.7,0.9,1.3,1.7,1.3c1,0,1.7-0.8,1.7-1.7c0-0.4-0.2-0.7-0.3-1.1c3.5-1.5,5.2-4.4,6-6.2l0.5,2.1c-2.2,0.8-3.8,2.9-3.8,5.4
				c0,3.2,2.5,5.7,5.7,5.7C37.1,34,39.6,31.4,39.6,28.3z M23,26.8c-0.2,0.2-0.4,0.5-0.5,0.8h-0.8c-0.2-1.2-0.7-2.4-1.5-3.2l1.5-1.5
				L23,26.8z M16.1,29.1c-0.4,0-0.8-0.3-0.8-0.8c0-0.4,0.3-0.8,0.8-0.8c0.4,0,0.8,0.3,0.8,0.8C16.9,28.7,16.6,29.1,16.1,29.1z
				 M19.3,25.2c0.3,0.3,0.6,0.7,0.7,1.1l-2.7,1.2H17l0,0c0,0,0-0.1-0.1-0.1L19.3,25.2z M17.8,27.6l2.4-1.1c0.2,0.3,0.2,0.7,0.3,1.1
				H17.8z M18.7,24.7l-1.9,1.9l0.9-2.5C18,24.3,18.3,24.4,18.7,24.7z M16.2,27v-3.2c0.5,0,0.9,0.1,1.3,0.2l-1,2.8L16.2,27L16.2,27
				C16.2,27.1,16.2,27,16.2,27C16.1,27,16.2,27,16.2,27z M16,23.9v3.2c-0.2,0-0.2,0-0.4,0.1l-1.3-3C14.9,23.9,15.4,23.9,16,23.9z
				 M14.1,24.3l1.4,2.9c-0.1,0.1-0.2,0.2-0.3,0.2l0,0l-2.4-2.1C13.2,24.8,13.6,24.5,14.1,24.3z M12.7,25.4l2.4,2.1l0,0
				c-0.1,0.1-0.2,0.2-0.2,0.3v-0.1l-3.1-1.1C12.1,26.3,12.3,25.8,12.7,25.4z M11.9,26.9l3.1,1.1c0,0.1-0.1,0.2-0.1,0.3v-0.1h-3.2
				C11.6,27.8,11.7,27.4,11.9,26.9z M11.6,28.3h3.2c0,0.2,0,0.2,0.1,0.4L12,30.1C11.8,29.5,11.6,29,11.6,28.3z M12,30.2l2.9-1.4
				v-0.1c0.1,0.2,0.2,0.2,0.2,0.4l-2.1,2.4C12.7,31.2,12.3,30.8,12,30.2z M13.2,31.7l2.1-2.4l0,0c0.1,0.1,0.2,0.2,0.3,0.2h-0.1
				l-1.1,3.1C14,32.3,13.6,32.1,13.2,31.7z M16,29.5v3.2c-0.5,0-0.9-0.1-1.3-0.2l1.1-3.1l0,0C15.8,29.5,16,29.5,16,29.5
				C16.1,29.5,16.1,29.5,16,29.5z M16.2,32.8v-3.2c0.2,0,0.2,0,0.4-0.1l1.4,2.9C17.4,32.6,16.8,32.8,16.2,32.8z M18,32.3l-1.4-2.9
				c0.1-0.1,0.2-0.2,0.3-0.2l0,0l2.4,2.1C19,31.7,18.5,32.1,18,32.3z M19.5,31.2L17,29.1c0.1-0.1,0.2-0.2,0.2-0.3v0.1l3.1,1.1
				C20.1,30.3,19.8,30.8,19.5,31.2z M20.4,29.7l-3.1-1.1c0-0.1,0-0.1,0-0.2h3.2C20.5,28.9,20.5,29.3,20.4,29.7z M24.8,26.4
				c-0.2-0.1-0.3-0.1-0.6-0.1c-0.2,0-0.2,0-0.4,0.1l-0.4-1.2c2.8-0.2,5-1.5,6.4-2.8C28.7,23.8,27.2,25.4,24.8,26.4z M38.4,28.2h-3.2
				c0-0.2,0-0.2-0.1-0.4l2.9-1.4C38.2,27,38.4,27.6,38.4,28.2z M38,26.4l-2.9,1.4v0.1c-0.1-0.2-0.2-0.2-0.2-0.4l2.1-2.4
				C37.3,25.4,37.7,25.8,38,26.4z M36.8,24.9l-2.1,2.4c-0.1-0.1-0.2-0.2-0.3-0.2h0.1l1.1-3.1C36,24.3,36.4,24.5,36.8,24.9z
				 M33.9,29.1c-0.4,0-0.8-0.3-0.8-0.8c0-0.4,0.3-0.8,0.8-0.8c0.4,0,0.8,0.3,0.8,0.8C34.7,28.7,34.3,29.1,33.9,29.1z M34,27v-3.2
				c0.5,0,0.9,0.1,1.3,0.2l-1.1,3.1C34.2,27.1,34,27,34,27C33.9,27,33.9,27,34,27z M33.8,23.9v3.2l0,0l-0.7-3.2
				C33.4,23.9,33.6,23.9,33.8,23.9z M32.5,24.9l-0.3-0.7c0.1,0,0.1-0.1,0.2-0.1L32.5,24.9z M32,24.3l0.6,1.4l0.4,1.6l0.3-0.1l0,0
				c-0.1,0.1-0.2,0.2-0.3,0.2l0,0l-2.4-2.1C31,24.8,31.5,24.5,32,24.3z M30.5,25.4l2.4,2.1l0,0c-0.1,0.1-0.2,0.2-0.2,0.3v-0.1
				l-3.1-1.1C29.9,26.3,30.2,25.8,30.5,25.4z M29.6,26.9l3.1,1.1c0,0.1-0.1,0.2-0.1,0.3v-0.1h-3.2C29.5,27.8,29.5,27.4,29.6,26.9z
				 M29.5,28.3h3.2c0,0.2,0,0.2,0.1,0.4l-2.9,1.4C29.6,29.5,29.5,29,29.5,28.3z M29.9,30.2l2.9-1.4v-0.1c0.1,0.2,0.2,0.2,0.2,0.4
				l-2.1,2.4C30.5,31.2,30.1,30.8,29.9,30.2z M31,31.7l2.1-2.4l0,0c0.1,0.1,0.2,0.2,0.3,0.2h-0.1l-1.1,3.1
				C31.9,32.3,31.4,32.1,31,31.7z M33.8,29.5v3.2c-0.5,0-0.9-0.1-1.3-0.2l1.1-3.1l0,0C33.7,29.5,33.8,29.5,33.8,29.5
				C33.9,29.5,33.8,29.5,33.8,29.5z M34,32.8v-3.2c0.2,0,0.2,0,0.4-0.1l1.4,2.9C35.1,32.6,34.6,32.8,34,32.8z M35.9,32.3l-1.4-2.9
				c0.1-0.1,0.2-0.2,0.3-0.2l0,0l2.4,2.1C36.8,31.7,36.4,32.1,35.9,32.3z M37.3,31.2l-2.4-2.1c0.1-0.1,0.2-0.2,0.2-0.3v0.1l3.1,1.1
				C37.9,30.3,37.7,30.8,37.3,31.2z M38.1,29.7l-3.1-1.1c0-0.1,0.1-0.2,0.1-0.3v0.1h3.2C38.4,28.8,38.3,29.2,38.1,29.7z"/>
			<polygon class="st1" points="36.5,20.9 36.5,16.6 32.1,17.7 33.3,21.3 			"/>
		</g>
	</g>
	<path id="SVGID_x5F_1_x5F_" class="st2" d="M38.4,10.7C27.5,0.4,9.4,5.8,5.9,20.5s10.3,27.6,24.7,23.3S49.4,21.1,38.4,10.7z"/>
	<text>	<textPath  xlink:href="#SVGID_x5F_1_x5F_" startOffset="-302443904%">
<tspan  style="fill:#FFBCD2;stroke:#FF97BF;stroke-width:0.25;stroke-miterlimit:10; font-family:'VCROSDMono'; font-size:4.4436px;">You’re now a #PinkBiker</tspan>	</textPath>
</text>
</g>
<g id="Texte">
</g>
</svg>
